<mxfile host="app.diagrams.net" agent="Mozilla/5.0 (Windows NT 10.0; Win64; x64) AppleWebKit/537.36 (KHTML, like Gecko) Chrome/132.0.0.0 Safari/537.36" version="26.0.11" pages="3">
  <diagram name="primera-versiÃ³n" id="XVQ2DTZ_a7cj2CQwqG6R">
    <mxGraphModel dx="1833" dy="420" grid="1" gridSize="10" guides="1" tooltips="1" connect="1" arrows="1" fold="1" page="1" pageScale="1" pageWidth="827" pageHeight="1169" math="0" shadow="0">
      <root>
        <mxCell id="0" />
        <mxCell id="1" parent="0" />
        <mxCell id="dehNb-m1zuO__gplLb6W-8" style="rounded=0;orthogonalLoop=1;jettySize=auto;html=1;entryX=1;entryY=0.5;entryDx=0;entryDy=0;endArrow=none;endFill=0;strokeColor=#196ea3;fontColor=#B266FF;" parent="1" source="dehNb-m1zuO__gplLb6W-1" target="01qwmL5oMfy-qxcLMMER-14" edge="1">
          <mxGeometry relative="1" as="geometry" />
        </mxCell>
        <mxCell id="dehNb-m1zuO__gplLb6W-11" style="rounded=0;orthogonalLoop=1;jettySize=auto;html=1;endArrow=none;endFill=0;fontColor=#61af4b;strokeColor=#2D7600;fillColor=#60a917;entryX=1;entryY=0.5;entryDx=0;entryDy=0;" parent="1" source="01qwmL5oMfy-qxcLMMER-1" target="dehNb-m1zuO__gplLb6W-1" edge="1">
          <mxGeometry relative="1" as="geometry">
            <mxPoint x="420" y="120" as="targetPoint" />
            <Array as="points">
              <mxPoint x="420" y="135" />
            </Array>
          </mxGeometry>
        </mxCell>
        <mxCell id="01qwmL5oMfy-qxcLMMER-1" value="orquestador/api-gateway" style="shape=module;align=left;spacingLeft=20;align=center;verticalAlign=top;whiteSpace=wrap;html=1;" parent="1" vertex="1">
          <mxGeometry x="350" y="320" width="140" height="50" as="geometry" />
        </mxCell>
        <mxCell id="01qwmL5oMfy-qxcLMMER-3" value="ms-customer" style="shape=module;align=left;spacingLeft=20;align=center;verticalAlign=top;whiteSpace=wrap;html=1;" parent="1" vertex="1">
          <mxGeometry x="80" y="190" width="140" height="50" as="geometry" />
        </mxCell>
        <mxCell id="01qwmL5oMfy-qxcLMMER-12" style="rounded=0;orthogonalLoop=1;jettySize=auto;html=1;endArrow=none;endFill=0;" parent="1" target="01qwmL5oMfy-qxcLMMER-1" edge="1">
          <mxGeometry relative="1" as="geometry">
            <mxPoint x="280" y="345" as="sourcePoint" />
            <Array as="points" />
          </mxGeometry>
        </mxCell>
        <mxCell id="01qwmL5oMfy-qxcLMMER-9" value="ms-credtits" style="shape=module;align=left;spacingLeft=20;align=center;verticalAlign=top;whiteSpace=wrap;html=1;" parent="1" vertex="1">
          <mxGeometry x="80" y="340" width="140" height="50" as="geometry" />
        </mxCell>
        <mxCell id="01qwmL5oMfy-qxcLMMER-13" style="rounded=0;orthogonalLoop=1;jettySize=auto;html=1;endArrow=none;endFill=0;" parent="1" edge="1">
          <mxGeometry relative="1" as="geometry">
            <mxPoint x="260" y="460" as="sourcePoint" />
            <mxPoint x="260" y="190" as="targetPoint" />
            <Array as="points">
              <mxPoint x="280" y="460" />
              <mxPoint x="280" y="190" />
            </Array>
          </mxGeometry>
        </mxCell>
        <mxCell id="01qwmL5oMfy-qxcLMMER-10" value="ms-transactions" style="shape=module;align=left;spacingLeft=20;align=center;verticalAlign=top;whiteSpace=wrap;html=1;" parent="1" vertex="1">
          <mxGeometry x="80" y="410" width="140" height="50" as="geometry" />
        </mxCell>
        <mxCell id="01qwmL5oMfy-qxcLMMER-14" value="ms-admin-server-data" style="shape=module;align=left;spacingLeft=20;align=center;verticalAlign=top;whiteSpace=wrap;html=1;" parent="1" vertex="1">
          <mxGeometry x="-320" y="110" width="140" height="50" as="geometry" />
        </mxCell>
        <mxCell id="01qwmL5oMfy-qxcLMMER-17" value="BACKEND" style="text;strokeColor=none;align=center;fillColor=none;html=1;verticalAlign=middle;whiteSpace=wrap;rounded=0;fontStyle=5" parent="1" vertex="1">
          <mxGeometry x="20" y="10" width="130" height="30" as="geometry" />
        </mxCell>
        <mxCell id="LaewK-1yMpPG1QU0pVmy-5" style="edgeStyle=orthogonalEdgeStyle;rounded=0;orthogonalLoop=1;jettySize=auto;html=1;exitX=0.5;exitY=1;exitDx=0;exitDy=0;" edge="1" parent="1" source="dehNb-m1zuO__gplLb6W-1">
          <mxGeometry relative="1" as="geometry">
            <mxPoint x="50" y="370" as="targetPoint" />
            <Array as="points">
              <mxPoint x="-10" y="370" />
              <mxPoint x="31" y="370" />
            </Array>
          </mxGeometry>
        </mxCell>
        <mxCell id="dehNb-m1zuO__gplLb6W-1" value="config-server" style="shape=module;align=left;spacingLeft=20;align=center;verticalAlign=top;whiteSpace=wrap;html=1;" parent="1" vertex="1">
          <mxGeometry x="-80" y="110" width="140" height="50" as="geometry" />
        </mxCell>
        <mxCell id="dehNb-m1zuO__gplLb6W-4" value="" style="image;html=1;image=img/lib/clip_art/general/Full_Folder_128x128.png" parent="1" vertex="1">
          <mxGeometry x="-310" y="140" width="50" height="40" as="geometry" />
        </mxCell>
        <mxCell id="LaewK-1yMpPG1QU0pVmy-1" value="" style="shape=image;verticalLabelPosition=bottom;labelBackgroundColor=default;verticalAlign=top;aspect=fixed;imageAspect=0;image=data:image/png,iVBORw0KGgoAAAANSUhEUgAAAPsAAAEACAYAAAB1UADIAAAABGdBTUEAALGPC/xhBQAAACBjSFJNAAB6JgAAgIQAAPoAAACA6AAAdTAAAOpgAAA6mAAAF3CculE8AAAAB3RJTUUH5QQXCCwDHDiC2wAAAAZiS0dEAAAAAAAA+UO7fwAAOmlJREFUeNrtnQd8U+X6x2UjKDgABw6Q1SQObLPKDG1SaKFJUUBGiqj3qle9evXvvbZw3Sju1VYKomW0TVtGQZZecQCKA8pGKKsgUCjQXbrH//cmpxjSk+SckLYn8fl9Pr9P2+Sck9OT93ve513PueIK0l9KM1aaBszIjOpAV4JE8nfYVxlfhmV0JUgkf4f9S2OKOTNiFl0JEsmfQc+M6jpjlemnB5aFrTYkqQbRFSGR/LZWjwye8aUpZ9JSw+awhZoP6YqQSH7bXjfNAexlgP1nwP47avdAuiokkj9BvjaKdczpAPpOuH7KsjFbAXs5/FFYkroNXSESyT/a6W1mrI7qA8hXwA3M5pVjfwfoDfBhwD5elzSYgCeRfB70laYbEL6/AcgL7WA/wsFeY1ioXqBPUvagq0Ui+S7obAJNL4A+G4AXNILOPH1lZAUHO/NBAG9E7d6WrhqJ5Iuwr4zqBtDfsq/RL8K+KrLBDvbasIXqJfBtdNVIJN+r1TtzoBc7gm6D3Vg/epG20g74QtTujyCc70xXj0TyLdDf5KvRG/3gKmNdRPKwHDvYmXcYFqrupM46EknqkLPhtbVRvQH6YgBd6gx0DvbasSnDsx1gr0Movwq+iq4miSRd0NvOWB01ACCnwTWuQHcBu9WGJM0CQ5KqK11VEkmSoJsCADGr0avdge4OdrjCkKT+D4C/jq4uiSQd0NmEmYEAeJFQ0AXAzpyPcD4WwPekq0wiSQH2NVG3Ad5UMaALhJ35pGGh+kkK6Umk1q/Vb5qxymQRC7oI2OsA+37YDOC70BUnkVoPdFajV4oF3Qr7l8aa8WmjdriBvRH4w/AkAN+JrjyJ1IKanDnm+ikrw98DsEWegM655r60kG0CYGeuB+yn4SgA356+ARKpBfTAitFdJq0IexU/S6aujNgpZJjNC7DbhuQWqsvgSJpDTyI1syZlhnUC5JPhw3ADavg81O7lLQU7B/xe/UJVMIBvR98IidQ8oXtb1OgqQP4DA73R0asiD7Uk7Fwb/hf9QvUw+lZIpOao1VeE9YKXAPAae9inrgzf28KwM1fBawwLNffQN0MiebOdvnx0R5i108vsQedC+RIPO+ouB3bmC/CisCR1f/qGSCQvaeJygxFgFziCzrk2etW43a0AO3Mp/CaAv56+JRLpMhSVqbtiYqZBhvD9gBPQmeumrYzIYUkkWwF21mFXAD9uSFJdqUsaTF8aieRRjb7C0Bugr2G1twvYWShfhVD+TGvAzgF/wrBQFa5fqKQhORLJg9D9GrTT32Lj6a5At8K+YnR59Mpxh1oLds67EM4r6JsjkcSAnmm4EjX6gwA5xx3oje32qZkRLCuNmDH3mgkZ+iwvws68HOH8NfQNkkjC2untAHoIAP6VtccFwt4wJXNM4YOrjH+IgL0WkcNeL8POMtb+G233jvRNkkhuNGm5oe8DK8LSAHC1UNBtofyYUoTyeWJgn7x8dLaXYa+3paXWjKNvkkRyVasv1V05fumov01Yrj8tBvSLvfK2UL6kFWG3PnSCTbhB+70ffaMkEo8i03VXmDJ0/eGs8UtDz0xaMfqMWOCnZIbnIpQ/1cqwM5cbFqo/GJ2kpfY7ieQoY7quA/y6KWNUQ1TGqLyJywyiYZ+8YvQFhPIsT3xdK8POfBrh/AxDkqoDfbskkj3sGboBpnRdPoMdrrl/mb5YbLudGaF87oNfGoslADus/haw30V56EmkxrZ6Jmr1DN1cDnSrEcofm7Q8LF98KD/mFEL5ImnArqlGOP8KgO9G3zKJZKvVRwDwc/awI5Q/P3G5ocyDjrpKhPL5ApJatATszMcBe4g+iWbXkahW72TK0KWw0N0edrgWofwpBq8HofxBwHxBIrAzfwPTM+RIf/mOuSkA+6QD6LZQPiPkAEL5UtGh/IoxpxHKV0oI9uqwJPVj9G2T/rIypel6Auo1cD0f7KjxyyYuD6vyIJSvRyh/3E2vfEvCzhbLHBqdpKFHQpP+guH7UutQ22OAOpcfdJsRyu91zE4jxFMzI3a7abe3KOzW7DZJ6g/HJGkpOy3pL1arZ+juBMzfuALd1lEXcnLSCvG1++QV1rnypRKCnfkwrKFvn/RXqtU7A/Z/AuZCd7AzT1xuOO5BKN+AUH6fxGCvNCzUfK5PUnanUkD6a9Tq6bq7AfFPQkC3hfKh2z2BfWpm+EGJwc58CO13E5UCkt8rMkPX1ZihewEQVwmFHaF8EUL5Cg9C+XKE8mclBnt12EL1YkOS6hYqDSS/1ri04b0j00d+KxT0xjH3ScvD9nlQu7NklDudwF43dXnEqVaAnfkY1e4kv1ZEypC2EalDHxhrGXbOmD4yRwzs9y0LZbDXi132ilD+jLMhuGmZEfWtBDt7dlycnp79TvJXhVuGdoa/jbAMKx6XNuI4IK4THMovDalBKF/oQShf4SyDDWBvaCXYbdNoF2oMNI2W5J81u2XowIjUYeWAvWFs2vBCY7quQHi7fdSFicsN+z0I5cvNK8fmSBB2NtHmU/g6Khkkf4T9ZQY65zy03c+ICOWrEcqf8WCCTd2UzHCWvaZYarDDuYBdY0hS0RJYkv9ojEXbHYDvsIO9EqE8G2evFgr8+KUhpQjlxSe1yByTP31VZI4EYW8IS1K/DVOCC5IftddTh4YB8BI72Fkof8KYISqUL0Aon+NhKF8oSdgXas6EJgX1oBJC8p8QPnVoIgCvtocdPmNMH1ksslf+ggcZbOqnrow4++CXxnMShL1Bn6R5kEoIyT9ATxnSH2DvdQCduR6h/DkxE2wQyp9GKJ/rQSh/GqH8aSnCDmfpk5S0QIbkFyH80wD7PA/szNkI5UtFhPL5E5Ybznow5l6NUL7UfiWchGAvMSSpDFRSSD4OenD3iNRhywB1nRPYC4zpVtjrRcyVZ+Pt5aLnyq+MOIZQvkCCsNeEJWmWjEnSdqISQ/LdEN4yRO8khL9ohPJHWHtcRCjvUTJKhPJ5COVLJQg7c7YhSXM3lRiST0qXObh9hGXoiwC6zBXs8AGeHHSuXIpQvkTMs+Aa58qbV41j7fYqCcKeb1io/heVGpJvhvBpwbcD9mVuQGcuj/wzZ7zAUF5/zLNQPnw/QvkyCcJeC6cjlL+KSg7J5zQGIXy4Zeg+AbA3jE0bsV0M7AjlD05aEeZJqumiB1cZayQIO/POsCT1cCo5JJ/SKIu2qz5F+/Lo1OA8x8k0vE4dliNmYQzr0Ju43FDkQa98A0L5vWw9uwRhL4NnGZJUtDiG5DsypGj7wsvDUrQnwlOHFgio3esi00f+ITKU3+lJMsopmeH7JQh7tRX2JPUiwxfK3lSCSD4jfYpmCHwUwFePSR1SBJhr3ME+Nm34PjGwR2WMOoFQvtKDUL6CDcFNyxxbN3qhtqoVoC6AzwLsc4YkdYHhC3W9/nNVsX6B6oj+M+WG0PlBIVSCSD5Sq6vaG1I0kxnocMPolOBswFzqBvb6CMvwIlO6rkQM8Ajlj3mSnw6h/HbzynGV4YuH5DZf6mhNPnwSQB8H0HmGz9VlALoCPgnnAOxj+vnKU6HzlPVwA+eKkHlBz+rmD6Yxd5IP1OrJmm6A/S0GOue8cMvQSmG98iMOigvlPUtGOSVzzB+AvTAieViOF8AuNCRpjgHqbMMXqiOGz1XnAXO1/jNVIXwmdL4yFz4PkMvtoHblxQCectSRfKK9fgu82Q72WoTyOYC51g3slWPTRpwSF8qHFHuSjJI9Q25qZsROsbAD6KPwHkC9F0CfAMzlcGXofFUxgC6AC0VA7cy/w2oqSSRfgF0GV9rBzkL5XTyr3pqE8mMtw0sQyp8XmYxyryePiMJ+heFLhuQ4yRHH2tKAWv0r2tO7APQfALkGBthWmJmr4LrLBJvPNajZzbq5g2mdO0nCIfwSbTt9svYRe9CZ9SmaUoTyVQJC+YJx6SOOilz2ut+TITj20MhxKcN2oqbORXt6O6D+Be3oPQCtmIOunoO53qFd3ezGOXwRMi+Q1rmTJN1e72BI1n7sCDszQvkdAmCv4jLY1IhMRlngCewRi4bubUmIRfhIyDxlPypRJOmG8MnaTgD7az7Yw1K02YJm01mGnzOm6842dzJKicPeEJqoHKGfq6T8dCTJttevhE/ywQ5XIJTPEwD8+cj0kWdFJqM8K3aCjeRhn6ecCeApqQVJqrCr+zsBvbFXfqcA2KsRyrOFMZUi5sqXiE1GKXXYEcavg2m8nSTZmv1+F7DXI5TPExbKDztmFLESjiWjnCBygo0P1OzFoxZQJx1JsrBrXncBO/OF8NShRwUAn49QvkxEKF+HUL5cTDJKH4C9QZ+opFVwJMnW7GvdwF6OUF5QRx1C+ZOAuEJEKJ+LUP6UP8GOMP5lKlUkqcK+1w3sdWGpwWyevJDps4eMGboykckozwkdc/cF2EMTg1ZQqSJJEHRVN8B8zg3sbAiuAKF8jgDYS43pI4tEJqNk4+0X/KZmTww6QCWLJDnpkzV3AuYCd7DDZQjl84SF8sP3i5lgg1A+R2gySp+o2ecpz+vnKm+i0kWSFuwp2vsAcokA2FkozxJaFLmDPdwy7KiYzLNcMspSIckofQT2EoTyEVS6SFLriX+G9bYLgJ2F8qcRyp8SMn0WoXyuyAw2OUKSUfoI7GUh85QPU+kiSa1zLg6uEgI765UfnRpcKCCDTcPYtGFbPUhGecFPYK8C7B9T6SJJrWZPA8Q1AmFvAOw5Lh4LZe88kXnlGxDKF7rrlfcR2KsB+xdUukhSq9l/Ewr6xQw2qUMLbSmp3CSjTBt5SGQGG7fJKH0EdubfqHSRJCOdRdsZ8G4TCTtb9nqWtcvdwF471tYrLyYZ5Ul3ySh9CPYs3fzB9PAIkjQUmqztI2BCDV8ony3g8VCeJqPM8RPY94UkBg6gUkaShPRLtArAu18s7HBxuGVomYBQ3uvJKH0I9v36uUoFlTKSNGBP1oQC3BwPYG8YY7HOlXfXK181Nm1ErshQvhShfLkfwH44ZG7gUCplJGnAnqKd4CJphbsx970CYPc0GeUeP4D9ZMg85f1UykhSgZ09FOKUJ7AzI5QvaKZklAecDcH5GOwTqZSRJCFDsvZfgDbfU9jHpA7JaqZklNUI5fMJdhLJW7CnaF8ROC/eWSj/h6DZdOKTUZZNXG444OOw5wL2KVTKSH4BO1scg1D+mMBklOdEJqM8xzfBxodgzwfs/6JSRvIX2Fkyyl0CYK/hklFWiExGedqHYS8B7K9QKSP5C+z1YSnBpUIeAOmtZJQEO4nkGewvXybsrN1eDtiF5KcrQCh/wYNklFUEO4l0mdKnaCd6Os5u/xCJ0anBRwXMpmPJKE9cbjJKH4K9CLDPpFJG8ifYG8JSg9lTY4oEJqO8IDKUP28/5k5DbyRSa8LOklFaBOWVL/MgGWW+fTJKwF42bsnwAwQ7iSQO9gjAevxyYbeF8kPy2bJWAckof7/MZJTlppSROQQ7iSQG9mRtIEDN9gLsbNlrvpAMNuGWYTkik1GWOSSjJNhJJNGwe77ElS+UPxOeOjRXyAMgjWkjT4lMRnnELhklwU4iiZUhReVR8gpns+kQyl8QmIxym6hlr0tDDtklo/QV2A+FzgvSUikjSQh40TnovJGMks2TrxaZjLKA65X3FdgpeQVJcrBvZjPhvAT8WYTyRQKTUR70MBmlr8C+V5+ovINKGElKPfIWMamkBSx7zROYjPKAyAw2p7hklL4C+zZd0uCOVMJIUqrZZ8OV3oI9THgyymJTuq5YZDLKoz4EO6WSJkmuZn9C6OOfBLpUYDLKC2KTUd63TL+bTbAxpow8JHHQa0PmKdOpdJGkBXuydgQALfIi7CwZ5X6ByShPiwvlQ0onLNNnRSwZmi31xz+FJgZ9QKWLJCmNStX2BqDnvQl7WIp2n8AMNiXGdJ2YpBbMJeFLhh2VOOwXULM/RqWLJMFQXvO7N2HnklGeF5iMMkck7OWAXept9qLQeUGURpokyU66xd6GXWQySuFj7umjLoQvHnpY6impdPMH96aSRZJizf4Pb8OOUP4EmxorIJQ/KyYZJbYtHZ0ULPUlrtlUqkiSVGiKOtDbsHPJKHMEJqM871+wB2VQqSJJE/Ylqm6GZM0pL8PeLMkofQH2kHnK2VSqSBJts2s6wcu9DDtLRlmG2r1CAPA5QpNRShj2/JDEoMMhiYEHR80LHEWliiTNmj1V3Q7t9meaod1+QWAyykKE8mUShL0ermOTZDjXWWvuxKAjoz4N2jbq08BfR8UH7dXFB52H6+BaOF/3aeDVVKpIkpQuaXAbfbI6yMsz6RqTUeYITEb5h5BQvhlhr4HLQxOVZTD7WRMyN6hk1NzAfbqEoF/gXQD5OFwJN7iwBaY58SRJ98jfBDjXeb12tyWjLBRQux8WkozSC7AD6qBSwFwQkshCb2VxyFxlHcAuQE2dPSohcA/APqiLDywCtPVuwG7qhMAn4XZUokgShl3bFXDOaoZQvkBgrzxLRlnoLhmlSNhRSwflIew+BaDPwMWj5gZVAuo8QH0UQB8GoKdEA+3c5QBdq5s7uA2VKJJ0Q3mLti2Aj/T2PHm2om506pACIckox9qSUdZ6BHti0DlAfQw19NGQT4NOoU1dDpcC6jOoqU8AxNNwkRfB5nHgb/BtVJpI0q/dkzVywPmdt2t3tNvZ1NlzApJRHhMMe6KyEGCzjrILcMOohKBSQJ3PdZYxqKubF2xef6KLC7qWShJJ8gpJ1XZD7f5mM4TypwUmo6wxpo086Q72sKTgHwE3wvCgC1wPeIMEzDru7gPs1F4n+UQo3wawRwPQQm/PpuOSUVZfbjJKBrvhC+1ObqirQUJmvfVBVIpIvhTKD2qOXnmRySjLncKepivTz9cckBjozPN1CYE3Ugki+U7tnjS4A/coZ2+PuQtNRlkbmT5ihzPYIy0jy0MT1TkSA70S4fuTug8HUwhP8i0ZkrU6wLm7GZa9ngHM7p7lXjc2bXiOj8G+RxcfGEolh+R7ofwSbXe03dO8mXVWRDJKeHiZs2WvEoSddRB+Dth7Uskh+Wrb/WEAmufl2r1MYDLKsnHpI/b7COxn4McQwrelUkPySYUsVt7QLKG8ZcjvAvLT1Yy1ZbDhg70iZK7qhIRg36hLuHcAlRiSL3fUtUHb/UW2mMWrvfIp2lOCZtNZhhUa00f+4Qj7uNQRDRIadivTxQW+rUugWp3k68BbtD0A6GGvJ6NMHZovZNkrQvkTTmCXig/oEgKVVFJIfiHU7s97fczdMmSfANhrEcqXOC57lRDsNfBiKiEk/2m7p2pv8nbtHpYazGr2CwKAP41QPleisJ9DCD+CSgjJn2r2DvDr3s5PF5465IAA2Isi00cWSRT2dboPB3egEkLyG+mXaFlHnRKAHvNqMsqUIULSVbEJNmfYfHgO9rqxySNOSgL2hMBwKh0k/6vdU9RXGVI0L3t3JVwwwnjr9Fl3wB+1S0ZZG5E8PFsCsH8H2CnPHMkfYVexcP4eQPojyxrrrQk2Y1KtY+5ua/dx6SNKuXXuUoC9BqCP0X16Lw23kfxTuqTB7fXJ6oe8+BDIKm6uvJAx9/2mDF2ZRGBfDd9EJYLk3+33ZE0fg23OfK2XQvlShPJ5Amr3XITyDPaa8CXD9rUi6Pmo1cfr5g5uT6WB5P/Ap2jvB6hHvJTBphC1+x8CYG/gJthUjV44ZFsrwp4KU4450l8E9iXa7gD1M5ZI0gvAVwP2QgHLXlkov8uUrqscnaRtLdiP6OIDJ1CtTvprAZ+qVelTNHu80VmHUD4vPHXoGQG1e8nYtOGHDZ9rtrXSMtYFuk8Ce9C3T/prddZZtO3Rfn8SsJZ7IZTPB+xC0lU1RKQOuxAyT7W/VZJTJASG6j6kfPCkv2ZnXTvAmuGF2r1+jC2vfLkA2GtDElUt3RtfpIsLnAnYaaiN9NfVqFRtH4Tz2V6o3XMErYQD7KPmqo62IOhsKe03aKdTLnjSX1sAldXu5ssdewfsxYC9mE2gcQW7MXVkGWrYihaE/SRqdcotRyJZw/kU9XWo3T++3Hx1o1ODjwNol89yn5467uCYhODiFgK9CqC/St8widTYWWd93LPmLgD7v8vslT/qrt3+lOWBrEmJ+sMtBPsaXcK9NFOORLqkdl+i7aBP1o4FtLsu5wGQ4RZru91pMsoX0/62Zcq8sJbooMvRxQeOgKlTjkRqAnyyphPC+WcuJyPt6JTgXa6SUb6a9vhPLQA7e+DDY7pP7u1E3yqJ5ESjFgV2MSRr3ga4JR6G8n+4eh7c3LTY3f/4/P4dzftwxsDXdAmDu+s+HExfKInkSoYU1U2o4Vd4ulgGofwxZ7DPS5u194Wk6dua8Smsi3UJgX3oWySRBAOvDYR/8zCU3+kM9i/SXsl9ddHju5ppOuxmOJi+PRJJbBs+RWsAvAc9COXPO3tE1JKM12vfT372sNcnzsQF7oJN9K2RSJ7U7snadvAUAHzUG8koJ1nCziRnzK6NS/lPiXdhDzwB0MeijU6r2UgkTxWarO6qT9Y8BYDPiUxGedAR9hmWyOzUjDdq51v+Wz3206HnvQR7uS7+3ofoUcsk0mVKlzT4itDFyu6GZM2/AXG+iFC+PMIytNAe9n+lTdtuyXizJintlQuT540+7B3QA/+hS7i3C31TJJKXgDekqHroUzQfiBiSa5KMclbaI9ssGXNqktNnl/7z80mXm5rqAvxfXVxQN10CDbGRSN5tw9uA/wggF4lIRnlxgs3raU/sTAPslvQ5FS8u/PuxywC9AJ6jSwjsRd8KidR8wPcE8B+ymltIMspwu2SUH6c/fyI946065neWPFOmT1BXeJQwMj7obYB+M30bJFLL1PAM+CqhySiNlpHliekzKwB6A3Ni6szCCYmhJ0QnoYgPegug96ZvgURqOeBv4EL6KiHJKCdbRp/8PP2lykbYF6W/lvfIgqgDImfHvQnQaRUbidTCsLcxpKhvcVfDI5Q/w5JRPpn2wP4lGa+XcbBXL13xfu7s1KfOGxI05QJhZzU6JYskkVoL+NBUDavhX3I2LMclo8x/Je2xI5aMOeUM9oyl75StWZ1wIH3V+6dnfG487X54Leg9gH4dXXESqRWls2iv0C28t5MhWfM04D4O1/HMlT/6QdpzJ7nOuYZly96tWLtmbvm6tYlV/01+tECfoKlykjsuVxcfOEOXMLgzYKeLTSJJAvqkwQBeOwlw73YEfnzKqNz49BeKuRC+duXKj3cD9AZmy6p3j5oXjM0dFa+sc2if/wLQ79fNHUxr0kkkSYb2ydrxAHyjPeyPWybkLMp4Ld8awme8Xbt29adHGmH/ev1nuQmZLx6ZMF9fMCo+qJ6bLJMBD6O57iSS5NvyWiW8kvXGh6UE186yPFKYljGn0hbCv3eKhe8M9PXr5hV/9+3i0xt/sJR9tnr2melJpv2ozd+EB9JVJJF8QPolWpbAUq5P0SwwpehOvJv2r4LGIbdVq+K2N9bq//v687Mbf0g9t2mjpeHnLctPpH8b/zLLMENXkETyqdpd1VafrL71/1KnP/9F+itHbb3wb5evXTO3lIO9asM3SYUAvQYu3vrb6q07stb1pStHIvmgWIrqJRlvqNIy3tpsDeGXv78XkNdaQ/j18/O//25JDqvVf9ycfmzrb18+vmP7+g501UgkH5XFMucqgJ7IeuERwmdzsNd//dWCEoB+nsG+aWPaDvgOulokko8rLf2tJ5cufTd7zZpPq7kQvhIhfK4NdEsd/NHmTRaaNEMi+boylr478stV8V8xyG298PMvfP998iFbCJ+Rv+XHZVN+2bSMQngSyde1enViT0D+DVerI4T/rAigszC+9pefM89nbVsXRleJRPIDff99UjtAngHXsTb7hg0L97NaffOm9PNbf/3y+PasdeF0lUgkP9G6tXPfA+gX1q+bV/fD96l/MNi3/LQ0L2vb2t8A+wi6QiSS38Ce+Ch87qv1nx3nOuUqEMIXAvRseChdIRLJT7R27dyRgD3nu2+XZHFj6/lbt64+uj1r/fdZWevupCtEIvmJ1q+e2+fr9Qt+RgjPxtbrf/pxaXHWtnWo2devz8paH0BXiETyI238IXUDA33TxjQWwp8A6A1wOmDvQ1eHRPIjAfRNDPbNm9LLt21dc8QK+/avPtm583/X09UhkfwK9tQUtvDlp80ZBQC9fOeO/+Xv3fP9qwcObKbcciSSn8G+ALBX/vrLqj2sVt+ze0PRweyfZh869DPBTiL5WRg/e/OmtIrtWWtP79j+Vdm+vT+cPXTw508IdhLJz7Rxo+XxLT8t28dqdRbCZx/4KQewxxHsJJKfafPmpY9mbVubDdhr9+zaUHjo4JYygp1E8kNt3bru7wC9goXw+/dtygboDYcP/fJJTs5v1BtPIvmTsrLWP85g37nj68qD2VtOA/SyY8ey5uTl/U6wk0h+CPuFPbu+PY5avfbokW2nT+fujzuXd4hyz5FI/gf7V6UHft+8k8H+x7GdBWfPHFoO2Gm6LInkT9q+fX2fXTs3fAvQy48c/jU/99Tvx87lHV5PsJNIfqijR7ddd+jgln/mHN2++uyZw7sA+6azeYfpQW4kkr+qsDCnU/7ZI0MA+z8Bez+6IiQSiUQikUgkEolEIpFIJBJJkBJmTr0iIXZau4QYc0ced4h/YXq7T2OjL3F87LT2TrZvsj+3Txsvnm+bBIfPZ+dzyfnFmNn7HYScn+3/M7edGzO5DZUGkn/DHjutU0KsORoFP4HHH8fHRD+REBs9w97xseb/4L14J/vY+zVuHx2OExAfG30z4LrqMs/3Fpzvv+w/B+cTc8n5xUTHAPiPBZzfR7b/zzwJv6vx++1xMebuMIFP8kPYY6LvQiHPB4gNzexC+Gt81kvwMAB284evzGgr8lw7Yd9HcZzSZji/Mhw7Cz/fwc3DgAjiaiodJD+r2c0TUMC3wYfgYhFwnINPOrhSwH51gOoYfi6Ii42OinvBfL1w2M3XoOZ+Dvv+Ch+GC6zH8z74pwH8S/g8mg1J8qs2+40IW4ejcEeikP8Nfh/eBdc4AYHVqh9gn+mAdZK98fqT8P/BifD38AkXQNVagY2JZmG4CufR3t25ol3dDmF8b3x2MD7PiP0ewjE+tMHp9HPe5c7J3m/Cy+ADLvZjN640fBbNiCT5p+Ji0WaNNY9Em/cgPwTm/8XNjL4VIbjzY8SYe8FoHpgjsP0c/NzPwc0HVRXA3YzPHAOLbivjc66LY5/Bc2y8dxI3kWt4bnBX4f07cKMZifN7Bb8fcXJu5fA89v9QySD5pVhbGgBm8IXIKPjJsKBsPKiJ28bHTMPNI/pu7PM29i9xGtrHRh9Hm3yMJ+eLfeW8sMdGb4Xbuji/Ngkx064G8JOxfbaTczuKm9X9VCpI/lvDx5if4QvlxcBud/Nog306w6MAzgkX7exjCTOnKcQOg2G/W5zA/qsr2P/c39wetbyZfb6TG9GniAauo1JB8lfYn/QW7Pb6eNb0W7H/dyx85wGrHnD+khAzdVBLws7V8qjhoxc5aW6w872HSgWJYBdZy38yM1qBGn6Dkxr+AhsjRzv86paE3dZfEf00N8rgeKyDqPn1VCpIBLtIoRZF2Gzt/XfSCRi9H3BFtDjsMeaJrO+Ar3mB44yhUkEi2D0QjnUt/LqTsf1qwD43ISa6ZwvDbsJ+OTzH2o7jDKVSQSLYPf2M2OhAHHOz09o91qyXCOyZaFb0p1IhMUWpFJ2ilPLbowb36URXQ+Kwx5g7wnOs7fSmgOGzzc8i5O/UUrAjmngc++U1HWs3zwLsHXl3Gh8c0DZKK+8UpZF3jdIoukepFQb8TMDf/7ikYGqxnUZ2dZQ6QIn35sBfYbv9UVrFRuz/BfbD6yi8g/s0GYrAvrCsPXwjjhGFfb7A/pvw8yy8Fr/HjdfIg/GzMwDwysT+KGVAG5Na1smkGtTTqJaPM6oUs00axRqTRn4APwvhk/CPcJxJrQjH69cZNbKOfOfv8nPwv5k0snZGtaKTSS3vit9vx3Gm4bjpRo18od12bfAZnXAN+uJ8nsG2m7BNEVzC/fwV2z8L944KGtDW4/97cJ8rTOqAdiatvAu+k0E43gz8Hm/SKtbj83+CN+L3Vfj5jkkrC8F7PYwaxZW47u14/rd2+H+6mYL6CxrKMWoV7XHsrvgf8bmyZ3HsRfj7J/gMXAj/gs9dhveewTYD8XcXVq58AXYOVL2LmWwW+LaWgB3bs+E3NnuwwmHYbS3+334OX6KsG8C8DaDJAGoEPBugATrFebzWANfB87jCA8gVPbFNGLyBe5/PpdhuTpRqUF97YKLu7dsOr9+BfR/FNjtd7F+Ec4iPUssHskLmcWFnNxaNrAtgUsIM8INwg3vLTwKMF02qAAVuFJ3cANXWqJJfj/364UZxN/a9H7C/jd+/x2uljcfEaxusEOAmgm3k8Kt4PdfNufxuUslC8Bmir0GkWtbGqA64AYBGAqSlcBncAFfDFdzvDpafBexL8LlR+PsueIDVGoUC7+GmJd9m1Mofc/O5HXDtbsF+U+E1cDn/Z11idm7p+Iww3JSvEXuTbQ3YUXNfg+Oynvl6ntl6W+G7mhv2hJlT22H7MfBuh+m8Wfhfw3mAkL8OuL6BTzoBrwSAvgRwUDvIRuD3BXit3AWojS4HsItR+/exfo5adj3gHY/XvxWwL3MV9k+GB6Gm8eiOH6lS3ArIn0VhPcDBUw0fhbfAX3O1+W44nwe0GhTu37D/JBynm9MaTB1wO0B+B9tvA+AlzsDFNt+alIO64ZiT8Pcm7lzc33jUivMAfqTY/x3gKAHdfEBUBNfBx+Gv8PrnAPpj2++KbLjKCYDF8B7OZ7ljXADs05xGEaqAq3HssfiM1XaQF8BZMIsivoe3wafgGp7PxM1P/gqA78sXXUgJdhus5gVOxt3P4b1hzQW7dbLPzOhu+IwQbLfS7v9l02TX4/+McFL7KVbCp1xAVwYn4abwNH7u5mp6Vuv/zHkbfJp73XHfAmsNr5GHw+/aRQuV8DH4AHyU+9sJ8Iq3cZPoKvaLAFwaOAnAVHDgnEJBWgAAJqBQyqI0AT1MStlAgDwS7z0Pf2dfE9v5EI4zAzUW73pmHE/D3Tiq3ICbhRvHC/h5zO61cq52P+div3oAvxnneZsI0IMBzo8cQHXsswHhg5FaxbUcmG2MqoHXAlwjtl0lsPZlPorrwNvhg+YGu5G9gG32cdsymDchnP8PPleDyuIOfI+3obmAm5DiIbw3n4O+3uEzCtn3hOZHb3YDkTLsAO0FF1Np9Z7Cbh1GizFPRHs7PCHGrG00wvVQNgUWkD+Ibdg03h12/+tBvP4+/sc+LkJd2R0AcQrAiodZu7vWATgG8TnOu+D3AeB0wK/hPAz7T8PradYooCmwuRzUFVb4tfJU+J/4PQr7jcFPI36yG8kqJ8DjRiQfJBL0oSjg39hqZyswZwDlrEiN7AYn4X5HvH8PCuEXToDfDeDGobbpyNOx1hWfNwLb/AdGO1hR6QRaVusXwGX4nB9QoOfAj2PfifBU3Ahew3u/Oanx0Y6X/1vQ/66RawHMBri2EVC8NpX9j7xNELXsHg74agfo2P4ldiH/HhznISe1eiec38tcLW4D3dYnMgSf28HJNUfTR2bmIg7Hm8oF7PsR3u8gadhjzNE49nknC28mu1sR5wL2Bm7lHesT+MXOLFz/A87niQb2sck1LmG/2OGmlfUExOGA6xfeNrhWsRDQDcd217IOJsdCg/f6WsNuVhvzQ4s2vtyENvRt2L69w/7t8d4A22fw7AtQRbRVb0VBs9jVtJWAaTFA7yHgJtGHiwYca+laeB18u4tr2Bn73gNon2Q3F94aWiP/He8/hu3uNKoGdWPX7WIIrBzY1cRuUmpFCg/wrHb+KkoZcJOb7/EqgPKFXWiO2lWejmvSzWWfg7WGVxx0AK6chfz4GQ5HooZWm4L68/ZfsJsWtjlvt+8+nG8kboTt3fR3tDeqEWlp5QU8wJfivCZLHPbhOHauE9j/xebVXwbsYs3+51PwD4gA3oiPnSZzN/wD6BSvO9TQtbgJZESpAm5x11sapRqEKEFxmAfYnwCsFkC3c15QFcwDbTeFJrBvEdj73AEw/Zvr0W4E5XSkWi54FpFJGdAXhXcfD6wVOHY0gOvgqvfbqJL3Asyf8+yPkF0WjP07u7j+7aJU8ruw7Xqe/XfhhjXUTQ94pAO0+aiN/+n2BqlVdMG2ax1gY230dwV0grJOvB0O4fhihOuCJpZEqQfhs+Uv8TYbNGgiDu7TRcKw3+N87bv5CdTsnTyFHbX0Nm7125+OMe+zTtxxDX29NXuNNVGGeSLa9x1cfHmKGLjwkp5xrSJWSPuJtQWtYX5T2DMB+u1u9w/s1w5g38/T/q+MCrzjGvc1s1yJArLZAZJ9qNkEd/aw/wHtYzNXm17ayaaRb4S7uxnmQw0tj+XpoNvqGBE5GybEts9xQ4L2x8jFZz/i6rwBzX+tIfCfwJxG7ThJYPg/k+vMswduCW5APVzcnNriMxOxXaXdPmdx03lCyP/aOGKC7ftxTQ9H4Etwg5vim7BHh7GkmB520DG4r4K7XOIYcxe8f3X8zGlD8PeT8G8c2HVOoC9iY/4JsVOv4l3HzwM7+/0FwbCoZToe2FcAdkEdTIgMVNj+iMP+NSgUGjdRSTvUyA87tLnrAM580T3ZGnknJ7U7A76/ANhjeGDfILzPQT4K++xxOEYBjvGs88/t3xXgzXfsUDNpA4KEjYvLJ3Nj4Pb7p+O63+z0OqkVbHx8i8M+u3EsUaMHrF2Pc3+Yp9+gBjeCxT4Ku8cddEKH3ubGTL4yPsZ8nzV0v3Sc/ZJUVXEzoyfHzYru6H3YtQE9Lwt2rSIA/l4s7ACsh3VSjENb2yiwY8sBtvY43kv8Q2jyJ5oddpVMxnX22R+jEjegN1xcdza2neE4lIWacfxlwL4gytWwo0Y+HducdNhnI85F9HPjjBrFMOy7n6d2347jdZMo7COctNlZD/3I5ob94ni7LQNumotcejsSYqf1bQbY0e5sCvt6+A5h+8vvwLZfioUdBY8B8oPjWDngnCF6Mo5K0Qa11kgn4+ULmxt2HKMf9tnI8/mfiIQ9HzXjUx7CzkLz11wP8Sle55mg8xXraRc/L0DWF7V7Bg/sh40aWbBEx9kf57LPOsL1M2C9s6Vg54AfxOXP42/Lx5gfbynYcXdWyJsVdrUiCLWDY+hdbVTJQzz5InG8frax+SbQfue6VpZ3w43ijVaAvYetY+wSUFhYvIh1XAposz/Fbg52+55kY/OuRh+4sXJHOJd5cr1xvCu5m4fj8U7gRjReirADyNe4NrMjXIvwWb1bEnYr8LHTxvLP6LN2GH7XUrCz8fu7mhN2hLhsbP00D+zhHsGukd9qtI17O06l3e2mCdCDG75radjb4/337MbXG70lElGP+34KRaLDbLrNJo2sv4vPu9E2xdU7sHORwvM8xzsJ2CdKDfYPX5nRia0qc5IhJvaTWdFXtjTsaMOzFFrHnWXXbQbY5WzMPa8VYB8Bn+cJ4x/3rGaX9wLwGTzQbnazH1tsk9LSsHNDbw9xs9LsYSlAeByD2r2ji6E3Ng/+Z4chu2ddrUvAe7diu+U8cH6NZlAvz26wike4RTKShz0u1sySRWbxQJULUMezKa0tDTv3/6c6C+Wbo2Zvy02hbVHYAZMKPtikg06teMdD2FFDy5eIhbY1YY/Syq4HHF9yY+T2wPwBT0e7uIv9kJh19Z1yYHfcDN6xWyhTAegWmgL7dXMTdvfmFtg4wr4Z7w306JprFZN5blYHcLw7pQQ7Axlh8d94OufqrTnbY823CzlOM8H+bgvC3jo1O2AKNDYdrqo3qeVfNc5UE6NIjew61G6f8UD7qVRh5zraDABkF8+c82JA/RE8BL8H4Ccb21YhGnrPrjYtxjVcJGQiC4sUsH0Cz+dk4xzGeQj7FOtimEuPty9KM6i/lGBHiH49jpnOA9RZ3AQeFd7B1yywP9KCYXzrtNkB5h3wSh5AcozKgNtFFzy1/EYAuqYJtCqFWcqwc9BMAiR7nSxjLeAWq2zmanxuaqxiO67fa6ag/tcIPU+cz4t2EcHFZgOO85wnN1jceB7l5uPbz+L7RkxCj+aGneWh43K+HWqSkio2enlCTHTfVob9QyfHXOs3sEeqAtiqq9k8gOQDtL97UPD6Yt8jjhNbTGqFQuqwcze/cVzv/HEnK9jYqrRj1qWuGpbMw7popaPITswJtok7TW4oaZFq55NxnAx3dsK+rzocqwI3rldEFvbmzUEXM20Aau/lDh1z9dyqM1ERTdzM6f28DTvOIdPJ0Ns//AZ2VpMAxAe51WUO69IVGdi/qzjYFYO4Jaj2wKbCV/kC7Nb2uFZ+A4B5mpv4Um2bwy6fC7PQ/e8I2SMBrBygXelJwTJqZAO47DNNx8a18rEiO+du4hbx2B+nyKSVaUUOh73L10PuDdhxnO7wLJ5kkyyN9EzWGy7yXEP5wYw+AHvSG38N34o4NssvIdbcdOVolEb+ssNCGJ+A3Va7K4J45sYzH4cfENxeVynaAs5HmsxgU8nvQ5OgnSewm9TCFvN4GfY7AUwqFxp/C6BGA55eeO9ab7Rd2TRX1LxvsBVqTae5yudGamQ3iogSgqypquyOY7SuqQjoJBKgRbxzxWOiv4Vv8vR/ZY9dTrA9dvkUD0yzhWaUdYhCJjhpX7Opr+08ON7DvA96jDG/gBq/Cx+snzksRPEl2DtaM5041MjcEtXVeF9QLzHLIQf/6jAnfoFRLbvR3YIgp7CjOdGiYbxW/iQXwnOLVFiNLvP6g/5wTA3XHHBcsXYW38VEZ+vZHW4aHbm58ZV2+5eZ1MJ74d3BjtfPw/0vA/bpTtauv4/3rvHkmC5gb0iYOXWgyGOxKbO/8xwrIyHGfEeTR1OxcVWAtdgBtGJ4ltC8YNaMJE1hz4bvFgh7P2y7hgf24YJqZbUsgEtcUdd0iariE/jWSBdprtgyX4D+uG39+cW15JvxmpLldRPQsdeLJZjkAbVM8DVUBgzgUlc5HiPB3Qo+/H+sp30DT7qpvSa17H4A2Avvd8fN4Cq4S2RwQEdjcEB7oavU+CII1MCzeLPdaORHAKwuSiXv6OKmxCIQBctqY5+TDsd8PlIjby+ywLPki985m0WG9y1xseYeQh6zjG3astowIXaaHDVjhkP6qVq8djo+dtoMvN8FsHt0A8G5POF8qao5Ie4F1+vhbUOA0Z1xDvfE2RbD1Do8ujkV59YfbmP/hbUdjy8foI0AWFt4YF0dpZb1H69x/qWxO/h4reI6NAMe49kf0YF8Avbv4Sx5IiC7Ikqt6IZtI7j0V5dmy9HIE9gyWRyjm7ueXoA5nsstV8fTdl7BMsvAvZq0+TXyG022fYvs2vtZ2Ha0kNoJ2/XE9qHwYd717KoAJba5ji/jDdfJiBuN7Hru/H/nOcZPiDDC8f7NJpXiar7su9y01/MuUkvtB1xrANln8HvwE/ibZYzR4fhq/GTJJe/A6zfhxtJVSK86G6pDEyGDN5+dRs7ScD2IY97GOuEcrhlLthEIr3RYIvvvSK3rvhF7fRob3RGQ94YnuXnmOWp489dsnTfguAfb9wGwN6I9ew2O0Q3ujlrwNrwuwzYskeM7Dser49rEX8XNjA4FbKJDbXzGlfEvmHvhZhGAc9ni4lxLcHOKwbncCeOczNdx59gt/oXp1+M8ce7RSvi/Divv6q1ppWPMiYB8gGPYPQgQTcLPFznQa/hhteaqewrQjQOUN/zZxpd1x2vD8d7fbGvZ5cedZKphoXwctn0QVl1yDmprlhwj/BqX+oo/gSVLNa3FNiw8VMv7u8qEwgHzm5MUUSzpJBtDnwiHwOFoU5tRMBfh9+LGSAAFeB1qaqO7ueXY9k7476zmhfc6zyUnZ/MAPoCfBJQj0Ka9motG2uBzBrJj4PUP8XMH1/TgOw67kSTDL7FjNLlhWGG1JnisF5hXzj70ZrXz7ywyYEtLcT1i4BCjOuBad1FJlHW5qzydZyiucY7+lzj+UzAbJQiB78P2s+xy1rFt9uFzn8X/IChdNQp1V7a6DH6KS9+cLzCrS50VkJjo9YA6Cb+/lRAb/Rr8ZrwtgeMeniQR52zZZM3PAtLeHtTivbB/BPwcPnceYNzufB77JU+YOQSvwu8fcOf4Gv7+CPuv4+k/YAknf8BN4mlEJj34wuaXneSOc+bzDHi7/YO5xJO1AvdnN5N0h05BE0A/LeIcWMbbh5zVkHYh9UguRVWeE3CqueG1M3b56ho4YOcARkGLd7iltZXC0lRf7ANYi/MbxJ1nB/hVMfvbjqH40knP9t/ZAhLRsPMPz+0D8K+bVINudtVfYUtiGXALPnuO7YbRZI5+Y167c/ARuyQb9bYpsYokXIOxLKefwJ7nNqiR1S5yt3vDDB6WHYb15P+DrSzzqL0/c2oH3CSm8TzIwVs+A3+Lz3gJ53iXqzbyE1ybutFZ3JLU1U6tCVDagTqSW39uf4xvePbbyNXuB7DPvEvPQWbA61u5fffC37n8fJvdrhe2LlVVKW5BaD4dTubyxlfxp41WHAeA61Cw/4uoIETMUJ1tnJo3USWfa3EuZ1HLx5lUsltt7Wy2fl7xtEjYzwCOD5w0KboY1dbQ/HsXqaLFuAS18Aew255x3CC74TrqAe9soy19dIXzYyq2YZsFOK4J7fNbxOTHRxjbEQX7aW9Cg9D+RJytVv+Sdbyx2XCAPASh/k3uss64GfvugePFee9czWfjbMknV+D3t1DTT8W1uBvu4KatyYZiFEo732NL/sg6ypxYOaCzHezdWefbJcdgud6b7KeQw0Hc+/0cCufVeP1ebv9AWwILF59vs+A2HcsbZ1LJbwHIKpMtk+tz8POcAZn8PryuRUEdYFQN7CI2hTFuDizJJWvzhgmwHp81DOfTF+fV8eJNCU0jgftbzTLo4nydzgw0BfVnIxM6a5Ry+bBbp9KirKgFD19qFd3ZGL4tZGdJLnCtG217Mk0oQL8H23k0HIaC3RZmk1LCRDocgLCJN8/D0+3fA9jB1ue4xZj74WZyHZst540RCxybrZC7y815meHJwv4H8zCc57043764EXXHeba7gsRb23eIUsquBGg2qwI6X85TZyT7fwb17wmoLFzNylJpx5vUMj1eC7j4pBer5cPx3t+MWvmb1iW9TRfR/DnurZHP9+hctAEd2Hr1i1YP7HA5T325HKGGbgNA2FLQK+EOUvm+2Lmw0QQilCQOLEQp1qfZ2NrcP6D2ZE+HaWdUDmzjGLVYh840sjaAvS1gb29iz2bTKpbwdrRpFMfoCpNIEhAbrkJNzUYhsrkaehteC/LgON0A/Ms87e18usokUuuD3h2Asl74HLtFJA97ejzsGwj/6rh8la40idTKoTtAZCvQDl3SoeYi57t72OU3Oy5MAfyf0dUmkVqzVtfIbkL4vsBxxdhl3kB64JgJDrPh7qerTSK1olALD+Sehe4wVCY+pbPdMW+xz1ZrZI931ihuoKtNIrVuzd4PcGY2Tfwgn+7pMVGLD2fr0u164h81qRU0NEQitWqb/d6+HQDn/3FDbZckkQCgQZFq4Y8+ZvP0I1ka7T/b61W4acyHe7LFSiQSqbVDeY18JMsj1+RJrBprbrlJJgaru6fwsnXlGvnd1gk43HPSAX06PICuMIkkldpdpbiarYSz5YlvMvvtlLWzTSOfjBpayZ6aGhkccIPVWtnNeG0QtmE3iyfg37h9zmM71OiKO+nqkkjSa7v3Mdp60EudTHkt4J66ugLwf2GztRNuDbfUtIqbjMNSUT8XqVX0pqtKIkk1nNfK2QMSY+BcDxa75CCE/wS1+XD2LDe6miSS1EN6bcDVgD0YfpF7rFOJC8CLjCzfnVb+HCDXRqplPekKkki+BTxLBtkFAN/AHtAYpZGFGTWyh1HzvwW/H6WVTYbHmtSyAYC9F7bp7GkeOpJv6P8Be4IG54ZeBpEAAAAldEVYdGRhdGU6Y3JlYXRlADIwMjEtMDQtMjNUMDg6NDQ6MDMrMDA6MDDd8THtAAAAJXRFWHRkYXRlOm1vZGlmeQAyMDIxLTA0LTIzVDA4OjQ0OjAzKzAwOjAwrKyJUQAAAABJRU5ErkJggg==;" vertex="1" parent="1">
          <mxGeometry x="-160" y="194" width="103.93" height="106" as="geometry" />
        </mxCell>
        <mxCell id="LaewK-1yMpPG1QU0pVmy-2" value="" style="shape=image;verticalLabelPosition=bottom;labelBackgroundColor=default;verticalAlign=top;aspect=fixed;imageAspect=0;image=data:image/png,iVBORw0KGgoAAAANSUhEUgAAAPsAAAEACAYAAAB1UADIAAAABGdBTUEAALGPC/xhBQAAACBjSFJNAAB6JgAAgIQAAPoAAACA6AAAdTAAAOpgAAA6mAAAF3CculE8AAAAB3RJTUUH5QQXCCwDHDiC2wAAAAZiS0dEAAAAAAAA+UO7fwAAOmlJREFUeNrtnQd8U+X6x2UjKDgABw6Q1SQObLPKDG1SaKFJUUBGiqj3qle9evXvvbZw3Sju1VYKomW0TVtGQZZecQCKA8pGKKsgUCjQXbrH//cmpxjSk+SckLYn8fl9Pr9P2+Sck9OT93ve513PueIK0l9KM1aaBszIjOpAV4JE8nfYVxlfhmV0JUgkf4f9S2OKOTNiFl0JEsmfQc+M6jpjlemnB5aFrTYkqQbRFSGR/LZWjwye8aUpZ9JSw+awhZoP6YqQSH7bXjfNAexlgP1nwP47avdAuiokkj9BvjaKdczpAPpOuH7KsjFbAXs5/FFYkroNXSESyT/a6W1mrI7qA8hXwA3M5pVjfwfoDfBhwD5elzSYgCeRfB70laYbEL6/AcgL7WA/wsFeY1ioXqBPUvagq0Ui+S7obAJNL4A+G4AXNILOPH1lZAUHO/NBAG9E7d6WrhqJ5Iuwr4zqBtDfsq/RL8K+KrLBDvbasIXqJfBtdNVIJN+r1TtzoBc7gm6D3Vg/epG20g74QtTujyCc70xXj0TyLdDf5KvRG/3gKmNdRPKwHDvYmXcYFqrupM46EknqkLPhtbVRvQH6YgBd6gx0DvbasSnDsx1gr0Movwq+iq4miSRd0NvOWB01ACCnwTWuQHcBu9WGJM0CQ5KqK11VEkmSoJsCADGr0avdge4OdrjCkKT+D4C/jq4uiSQd0NmEmYEAeJFQ0AXAzpyPcD4WwPekq0wiSQH2NVG3Ad5UMaALhJ35pGGh+kkK6Umk1q/Vb5qxymQRC7oI2OsA+37YDOC70BUnkVoPdFajV4oF3Qr7l8aa8WmjdriBvRH4w/AkAN+JrjyJ1IKanDnm+ikrw98DsEWegM655r60kG0CYGeuB+yn4SgA356+ARKpBfTAitFdJq0IexU/S6aujNgpZJjNC7DbhuQWqsvgSJpDTyI1syZlhnUC5JPhw3ADavg81O7lLQU7B/xe/UJVMIBvR98IidQ8oXtb1OgqQP4DA73R0asiD7Uk7Fwb/hf9QvUw+lZIpOao1VeE9YKXAPAae9inrgzf28KwM1fBawwLNffQN0MiebOdvnx0R5i108vsQedC+RIPO+ouB3bmC/CisCR1f/qGSCQvaeJygxFgFziCzrk2etW43a0AO3Mp/CaAv56+JRLpMhSVqbtiYqZBhvD9gBPQmeumrYzIYUkkWwF21mFXAD9uSFJdqUsaTF8aieRRjb7C0Bugr2G1twvYWShfhVD+TGvAzgF/wrBQFa5fqKQhORLJg9D9GrTT32Lj6a5At8K+YnR59Mpxh1oLds67EM4r6JsjkcSAnmm4EjX6gwA5xx3oje32qZkRLCuNmDH3mgkZ+iwvws68HOH8NfQNkkjC2untAHoIAP6VtccFwt4wJXNM4YOrjH+IgL0WkcNeL8POMtb+G233jvRNkkhuNGm5oe8DK8LSAHC1UNBtofyYUoTyeWJgn7x8dLaXYa+3paXWjKNvkkRyVasv1V05fumov01Yrj8tBvSLvfK2UL6kFWG3PnSCTbhB+70ffaMkEo8i03VXmDJ0/eGs8UtDz0xaMfqMWOCnZIbnIpQ/1cqwM5cbFqo/GJ2kpfY7ieQoY7quA/y6KWNUQ1TGqLyJywyiYZ+8YvQFhPIsT3xdK8POfBrh/AxDkqoDfbskkj3sGboBpnRdPoMdrrl/mb5YbLudGaF87oNfGoslADus/haw30V56EmkxrZ6Jmr1DN1cDnSrEcofm7Q8LF98KD/mFEL5ImnArqlGOP8KgO9G3zKJZKvVRwDwc/awI5Q/P3G5ocyDjrpKhPL5ApJatATszMcBe4g+iWbXkahW72TK0KWw0N0edrgWofwpBq8HofxBwHxBIrAzfwPTM+RIf/mOuSkA+6QD6LZQPiPkAEL5UtGh/IoxpxHKV0oI9uqwJPVj9G2T/rIypel6Auo1cD0f7KjxyyYuD6vyIJSvRyh/3E2vfEvCzhbLHBqdpKFHQpP+guH7UutQ22OAOpcfdJsRyu91zE4jxFMzI3a7abe3KOzW7DZJ6g/HJGkpOy3pL1arZ+juBMzfuALd1lEXcnLSCvG1++QV1rnypRKCnfkwrKFvn/RXqtU7A/Z/AuZCd7AzT1xuOO5BKN+AUH6fxGCvNCzUfK5PUnanUkD6a9Tq6bq7AfFPQkC3hfKh2z2BfWpm+EGJwc58CO13E5UCkt8rMkPX1ZihewEQVwmFHaF8EUL5Cg9C+XKE8mclBnt12EL1YkOS6hYqDSS/1ri04b0j00d+KxT0xjH3ScvD9nlQu7NklDudwF43dXnEqVaAnfkY1e4kv1ZEypC2EalDHxhrGXbOmD4yRwzs9y0LZbDXi132ilD+jLMhuGmZEfWtBDt7dlycnp79TvJXhVuGdoa/jbAMKx6XNuI4IK4THMovDalBKF/oQShf4SyDDWBvaCXYbdNoF2oMNI2W5J81u2XowIjUYeWAvWFs2vBCY7quQHi7fdSFicsN+z0I5cvNK8fmSBB2NtHmU/g6Khkkf4T9ZQY65zy03c+ICOWrEcqf8WCCTd2UzHCWvaZYarDDuYBdY0hS0RJYkv9ojEXbHYDvsIO9EqE8G2evFgr8+KUhpQjlxSe1yByTP31VZI4EYW8IS1K/DVOCC5IftddTh4YB8BI72Fkof8KYISqUL0Aon+NhKF8oSdgXas6EJgX1oBJC8p8QPnVoIgCvtocdPmNMH1ksslf+ggcZbOqnrow4++CXxnMShL1Bn6R5kEoIyT9ATxnSH2DvdQCduR6h/DkxE2wQyp9GKJ/rQSh/GqH8aSnCDmfpk5S0QIbkFyH80wD7PA/szNkI5UtFhPL5E5Ybznow5l6NUL7UfiWchGAvMSSpDFRSSD4OenD3iNRhywB1nRPYC4zpVtjrRcyVZ+Pt5aLnyq+MOIZQvkCCsNeEJWmWjEnSdqISQ/LdEN4yRO8khL9ohPJHWHtcRCjvUTJKhPJ5COVLJQg7c7YhSXM3lRiST0qXObh9hGXoiwC6zBXs8AGeHHSuXIpQvkTMs+Aa58qbV41j7fYqCcKeb1io/heVGpJvhvBpwbcD9mVuQGcuj/wzZ7zAUF5/zLNQPnw/QvkyCcJeC6cjlL+KSg7J5zQGIXy4Zeg+AbA3jE0bsV0M7AjlD05aEeZJqumiB1cZayQIO/POsCT1cCo5JJ/SKIu2qz5F+/Lo1OA8x8k0vE4dliNmYQzr0Ju43FDkQa98A0L5vWw9uwRhL4NnGZJUtDiG5DsypGj7wsvDUrQnwlOHFgio3esi00f+ITKU3+lJMsopmeH7JQh7tRX2JPUiwxfK3lSCSD4jfYpmCHwUwFePSR1SBJhr3ME+Nm34PjGwR2WMOoFQvtKDUL6CDcFNyxxbN3qhtqoVoC6AzwLsc4YkdYHhC3W9/nNVsX6B6oj+M+WG0PlBIVSCSD5Sq6vaG1I0kxnocMPolOBswFzqBvb6CMvwIlO6rkQM8Ajlj3mSnw6h/HbzynGV4YuH5DZf6mhNPnwSQB8H0HmGz9VlALoCPgnnAOxj+vnKU6HzlPVwA+eKkHlBz+rmD6Yxd5IP1OrJmm6A/S0GOue8cMvQSmG98iMOigvlPUtGOSVzzB+AvTAieViOF8AuNCRpjgHqbMMXqiOGz1XnAXO1/jNVIXwmdL4yFz4PkMvtoHblxQCectSRfKK9fgu82Q72WoTyOYC51g3slWPTRpwSF8qHFHuSjJI9Q25qZsROsbAD6KPwHkC9F0CfAMzlcGXofFUxgC6AC0VA7cy/w2oqSSRfgF0GV9rBzkL5XTyr3pqE8mMtw0sQyp8XmYxyryePiMJ+heFLhuQ4yRHH2tKAWv0r2tO7APQfALkGBthWmJmr4LrLBJvPNajZzbq5g2mdO0nCIfwSbTt9svYRe9CZ9SmaUoTyVQJC+YJx6SOOilz2ut+TITj20MhxKcN2oqbORXt6O6D+Be3oPQCtmIOunoO53qFd3ezGOXwRMi+Q1rmTJN1e72BI1n7sCDszQvkdAmCv4jLY1IhMRlngCewRi4bubUmIRfhIyDxlPypRJOmG8MnaTgD7az7Yw1K02YJm01mGnzOm6842dzJKicPeEJqoHKGfq6T8dCTJttevhE/ywQ5XIJTPEwD8+cj0kWdFJqM8K3aCjeRhn6ecCeApqQVJqrCr+zsBvbFXfqcA2KsRyrOFMZUi5sqXiE1GKXXYEcavg2m8nSTZmv1+F7DXI5TPExbKDztmFLESjiWjnCBygo0P1OzFoxZQJx1JsrBrXncBO/OF8NShRwUAn49QvkxEKF+HUL5cTDJKH4C9QZ+opFVwJMnW7GvdwF6OUF5QRx1C+ZOAuEJEKJ+LUP6UP8GOMP5lKlUkqcK+1w3sdWGpwWyevJDps4eMGboykckozwkdc/cF2EMTg1ZQqSJJEHRVN8B8zg3sbAiuAKF8jgDYS43pI4tEJqNk4+0X/KZmTww6QCWLJDnpkzV3AuYCd7DDZQjl84SF8sP3i5lgg1A+R2gySp+o2ecpz+vnKm+i0kWSFuwp2vsAcokA2FkozxJaFLmDPdwy7KiYzLNcMspSIckofQT2EoTyEVS6SFLriX+G9bYLgJ2F8qcRyp8SMn0WoXyuyAw2OUKSUfoI7GUh85QPU+kiSa1zLg6uEgI765UfnRpcKCCDTcPYtGFbPUhGecFPYK8C7B9T6SJJrWZPA8Q1AmFvAOw5Lh4LZe88kXnlGxDKF7rrlfcR2KsB+xdUukhSq9l/Ewr6xQw2qUMLbSmp3CSjTBt5SGQGG7fJKH0EdubfqHSRJCOdRdsZ8G4TCTtb9nqWtcvdwF471tYrLyYZ5Ul3ySh9CPYs3fzB9PAIkjQUmqztI2BCDV8ony3g8VCeJqPM8RPY94UkBg6gUkaShPRLtArAu18s7HBxuGVomYBQ3uvJKH0I9v36uUoFlTKSNGBP1oQC3BwPYG8YY7HOlXfXK181Nm1ErshQvhShfLkfwH44ZG7gUCplJGnAnqKd4CJphbsx970CYPc0GeUeP4D9ZMg85f1UykhSgZ09FOKUJ7AzI5QvaKZklAecDcH5GOwTqZSRJCFDsvZfgDbfU9jHpA7JaqZklNUI5fMJdhLJW7CnaF8ROC/eWSj/h6DZdOKTUZZNXG444OOw5wL2KVTKSH4BO1scg1D+mMBklOdEJqM8xzfBxodgzwfs/6JSRvIX2Fkyyl0CYK/hklFWiExGedqHYS8B7K9QKSP5C+z1YSnBpUIeAOmtZJQEO4nkGewvXybsrN1eDtiF5KcrQCh/wYNklFUEO4l0mdKnaCd6Os5u/xCJ0anBRwXMpmPJKE9cbjJKH4K9CLDPpFJG8ifYG8JSg9lTY4oEJqO8IDKUP28/5k5DbyRSa8LOklFaBOWVL/MgGWW+fTJKwF42bsnwAwQ7iSQO9gjAevxyYbeF8kPy2bJWAckof7/MZJTlppSROQQ7iSQG9mRtIEDN9gLsbNlrvpAMNuGWYTkik1GWOSSjJNhJJNGwe77ElS+UPxOeOjRXyAMgjWkjT4lMRnnELhklwU4iiZUhReVR8gpns+kQyl8QmIxym6hlr0tDDtklo/QV2A+FzgvSUikjSQh40TnovJGMks2TrxaZjLKA65X3FdgpeQVJcrBvZjPhvAT8WYTyRQKTUR70MBmlr8C+V5+ovINKGElKPfIWMamkBSx7zROYjPKAyAw2p7hklL4C+zZd0uCOVMJIUqrZZ8OV3oI9THgyymJTuq5YZDLKoz4EO6WSJkmuZn9C6OOfBLpUYDLKC2KTUd63TL+bTbAxpow8JHHQa0PmKdOpdJGkBXuydgQALfIi7CwZ5X6ByShPiwvlQ0onLNNnRSwZmi31xz+FJgZ9QKWLJCmNStX2BqDnvQl7WIp2n8AMNiXGdJ2YpBbMJeFLhh2VOOwXULM/RqWLJMFQXvO7N2HnklGeF5iMMkck7OWAXept9qLQeUGURpokyU66xd6GXWQySuFj7umjLoQvHnpY6impdPMH96aSRZJizf4Pb8OOUP4EmxorIJQ/KyYZJbYtHZ0ULPUlrtlUqkiSVGiKOtDbsHPJKHMEJqM871+wB2VQqSJJE/Ylqm6GZM0pL8PeLMkofQH2kHnK2VSqSBJts2s6wcu9DDtLRlmG2r1CAPA5QpNRShj2/JDEoMMhiYEHR80LHEWliiTNmj1V3Q7t9meaod1+QWAyykKE8mUShL0ermOTZDjXWWvuxKAjoz4N2jbq08BfR8UH7dXFB52H6+BaOF/3aeDVVKpIkpQuaXAbfbI6yMsz6RqTUeYITEb5h5BQvhlhr4HLQxOVZTD7WRMyN6hk1NzAfbqEoF/gXQD5OFwJN7iwBaY58SRJ98jfBDjXeb12tyWjLBRQux8WkozSC7AD6qBSwFwQkshCb2VxyFxlHcAuQE2dPSohcA/APqiLDywCtPVuwG7qhMAn4XZUokgShl3bFXDOaoZQvkBgrzxLRlnoLhmlSNhRSwflIew+BaDPwMWj5gZVAuo8QH0UQB8GoKdEA+3c5QBdq5s7uA2VKJJ0Q3mLti2Aj/T2PHm2om506pACIckox9qSUdZ6BHti0DlAfQw19NGQT4NOoU1dDpcC6jOoqU8AxNNwkRfB5nHgb/BtVJpI0q/dkzVywPmdt2t3tNvZ1NlzApJRHhMMe6KyEGCzjrILcMOohKBSQJ3PdZYxqKubF2xef6KLC7qWShJJ8gpJ1XZD7f5mM4TypwUmo6wxpo086Q72sKTgHwE3wvCgC1wPeIMEzDru7gPs1F4n+UQo3wawRwPQQm/PpuOSUVZfbjJKBrvhC+1ObqirQUJmvfVBVIpIvhTKD2qOXnmRySjLncKepivTz9cckBjozPN1CYE3Ugki+U7tnjS4A/coZ2+PuQtNRlkbmT5ihzPYIy0jy0MT1TkSA70S4fuTug8HUwhP8i0ZkrU6wLm7GZa9ngHM7p7lXjc2bXiOj8G+RxcfGEolh+R7ofwSbXe03dO8mXVWRDJKeHiZs2WvEoSddRB+Dth7Uskh+Wrb/WEAmufl2r1MYDLKsnHpI/b7COxn4McQwrelUkPySYUsVt7QLKG8ZcjvAvLT1Yy1ZbDhg70iZK7qhIRg36hLuHcAlRiSL3fUtUHb/UW2mMWrvfIp2lOCZtNZhhUa00f+4Qj7uNQRDRIadivTxQW+rUugWp3k68BbtD0A6GGvJ6NMHZovZNkrQvkTTmCXig/oEgKVVFJIfiHU7s97fczdMmSfANhrEcqXOC57lRDsNfBiKiEk/2m7p2pv8nbtHpYazGr2CwKAP41QPleisJ9DCD+CSgjJn2r2DvDr3s5PF5465IAA2Isi00cWSRT2dboPB3egEkLyG+mXaFlHnRKAHvNqMsqUIULSVbEJNmfYfHgO9rqxySNOSgL2hMBwKh0k/6vdU9RXGVI0L3t3JVwwwnjr9Fl3wB+1S0ZZG5E8PFsCsH8H2CnPHMkfYVexcP4eQPojyxrrrQk2Y1KtY+5ua/dx6SNKuXXuUoC9BqCP0X16Lw23kfxTuqTB7fXJ6oe8+BDIKm6uvJAx9/2mDF2ZRGBfDd9EJYLk3+33ZE0fg23OfK2XQvlShPJ5Amr3XITyDPaa8CXD9rUi6Pmo1cfr5g5uT6WB5P/Ap2jvB6hHvJTBphC1+x8CYG/gJthUjV44ZFsrwp4KU4450l8E9iXa7gD1M5ZI0gvAVwP2QgHLXlkov8uUrqscnaRtLdiP6OIDJ1CtTvprAZ+qVelTNHu80VmHUD4vPHXoGQG1e8nYtOGHDZ9rtrXSMtYFuk8Ce9C3T/prddZZtO3Rfn8SsJZ7IZTPB+xC0lU1RKQOuxAyT7W/VZJTJASG6j6kfPCkv2ZnXTvAmuGF2r1+jC2vfLkA2GtDElUt3RtfpIsLnAnYaaiN9NfVqFRtH4Tz2V6o3XMErYQD7KPmqo62IOhsKe03aKdTLnjSX1sAldXu5ssdewfsxYC9mE2gcQW7MXVkGWrYihaE/SRqdcotRyJZw/kU9XWo3T++3Hx1o1ODjwNol89yn5467uCYhODiFgK9CqC/St8widTYWWd93LPmLgD7v8vslT/qrt3+lOWBrEmJ+sMtBPsaXcK9NFOORLqkdl+i7aBP1o4FtLsu5wGQ4RZru91pMsoX0/62Zcq8sJbooMvRxQeOgKlTjkRqAnyyphPC+WcuJyPt6JTgXa6SUb6a9vhPLQA7e+DDY7pP7u1E3yqJ5ESjFgV2MSRr3ga4JR6G8n+4eh7c3LTY3f/4/P4dzftwxsDXdAmDu+s+HExfKInkSoYU1U2o4Vd4ulgGofwxZ7DPS5u194Wk6dua8Smsi3UJgX3oWySRBAOvDYR/8zCU3+kM9i/SXsl9ddHju5ppOuxmOJi+PRJJbBs+RWsAvAc9COXPO3tE1JKM12vfT372sNcnzsQF7oJN9K2RSJ7U7snadvAUAHzUG8koJ1nCziRnzK6NS/lPiXdhDzwB0MeijU6r2UgkTxWarO6qT9Y8BYDPiUxGedAR9hmWyOzUjDdq51v+Wz3206HnvQR7uS7+3ofoUcsk0mVKlzT4itDFyu6GZM2/AXG+iFC+PMIytNAe9n+lTdtuyXizJintlQuT540+7B3QA/+hS7i3C31TJJKXgDekqHroUzQfiBiSa5KMclbaI9ssGXNqktNnl/7z80mXm5rqAvxfXVxQN10CDbGRSN5tw9uA/wggF4lIRnlxgs3raU/sTAPslvQ5FS8u/PuxywC9AJ6jSwjsRd8KidR8wPcE8B+ymltIMspwu2SUH6c/fyI946065neWPFOmT1BXeJQwMj7obYB+M30bJFLL1PAM+CqhySiNlpHliekzKwB6A3Ni6szCCYmhJ0QnoYgPegug96ZvgURqOeBv4EL6KiHJKCdbRp/8PP2lykbYF6W/lvfIgqgDImfHvQnQaRUbidTCsLcxpKhvcVfDI5Q/w5JRPpn2wP4lGa+XcbBXL13xfu7s1KfOGxI05QJhZzU6JYskkVoL+NBUDavhX3I2LMclo8x/Je2xI5aMOeUM9oyl75StWZ1wIH3V+6dnfG487X54Leg9gH4dXXESqRWls2iv0C28t5MhWfM04D4O1/HMlT/6QdpzJ7nOuYZly96tWLtmbvm6tYlV/01+tECfoKlykjsuVxcfOEOXMLgzYKeLTSJJAvqkwQBeOwlw73YEfnzKqNz49BeKuRC+duXKj3cD9AZmy6p3j5oXjM0dFa+sc2if/wLQ79fNHUxr0kkkSYb2ydrxAHyjPeyPWybkLMp4Ld8awme8Xbt29adHGmH/ev1nuQmZLx6ZMF9fMCo+qJ6bLJMBD6O57iSS5NvyWiW8kvXGh6UE186yPFKYljGn0hbCv3eKhe8M9PXr5hV/9+3i0xt/sJR9tnr2melJpv2ozd+EB9JVJJF8QPolWpbAUq5P0SwwpehOvJv2r4LGIbdVq+K2N9bq//v687Mbf0g9t2mjpeHnLctPpH8b/zLLMENXkETyqdpd1VafrL71/1KnP/9F+itHbb3wb5evXTO3lIO9asM3SYUAvQYu3vrb6q07stb1pStHIvmgWIrqJRlvqNIy3tpsDeGXv78XkNdaQ/j18/O//25JDqvVf9ycfmzrb18+vmP7+g501UgkH5XFMucqgJ7IeuERwmdzsNd//dWCEoB+nsG+aWPaDvgOulokko8rLf2tJ5cufTd7zZpPq7kQvhIhfK4NdEsd/NHmTRaaNEMi+boylr478stV8V8xyG298PMvfP998iFbCJ+Rv+XHZVN+2bSMQngSyde1enViT0D+DVerI4T/rAigszC+9pefM89nbVsXRleJRPIDff99UjtAngHXsTb7hg0L97NaffOm9PNbf/3y+PasdeF0lUgkP9G6tXPfA+gX1q+bV/fD96l/MNi3/LQ0L2vb2t8A+wi6QiSS38Ce+Ch87qv1nx3nOuUqEMIXAvRseChdIRLJT7R27dyRgD3nu2+XZHFj6/lbt64+uj1r/fdZWevupCtEIvmJ1q+e2+fr9Qt+RgjPxtbrf/pxaXHWtnWo2devz8paH0BXiETyI238IXUDA33TxjQWwp8A6A1wOmDvQ1eHRPIjAfRNDPbNm9LLt21dc8QK+/avPtm583/X09UhkfwK9tQUtvDlp80ZBQC9fOeO/+Xv3fP9qwcObKbcciSSn8G+ALBX/vrLqj2sVt+ze0PRweyfZh869DPBTiL5WRg/e/OmtIrtWWtP79j+Vdm+vT+cPXTw508IdhLJz7Rxo+XxLT8t28dqdRbCZx/4KQewxxHsJJKfafPmpY9mbVubDdhr9+zaUHjo4JYygp1E8kNt3bru7wC9goXw+/dtygboDYcP/fJJTs5v1BtPIvmTsrLWP85g37nj68qD2VtOA/SyY8ey5uTl/U6wk0h+CPuFPbu+PY5avfbokW2nT+fujzuXd4hyz5FI/gf7V6UHft+8k8H+x7GdBWfPHFoO2Gm6LInkT9q+fX2fXTs3fAvQy48c/jU/99Tvx87lHV5PsJNIfqijR7ddd+jgln/mHN2++uyZw7sA+6azeYfpQW4kkr+qsDCnU/7ZI0MA+z8Bez+6IiQSiUQikUgkEolEIpFIJBJJkBJmTr0iIXZau4QYc0ced4h/YXq7T2OjL3F87LT2TrZvsj+3Txsvnm+bBIfPZ+dzyfnFmNn7HYScn+3/M7edGzO5DZUGkn/DHjutU0KsORoFP4HHH8fHRD+REBs9w97xseb/4L14J/vY+zVuHx2OExAfG30z4LrqMs/3Fpzvv+w/B+cTc8n5xUTHAPiPBZzfR7b/zzwJv6vx++1xMebuMIFP8kPYY6LvQiHPB4gNzexC+Gt81kvwMAB284evzGgr8lw7Yd9HcZzSZji/Mhw7Cz/fwc3DgAjiaiodJD+r2c0TUMC3wYfgYhFwnINPOrhSwH51gOoYfi6Ii42OinvBfL1w2M3XoOZ+Dvv+Ch+GC6zH8z74pwH8S/g8mg1J8qs2+40IW4ejcEeikP8Nfh/eBdc4AYHVqh9gn+mAdZK98fqT8P/BifD38AkXQNVagY2JZmG4CufR3t25ol3dDmF8b3x2MD7PiP0ewjE+tMHp9HPe5c7J3m/Cy+ADLvZjN640fBbNiCT5p+Ji0WaNNY9Em/cgPwTm/8XNjL4VIbjzY8SYe8FoHpgjsP0c/NzPwc0HVRXA3YzPHAOLbivjc66LY5/Bc2y8dxI3kWt4bnBX4f07cKMZifN7Bb8fcXJu5fA89v9QySD5pVhbGgBm8IXIKPjJsKBsPKiJ28bHTMPNI/pu7PM29i9xGtrHRh9Hm3yMJ+eLfeW8sMdGb4Xbuji/Ngkx064G8JOxfbaTczuKm9X9VCpI/lvDx5if4QvlxcBud/Nog306w6MAzgkX7exjCTOnKcQOg2G/W5zA/qsr2P/c39wetbyZfb6TG9GniAauo1JB8lfYn/QW7Pb6eNb0W7H/dyx85wGrHnD+khAzdVBLws7V8qjhoxc5aW6w872HSgWJYBdZy38yM1qBGn6Dkxr+AhsjRzv86paE3dZfEf00N8rgeKyDqPn1VCpIBLtIoRZF2Gzt/XfSCRi9H3BFtDjsMeaJrO+Ar3mB44yhUkEi2D0QjnUt/LqTsf1qwD43ISa6ZwvDbsJ+OTzH2o7jDKVSQSLYPf2M2OhAHHOz09o91qyXCOyZaFb0p1IhMUWpFJ2ilPLbowb36URXQ+Kwx5g7wnOs7fSmgOGzzc8i5O/UUrAjmngc++U1HWs3zwLsHXl3Gh8c0DZKK+8UpZF3jdIoukepFQb8TMDf/7ikYGqxnUZ2dZQ6QIn35sBfYbv9UVrFRuz/BfbD6yi8g/s0GYrAvrCsPXwjjhGFfb7A/pvw8yy8Fr/HjdfIg/GzMwDwysT+KGVAG5Na1smkGtTTqJaPM6oUs00axRqTRn4APwvhk/CPcJxJrQjH69cZNbKOfOfv8nPwv5k0snZGtaKTSS3vit9vx3Gm4bjpRo18od12bfAZnXAN+uJ8nsG2m7BNEVzC/fwV2z8L944KGtDW4/97cJ8rTOqAdiatvAu+k0E43gz8Hm/SKtbj83+CN+L3Vfj5jkkrC8F7PYwaxZW47u14/rd2+H+6mYL6CxrKMWoV7XHsrvgf8bmyZ3HsRfj7J/gMXAj/gs9dhveewTYD8XcXVq58AXYOVL2LmWwW+LaWgB3bs+E3NnuwwmHYbS3+334OX6KsG8C8DaDJAGoEPBugATrFebzWANfB87jCA8gVPbFNGLyBe5/PpdhuTpRqUF97YKLu7dsOr9+BfR/FNjtd7F+Ec4iPUssHskLmcWFnNxaNrAtgUsIM8INwg3vLTwKMF02qAAVuFJ3cANXWqJJfj/364UZxN/a9H7C/jd+/x2uljcfEaxusEOAmgm3k8Kt4PdfNufxuUslC8Bmir0GkWtbGqA64AYBGAqSlcBncAFfDFdzvDpafBexL8LlR+PsueIDVGoUC7+GmJd9m1Mofc/O5HXDtbsF+U+E1cDn/Z11idm7p+Iww3JSvEXuTbQ3YUXNfg+Oynvl6ntl6W+G7mhv2hJlT22H7MfBuh+m8Wfhfw3mAkL8OuL6BTzoBrwSAvgRwUDvIRuD3BXit3AWojS4HsItR+/exfo5adj3gHY/XvxWwL3MV9k+GB6Gm8eiOH6lS3ArIn0VhPcDBUw0fhbfAX3O1+W44nwe0GhTu37D/JBynm9MaTB1wO0B+B9tvA+AlzsDFNt+alIO64ZiT8Pcm7lzc33jUivMAfqTY/x3gKAHdfEBUBNfBx+Gv8PrnAPpj2++KbLjKCYDF8B7OZ7ljXADs05xGEaqAq3HssfiM1XaQF8BZMIsivoe3wafgGp7PxM1P/gqA78sXXUgJdhus5gVOxt3P4b1hzQW7dbLPzOhu+IwQbLfS7v9l02TX4/+McFL7KVbCp1xAVwYn4abwNH7u5mp6Vuv/zHkbfJp73XHfAmsNr5GHw+/aRQuV8DH4AHyU+9sJ8Iq3cZPoKvaLAFwaOAnAVHDgnEJBWgAAJqBQyqI0AT1MStlAgDwS7z0Pf2dfE9v5EI4zAzUW73pmHE/D3Tiq3ICbhRvHC/h5zO61cq52P+div3oAvxnneZsI0IMBzo8cQHXsswHhg5FaxbUcmG2MqoHXAlwjtl0lsPZlPorrwNvhg+YGu5G9gG32cdsymDchnP8PPleDyuIOfI+3obmAm5DiIbw3n4O+3uEzCtn3hOZHb3YDkTLsAO0FF1Np9Z7Cbh1GizFPRHs7PCHGrG00wvVQNgUWkD+Ibdg03h12/+tBvP4+/sc+LkJd2R0AcQrAiodZu7vWATgG8TnOu+D3AeB0wK/hPAz7T8PradYooCmwuRzUFVb4tfJU+J/4PQr7jcFPI36yG8kqJ8DjRiQfJBL0oSjg39hqZyswZwDlrEiN7AYn4X5HvH8PCuEXToDfDeDGobbpyNOx1hWfNwLb/AdGO1hR6QRaVusXwGX4nB9QoOfAj2PfifBU3Ahew3u/Oanx0Y6X/1vQ/66RawHMBri2EVC8NpX9j7xNELXsHg74agfo2P4ldiH/HhznISe1eiec38tcLW4D3dYnMgSf28HJNUfTR2bmIg7Hm8oF7PsR3u8gadhjzNE49nknC28mu1sR5wL2Bm7lHesT+MXOLFz/A87niQb2sck1LmG/2OGmlfUExOGA6xfeNrhWsRDQDcd217IOJsdCg/f6WsNuVhvzQ4s2vtyENvRt2L69w/7t8d4A22fw7AtQRbRVb0VBs9jVtJWAaTFA7yHgJtGHiwYca+laeB18u4tr2Bn73gNon2Q3F94aWiP/He8/hu3uNKoGdWPX7WIIrBzY1cRuUmpFCg/wrHb+KkoZcJOb7/EqgPKFXWiO2lWejmvSzWWfg7WGVxx0AK6chfz4GQ5HooZWm4L68/ZfsJsWtjlvt+8+nG8kboTt3fR3tDeqEWlp5QU8wJfivCZLHPbhOHauE9j/xebVXwbsYs3+51PwD4gA3oiPnSZzN/wD6BSvO9TQtbgJZESpAm5x11sapRqEKEFxmAfYnwCsFkC3c15QFcwDbTeFJrBvEdj73AEw/Zvr0W4E5XSkWi54FpFJGdAXhXcfD6wVOHY0gOvgqvfbqJL3Asyf8+yPkF0WjP07u7j+7aJU8ruw7Xqe/XfhhjXUTQ94pAO0+aiN/+n2BqlVdMG2ax1gY230dwV0grJOvB0O4fhihOuCJpZEqQfhs+Uv8TYbNGgiDu7TRcKw3+N87bv5CdTsnTyFHbX0Nm7125+OMe+zTtxxDX29NXuNNVGGeSLa9x1cfHmKGLjwkp5xrSJWSPuJtQWtYX5T2DMB+u1u9w/s1w5g38/T/q+MCrzjGvc1s1yJArLZAZJ9qNkEd/aw/wHtYzNXm17ayaaRb4S7uxnmQw0tj+XpoNvqGBE5GybEts9xQ4L2x8jFZz/i6rwBzX+tIfCfwJxG7ThJYPg/k+vMswduCW5APVzcnNriMxOxXaXdPmdx03lCyP/aOGKC7ftxTQ9H4Etwg5vim7BHh7GkmB520DG4r4K7XOIYcxe8f3X8zGlD8PeT8G8c2HVOoC9iY/4JsVOv4l3HzwM7+/0FwbCoZToe2FcAdkEdTIgMVNj+iMP+NSgUGjdRSTvUyA87tLnrAM580T3ZGnknJ7U7A76/ANhjeGDfILzPQT4K++xxOEYBjvGs88/t3xXgzXfsUDNpA4KEjYvLJ3Nj4Pb7p+O63+z0OqkVbHx8i8M+u3EsUaMHrF2Pc3+Yp9+gBjeCxT4Ku8cddEKH3ubGTL4yPsZ8nzV0v3Sc/ZJUVXEzoyfHzYru6H3YtQE9Lwt2rSIA/l4s7ACsh3VSjENb2yiwY8sBtvY43kv8Q2jyJ5oddpVMxnX22R+jEjegN1xcdza2neE4lIWacfxlwL4gytWwo0Y+HducdNhnI85F9HPjjBrFMOy7n6d2347jdZMo7COctNlZD/3I5ob94ni7LQNumotcejsSYqf1bQbY0e5sCvt6+A5h+8vvwLZfioUdBY8B8oPjWDngnCF6Mo5K0Qa11kgn4+ULmxt2HKMf9tnI8/mfiIQ9HzXjUx7CzkLz11wP8Sle55mg8xXraRc/L0DWF7V7Bg/sh40aWbBEx9kf57LPOsL1M2C9s6Vg54AfxOXP42/Lx5gfbynYcXdWyJsVdrUiCLWDY+hdbVTJQzz5InG8frax+SbQfue6VpZ3w43ijVaAvYetY+wSUFhYvIh1XAposz/Fbg52+55kY/OuRh+4sXJHOJd5cr1xvCu5m4fj8U7gRjReirADyNe4NrMjXIvwWb1bEnYr8LHTxvLP6LN2GH7XUrCz8fu7mhN2hLhsbP00D+zhHsGukd9qtI17O06l3e2mCdCDG75radjb4/337MbXG70lElGP+34KRaLDbLrNJo2sv4vPu9E2xdU7sHORwvM8xzsJ2CdKDfYPX5nRia0qc5IhJvaTWdFXtjTsaMOzFFrHnWXXbQbY5WzMPa8VYB8Bn+cJ4x/3rGaX9wLwGTzQbnazH1tsk9LSsHNDbw9xs9LsYSlAeByD2r2ji6E3Ng/+Z4chu2ddrUvAe7diu+U8cH6NZlAvz26wike4RTKShz0u1sySRWbxQJULUMezKa0tDTv3/6c6C+Wbo2Zvy02hbVHYAZMKPtikg06teMdD2FFDy5eIhbY1YY/Syq4HHF9yY+T2wPwBT0e7uIv9kJh19Z1yYHfcDN6xWyhTAegWmgL7dXMTdvfmFtg4wr4Z7w306JprFZN5blYHcLw7pQQ7Axlh8d94OufqrTnbY823CzlOM8H+bgvC3jo1O2AKNDYdrqo3qeVfNc5UE6NIjew61G6f8UD7qVRh5zraDABkF8+c82JA/RE8BL8H4Ccb21YhGnrPrjYtxjVcJGQiC4sUsH0Cz+dk4xzGeQj7FOtimEuPty9KM6i/lGBHiH49jpnOA9RZ3AQeFd7B1yywP9KCYXzrtNkB5h3wSh5AcozKgNtFFzy1/EYAuqYJtCqFWcqwc9BMAiR7nSxjLeAWq2zmanxuaqxiO67fa6ag/tcIPU+cz4t2EcHFZgOO85wnN1jceB7l5uPbz+L7RkxCj+aGneWh43K+HWqSkio2enlCTHTfVob9QyfHXOs3sEeqAtiqq9k8gOQDtL97UPD6Yt8jjhNbTGqFQuqwcze/cVzv/HEnK9jYqrRj1qWuGpbMw7popaPITswJtok7TW4oaZFq55NxnAx3dsK+rzocqwI3rldEFvbmzUEXM20Aau/lDh1z9dyqM1ERTdzM6f28DTvOIdPJ0Ns//AZ2VpMAxAe51WUO69IVGdi/qzjYFYO4Jaj2wKbCV/kC7Nb2uFZ+A4B5mpv4Um2bwy6fC7PQ/e8I2SMBrBygXelJwTJqZAO47DNNx8a18rEiO+du4hbx2B+nyKSVaUUOh73L10PuDdhxnO7wLJ5kkyyN9EzWGy7yXEP5wYw+AHvSG38N34o4NssvIdbcdOVolEb+ssNCGJ+A3Va7K4J45sYzH4cfENxeVynaAs5HmsxgU8nvQ5OgnSewm9TCFvN4GfY7AUwqFxp/C6BGA55eeO9ab7Rd2TRX1LxvsBVqTae5yudGamQ3iogSgqypquyOY7SuqQjoJBKgRbxzxWOiv4Vv8vR/ZY9dTrA9dvkUD0yzhWaUdYhCJjhpX7Opr+08ON7DvA96jDG/gBq/Cx+snzksRPEl2DtaM5041MjcEtXVeF9QLzHLIQf/6jAnfoFRLbvR3YIgp7CjOdGiYbxW/iQXwnOLVFiNLvP6g/5wTA3XHHBcsXYW38VEZ+vZHW4aHbm58ZV2+5eZ1MJ74d3BjtfPw/0vA/bpTtauv4/3rvHkmC5gb0iYOXWgyGOxKbO/8xwrIyHGfEeTR1OxcVWAtdgBtGJ4ltC8YNaMJE1hz4bvFgh7P2y7hgf24YJqZbUsgEtcUdd0iariE/jWSBdprtgyX4D+uG39+cW15JvxmpLldRPQsdeLJZjkAbVM8DVUBgzgUlc5HiPB3Qo+/H+sp30DT7qpvSa17H4A2Avvd8fN4Cq4S2RwQEdjcEB7oavU+CII1MCzeLPdaORHAKwuSiXv6OKmxCIQBctqY5+TDsd8PlIjby+ywLPki985m0WG9y1xseYeQh6zjG3astowIXaaHDVjhkP6qVq8djo+dtoMvN8FsHt0A8G5POF8qao5Ie4F1+vhbUOA0Z1xDvfE2RbD1Do8ujkV59YfbmP/hbUdjy8foI0AWFt4YF0dpZb1H69x/qWxO/h4reI6NAMe49kf0YF8Avbv4Sx5IiC7Ikqt6IZtI7j0V5dmy9HIE9gyWRyjm7ueXoA5nsstV8fTdl7BMsvAvZq0+TXyG022fYvs2vtZ2Ha0kNoJ2/XE9qHwYd717KoAJba5ji/jDdfJiBuN7Hru/H/nOcZPiDDC8f7NJpXiar7su9y01/MuUkvtB1xrANln8HvwE/ibZYzR4fhq/GTJJe/A6zfhxtJVSK86G6pDEyGDN5+dRs7ScD2IY97GOuEcrhlLthEIr3RYIvvvSK3rvhF7fRob3RGQ94YnuXnmOWp489dsnTfguAfb9wGwN6I9ew2O0Q3ujlrwNrwuwzYskeM7Dser49rEX8XNjA4FbKJDbXzGlfEvmHvhZhGAc9ni4lxLcHOKwbncCeOczNdx59gt/oXp1+M8ce7RSvi/Divv6q1ppWPMiYB8gGPYPQgQTcLPFznQa/hhteaqewrQjQOUN/zZxpd1x2vD8d7fbGvZ5cedZKphoXwctn0QVl1yDmprlhwj/BqX+oo/gSVLNa3FNiw8VMv7u8qEwgHzm5MUUSzpJBtDnwiHwOFoU5tRMBfh9+LGSAAFeB1qaqO7ueXY9k7476zmhfc6zyUnZ/MAPoCfBJQj0Ka9motG2uBzBrJj4PUP8XMH1/TgOw67kSTDL7FjNLlhWGG1JnisF5hXzj70ZrXz7ywyYEtLcT1i4BCjOuBad1FJlHW5qzydZyiucY7+lzj+UzAbJQiB78P2s+xy1rFt9uFzn8X/IChdNQp1V7a6DH6KS9+cLzCrS50VkJjo9YA6Cb+/lRAb/Rr8ZrwtgeMeniQR52zZZM3PAtLeHtTivbB/BPwcPnceYNzufB77JU+YOQSvwu8fcOf4Gv7+CPuv4+k/YAknf8BN4mlEJj34wuaXneSOc+bzDHi7/YO5xJO1AvdnN5N0h05BE0A/LeIcWMbbh5zVkHYh9UguRVWeE3CqueG1M3b56ho4YOcARkGLd7iltZXC0lRf7ANYi/MbxJ1nB/hVMfvbjqH40knP9t/ZAhLRsPMPz+0D8K+bVINudtVfYUtiGXALPnuO7YbRZI5+Y167c/ARuyQb9bYpsYokXIOxLKefwJ7nNqiR1S5yt3vDDB6WHYb15P+DrSzzqL0/c2oH3CSm8TzIwVs+A3+Lz3gJ53iXqzbyE1ybutFZ3JLU1U6tCVDagTqSW39uf4xvePbbyNXuB7DPvEvPQWbA61u5fffC37n8fJvdrhe2LlVVKW5BaD4dTubyxlfxp41WHAeA61Cw/4uoIETMUJ1tnJo3USWfa3EuZ1HLx5lUsltt7Wy2fl7xtEjYzwCOD5w0KboY1dbQ/HsXqaLFuAS18Aew255x3CC74TrqAe9soy19dIXzYyq2YZsFOK4J7fNbxOTHRxjbEQX7aW9Cg9D+RJytVv+Sdbyx2XCAPASh/k3uss64GfvugePFee9czWfjbMknV+D3t1DTT8W1uBvu4KatyYZiFEo732NL/sg6ypxYOaCzHezdWefbJcdgud6b7KeQw0Hc+/0cCufVeP1ebv9AWwILF59vs+A2HcsbZ1LJbwHIKpMtk+tz8POcAZn8PryuRUEdYFQN7CI2hTFuDizJJWvzhgmwHp81DOfTF+fV8eJNCU0jgftbzTLo4nydzgw0BfVnIxM6a5Ry+bBbp9KirKgFD19qFd3ZGL4tZGdJLnCtG217Mk0oQL8H23k0HIaC3RZmk1LCRDocgLCJN8/D0+3fA9jB1ue4xZj74WZyHZst540RCxybrZC7y815meHJwv4H8zCc57043764EXXHeba7gsRb23eIUsquBGg2qwI6X85TZyT7fwb17wmoLFzNylJpx5vUMj1eC7j4pBer5cPx3t+MWvmb1iW9TRfR/DnurZHP9+hctAEd2Hr1i1YP7HA5T325HKGGbgNA2FLQK+EOUvm+2Lmw0QQilCQOLEQp1qfZ2NrcP6D2ZE+HaWdUDmzjGLVYh840sjaAvS1gb29iz2bTKpbwdrRpFMfoCpNIEhAbrkJNzUYhsrkaehteC/LgON0A/Ms87e18usokUuuD3h2Asl74HLtFJA97ejzsGwj/6rh8la40idTKoTtAZCvQDl3SoeYi57t72OU3Oy5MAfyf0dUmkVqzVtfIbkL4vsBxxdhl3kB64JgJDrPh7qerTSK1olALD+Sehe4wVCY+pbPdMW+xz1ZrZI931ihuoKtNIrVuzd4PcGY2Tfwgn+7pMVGLD2fr0u164h81qRU0NEQitWqb/d6+HQDn/3FDbZckkQCgQZFq4Y8+ZvP0I1ka7T/b61W4acyHe7LFSiQSqbVDeY18JMsj1+RJrBprbrlJJgaru6fwsnXlGvnd1gk43HPSAX06PICuMIkkldpdpbiarYSz5YlvMvvtlLWzTSOfjBpayZ6aGhkccIPVWtnNeG0QtmE3iyfg37h9zmM71OiKO+nqkkjSa7v3Mdp60EudTHkt4J66ugLwf2GztRNuDbfUtIqbjMNSUT8XqVX0pqtKIkk1nNfK2QMSY+BcDxa75CCE/wS1+XD2LDe6miSS1EN6bcDVgD0YfpF7rFOJC8CLjCzfnVb+HCDXRqplPekKkki+BTxLBtkFAN/AHtAYpZGFGTWyh1HzvwW/H6WVTYbHmtSyAYC9F7bp7GkeOpJv6P8Be4IG54ZeBpEAAAAldEVYdGRhdGU6Y3JlYXRlADIwMjEtMDQtMjNUMDg6NDQ6MDMrMDA6MDDd8THtAAAAJXRFWHRkYXRlOm1vZGlmeQAyMDIxLTA0LTIzVDA4OjQ0OjAzKzAwOjAwrKyJUQAAAABJRU5ErkJggg==;" vertex="1" parent="1">
          <mxGeometry x="-160" y="340" width="103.93" height="106" as="geometry" />
        </mxCell>
        <mxCell id="LaewK-1yMpPG1QU0pVmy-3" value="Customersdb" style="text;html=1;align=center;verticalAlign=middle;resizable=0;points=[];autosize=1;strokeColor=none;fillColor=none;" vertex="1" parent="1">
          <mxGeometry x="-153.04" y="294" width="90" height="30" as="geometry" />
        </mxCell>
        <mxCell id="LaewK-1yMpPG1QU0pVmy-4" value="bankdb" style="text;html=1;align=center;verticalAlign=middle;resizable=0;points=[];autosize=1;strokeColor=none;fillColor=none;" vertex="1" parent="1">
          <mxGeometry x="-140" y="440" width="60" height="30" as="geometry" />
        </mxCell>
        <mxCell id="LaewK-1yMpPG1QU0pVmy-6" style="rounded=0;orthogonalLoop=1;jettySize=auto;html=1;endArrow=none;endFill=0;targetPerimeterSpacing=7;sourcePerimeterSpacing=4;curved=0;orthogonal=0;linecap=round;" edge="1" parent="1">
          <mxGeometry relative="1" as="geometry">
            <mxPoint x="70" y="190" as="sourcePoint" />
            <mxPoint x="70" y="460" as="targetPoint" />
            <Array as="points">
              <mxPoint x="50" y="190" />
              <mxPoint x="50" y="330" />
              <mxPoint x="50" y="460" />
            </Array>
          </mxGeometry>
        </mxCell>
        <mxCell id="LaewK-1yMpPG1QU0pVmy-7" value="ms-accounts" style="shape=module;align=left;spacingLeft=20;align=center;verticalAlign=top;whiteSpace=wrap;html=1;" vertex="1" parent="1">
          <mxGeometry x="80" y="263" width="140" height="50" as="geometry" />
        </mxCell>
      </root>
    </mxGraphModel>
  </diagram>
  <diagram id="VDUGvBSPsz-IqrLYLbzT" name="segunda-versiÃ³n">
    <mxGraphModel dx="2261" dy="1907" grid="1" gridSize="10" guides="1" tooltips="1" connect="1" arrows="1" fold="1" page="1" pageScale="1" pageWidth="827" pageHeight="1169" math="0" shadow="0">
      <root>
        <mxCell id="0" />
        <mxCell id="1" parent="0" />
        <mxCell id="L7Ud86Rvqq-_p02ORbhh-12" value="" style="shape=image;verticalLabelPosition=bottom;labelBackgroundColor=default;verticalAlign=top;aspect=fixed;imageAspect=0;image=data:image/png,iVBORw0KGgoAAAANSUhEUgAAAQQAAADCCAMAAACYEEwlAAABNVBMVEX///8AAACoqKi3t7fs7O2IiIj7+/v19vdxcXGQnKnz8/Po6OjMzMz8/Pzc3NynsLozMzNDQ0PGy9GIlaPDw8PS0tLa3eG9AADR1drFAACSkpK3vsbk5ung4OC9vb3Bx83kMCqvt8CZpLDTAAAmJiZISEjJAADWAAD99fWoAACcnJyvr69nZ2dYWFiYo6/aHhfTKyjqMip9fHz35+e5HB7v2NnGYmPjiojdXFrzurndFw/1zs3CGxvRGxbztrXiAADGPj7om5qjAADesrPOiosVEBAfHx+VaXSiZmzLbm++Li/RgYLirq7ES0zMQkK7dnu0iZHPXF3ZTkvgdXTbNzPmZ2Tfj47fSkbkcG7wqqjUOznmRUC4FhneoaHxl5Tkg4G9S03qXVmtHyTCaWq0MzbGJCS1n6YPacBZAAAStUlEQVR4nO1dC1vayrqeYEggEKIBQjCRqwJeMApSFYyUWjxntV3d22u9VG3X2t3//yec+WZyBbR2HS1tzPs8lWQmCfO9810nJEUoRIgQIUKECBEiRIgQIUKECBEixG8MUZz2CKYOVlWVaY9huhBUTeGROu1hTBGcohV12FD5aQ9lWmCLkizQTUWf7lCmBaUsufPPytMcypQgqpIkc+4+VxSmN5gpQa5UvBRAy0uLD+p6BeuBogue7ECRX1SqwErr67LEqhpmQpNVndqBUHxJrlGOr1dYpEjYGlhF1splTStiJkT5BblGzME6zL0s0cggCrqiFjFk+cWoQuN/KnEqrCZ54wHHq/LLyRrf/a9EN8SylwVWVhSZnc6Qfj7ae7k/DtqwxUuSLTUrY7fIvyBVaG/t5XLv3n/oIL1cJizwskZSJUV9MaqAWfjz4D0mIvfx1b/+3RERrqFoosSrL0cVUPvz6wbq3ByZ+Xyttnf16l/UPBDS1RcTIHCI2Mp18MfRze72Tq1WrVWr3eOTwW67obwgVUCNd8DCwRHeFDv728dmtWoY3bpxurO922lMe3Q/C4SFRr5t77d7d/WSUe9i1PunZ7cvgwrMQgMdnTv7A6M3GLR7g5Nriwrj+m6/M8UB/hQ09q7QB9Pa6ZmfsKss0Y7O7u0ZZsIwjLp5NuhNbYQ/A+38XSNPRBRPqnfw2ffMfHt3cGyWNkyjal7stydfIQjo5XvHIHz7tLpLGj4NvN27V6cXn86qNdM0ax8HgbWMc3NQw8JWDUvCi69Ol3jZrV+i7Tsk9ravquaemb+6Cag+XF3VOrtV05Zu0LU7Lo36HQ4Pny7JXnvwsQY8HAXSP/RqG8fGqTPD+30aFy+N/g40NuqO1O3BVX5vL/ftQwDX4HY2NsxLZ2+/D6L3rvsG9RG7dW+y0Pkjh2n4fPNzR/gTgFVhw6za7n8fh4fGRb9/Yk3310/+o7mb15+3cp8PfvIgnx1XG9j5m0b9022PkLDb7ZdsG2jXb0cP773e29rK/RmwUHFe2x7sGHUDUua7E+O6379z+k7qXmEbvfN3udwff2y9zm0tv/35I31G9KoDkG+b8LBZ2jTcANDol5ztzs1OPm+e48535+gm93n5P4GKl1Vr5nvb1yWMzet9+8bUXX1gd5m1/BVNl97jigM1Xi1vLQfJM2zs2FsXoAibm93NWxIT2t06iRV3GzhpPLcMo5ejJdcBZiFAYeLilH42PnVLm59uu11MQx9ouOie4Oxgo1qtnTgm0tjbs/Sk8WU5QI7hziAf7dP+2W7/FjUoDcZlr27cntXr1at9T65wlPvgbL9dfhMYFs7r8LeDZx/d9WHKOaCh1O2WSka3e+ILhue5Pz17B8Fh4bKK//T6fZwjlro0SWrcboKPLJ0O/KtLvVzOx0ln+U1AvCOQsFsvYek6/Qurrf2VsPDVz0E7lxvxhe2/3gQjbRqYaL9+DeJSa8CiXfQxB4aB//lEfJd7NXpy46+/AlFQbe9c1ndAErG7CfuYAvAH9d3bPv7rqZ2Pcq/HBW5v/f2zBvqcONmon5CN/T7kjrf9Lg4Tmwa2jM6pUao6LNzk9yatPzcCkTSdmlaVdNptoMtut/+1h74aJaIbJ/UNm4Ve3hxNlBvt3sHN2y9vfv+1+UbVvCDS7fYHHVw+Xfdggclecd2vblRJbzufd/1Do3Pw9u//LL958+bL24Mg3J/odTfMOiyrnJYu+v3NfQRRou+ss3RMcwOkvLI4aB+8ffVuGWPr75teYGqoOxwFwCsMujg/IgWTWOqeuP2NqxouLk6wLTR6gyO4lZ3b+/NtcOQnMM/buGjoXpRK/Tuq2Gf9r74jdmr7N7Xz7Y95ICD36iYI+u9HD0z+0oTMyLL5Qf90JEc6Nc1ve2Yu/w0TMIUhPj92yCricanUtRS81ze8qt47P65ubJi1/NFNJxBp0QS0a7hk6JVMnB9u04Zu1+GgsX9hVE2zVjs+D+T9BhsnG1j/qxul68suraiv7eDYvvxa75pm1TzZDZYTHEMHK8JOdXCGZ3+HFA5nlIPO4LRuGEb3OLh3IF0c77TNjfY2VAgdSJpv4eZLe3Dd7xrd+llA3eAIPtS2a3fYHIjFf7pAu0ajcXndN4x66Q63CWxQXaEHDez0epgDestt8LXdvTzrdo26sU1Y4ViWe/D8QOCodiI6HOAYcYpjRJfoAIHIssF/Nuwmj8XfrlGZsRmQJcWe4Er+AkjoAAcX1B/0Lupd7Al3WZ3zWAHLBv2pqEb+HDU+whpBY3BaNeqnl3iT1WHueUv44JPw8Qj1oD7sXVRxRmDdXknoVAmoTQhBJ+HkIxpgXdg9rpq10xu7YtJ1KyiKArYJgQ32b97P33U+mrsfNvJm7ajnPiuuu08FcoIQcBJuctvm1d1VPm++LyhIke0ooHgfjcQeMsgkfMh92/v2bS9/9UGUiwLi7cdCRe/z0sBBgEnAHAAFH7Ez1IvwGKD97BOvuFJjpxBkczjIbX3by9GfJBbJA6GirJKowCp2OOATAgqyY/yQ2/qcO6IFolIskk+WPgGmUy4Qr+s0RAaVhJvc59yX/9Jt0X72CenELVC/yOuWQgQ2T3ibyx39t0znHymaZhfLCmaBhwegBF2xMqbAkvB++XUPlSX6UDSvaW5IVFRFV1kBf3gKqCCSIH5Zhl/bSBYJsqZ5FgwWVIAnPgSzimxvvQWhOYsEtqx5cyMWOPB5wiCS0LN+fylKkgafmusRcIYgy0QRvGtJieCtLKX+bYssSfDEuFIuW4rA6XKRcMBjbUg4J3DBI0GVnM0iPCfOlctEH4ABDEWguQLregU+kQjYQqtccbcVcApFeFYcM4CNQpMhKKrWKyRYxaJB0AOWK8lp76Rie1CksqYX4U0imkoCoSA7L9vB2RJkjEEjQU37ngNXMQtlAs2JB6rvDUM8q7N6sEhg00Xfvg4k4BihuskQXxx915Sg64HKleJpd1tUilJFAoPwuX616H+1jgCaEKQ0QUvbArKqFI+vSxqQ4FMOrAge3RdZRYdSMkARUkinyZQq2no6LRVxbSBXNM3OnSm8isArKqy3soF6LZ+WlhArS5gAmc6tXpE4XEV5WBA0+21bIs6X6JKzHigS0vH1OCbAucXMVdax6nNlj0XIGt0UcPZsrbqLihKg4KCn476XSqFynARDEVuERl0fq2m6lT07sy8oSoD8ooJJ8O6rcdsMijhOEqGLWBFYtVj0vmtKV4L0ZkJMQtrj5oV02e2SyHsp9bImFzXNX0crgXIJ2BzSnlfmVDxFBOI1nDnqUD5oI++p5VUlUKlSOh6POzvFuF9YpUzqB2U0JWAD9h5nLR530mbdX0RACUVKiDHVVwJGAo9VwZJdTHsyJJw7YMA7KaGa9JsDp6qBsgaoITELRCbJiROCLFUqOH3kcDGFU2SliKnw1Aps8F7CVga3gCVULN8gQAkhkZxAtBNHHtZXZNsbKgF8B5sELAhcGoIgp+I9zc6EZKnsLrcIuorzJYXlRDmILzUnuiCphIGKJydiK9JIcizyrK7IwbMGgAx+oViOjwRDSRqXFkdHNaDvKdXjoAwjsqmVsr+B01VSawf25cUaKIP3xhsSKhXfLo4RpKRmA/zuYhZ7xHS66MpdXneF1VWtbLtLtRigNaUx6FIao2wZhRK3HAKvaN5lV64YrGxxDKwGNKzD/2whxsktKB2nTThn8IREvRjA+DgCpYyNIi2pmoRVoFyxF91cvIy3N4uKBrGiIq2XJ3hAXvu1ygbB1ksOjyux8siz2Caz8P2D1HIlvr6+LhXVkfsLqoxShYUsSvwaXPDMrLU1yyBUYB45qtnogoD4Rzh4QZG1yvo6rqTKsuJQAYoQQU0UTf2TMT85eGaYIRvZIfP4swQgS2ASWH+SyUcIAhWDVoayulxUFVaBRGkVrUZmfhUSWktkoxl1SUhYvz6FmWYTvrYE2RUY3MUBE5nVyGNYIBA5ARcN8GsV0IgkyhbYxHdP+hngmRSx7gUmi0nIABER5pCJoZXmChPFDcMhg1UlcThk5pG9C0cwBfgjJCPzqDBtIf6/4Bm2FcOfsfkFTEAS/5th8MymUGQ4L/IpIKCAWWpGMRHI2k2gBMNyiGUSHCrMPMoefm3wTILFao2NPGWRMJwhHRFQilgLNteiaCmKvLss9QnYQvhkMjutsT8ZMAmouYLm11CWkgANgAi4irlV2Fxp4s6lJI4JM9auS0IgADJj8bEJWCQINglNZJOAGULcPLPi7gaQBDS3hqc9a5tDhHQQElrwB82RltVFdzeIJGTA4dkkFJhVNrVKzYFlWolEa4hQdIGNgQJE8e6hSElAzMpCMMogbgm0H+s7WgBtgKnOzDGzBVQgTjCxxgxbWNLokIlx7i47B9JnDoe/RtobIsRTQlxIZgrJCTmsgDsyqR9NbtmFbPKHT5oyCk3GQjPjbU9FF+2OmK8jgltm7rtaInponbQUea4RPznYOcZFzG3PetsZZjbpdj1Ewrz3pN9lMZW1xjskf1tOe9RuPxxaW27fAySsMb8jCWS+I7gU4hMzMVcTqDDRLMRAIUkZadqd95MAPcxaUuCFRKH125CQwYM+dKK9YJt+jAjjysC1vLpwLwkc4+uJ/CYkgE8cLwNnQBj/eiOZ46S7PZGEGZ/V/DYARRhrJBMaHWmcdw+9lwQwou8vwP5qWPBHBAsg7+xYK8RLai73kjCLO36/53kSXn/nABRhfLmo4Bz7IAmTayp2JhqLzbvZBsfz5P9azs5EIkjA8B2N963L8Pi8tVbEqVdFqyu1ujLPokzGl7/8U4C8oxVxciIz9FgytgfNYXVCu+BETjt/ihIPkyXZGHHDXmky9oFiy0lgOHdsUZQgMQ1nszOFp2ChNUHzYYCTFk9jtmu8l4QMM9EpzHhSh6b7HdkkbUIpCEWe45uWVaW8OQdNw+GUeYG2LCSTLTY59m0/DpIrzfpVeGmCdgAidsi4P08gMzQabVbJkNdaVB2oCwISCGX4yxCCRNs9XrBiDOVgLdoi+jIkfUDCCpDUnGNSyUJi5ilIIJbuV0bkfOMIsnYAvJ8Emn/6g2vKbZp34iyQsEivgjVnxad7K9Ql8XBwi5gBoYt8NZBwSC/H8yibfaJVXjpPMVcZxImxAVEvSrT2gbR5gVxtzmsSix4JQT5ys4fmoPZhzpUJZun3xxg3Tqdsf0Qt6N7q7R/Dskznwqw90FHwdsdDBRRLK083yyj4BFy0TI2Q4FaZYIF2egk8rtJhuClMy/pKMliv/3gqsEtk3EtWmJocNgGPIYGOF4/fVtQm4423tuJH/Ta36tGWKCVkxcdSyrKHpFeBnhYRqgzUyQj3aQJns/MwCVbgs9wA7zcumOZ5RCX15KScZ34tcWFmPNmDNSggYfFHxXsk+JjHJB7yCcS3f4cEOovWscSbsgkHlvBRxp9RrDn2AGJmqWdaTKRsLCxR4ZPMpBT3qZBxdWHoC1gusvbsfZcElJi1HQONPj7YJHhDUtK5ZIxOAT9+3iGyk6VnQ4IsnkCO0mTuzxMi9sb3HDRZsss+SIIvxA8tU+OtLxGmQgKN8aCi8/fIuMZYidBjSCA23aQkzPqwaPsEHwlRi3m4NnljI5jDnA9AUtLyKc+GiOX4kpM9Iwxr6Bz4XRIIp9TMJmQ00dFmcBbgSmctm+cmS/vsJICUc7DBTBz4CmN7/EeRQAxigcS2CaMeIwEy7kUaCmm7PRg/np0EsMtZe4RjcYh4KurAH0dCi5AwEiJtjJMAqUIK2q2jJ1cwz06CkyAQpzQaiJqOIvyAJgi0phpXq3ESeOLyGCdDmp/oAp+DBM67dhJxvpYkT/7FwqZHO+4lwZvKCdQnkIPH05txEiA2HhYYZ1UGnMR4bvgcJCSYNYcGSAPsBJcEuKabsCUXvUMCuSb+Wmt2zvX4S/Zw4Uw32+dbJD2YQAJ8/9CjgZC/DV2DWCEXew4SIIudi6Q4jsv6FtUpC0wsk+D5RHKe5sFOchMZCeCOiNi1L66kOCQKq0PHhZAKkN7A4jIx6zITSED09p3TKpL9FZgJLtmylPS5SPDAUze1mFG4Y36IBC8szaHJKLO0NOtyOYkEkmx7LMcqSGet856NhIRv0L6rp5Z8fS3P6tPjSFhyVJn1Xor8KmQiCSSz8N3EjXrOo7r0LNFBmIlZXzKcHw1IqXn7rvTSqm8BLrMW88FZSeIKMfvOpf8Gd9K68T27YmnHaiy2Nub15nGjf9k5YdEwO285q1SsFXv6JRUMNpvJZCf/CIvPRsdU5DsQsoWZzITfd6aS2dQ/uSfBZv/ZeU+K7JiSvkSkQhaQ5d0n3VN5UYiELCAraXjxLDRDvwD5LkbhN/nhSYgQIUKECBEiRIgQIUKECBEiRIgQIZ4S/wdrgPSEkj4WCwAAAABJRU5ErkJggg==;" parent="1" vertex="1">
          <mxGeometry x="-527.63" y="400" width="187.63" height="140" as="geometry" />
        </mxCell>
        <mxCell id="L7Ud86Rvqq-_p02ORbhh-10" value="" style="shape=image;verticalLabelPosition=bottom;labelBackgroundColor=default;verticalAlign=top;aspect=fixed;imageAspect=0;image=data:image/png,iVBORw0KGgoAAAANSUhEUgAAASwAAACoCAMAAABt9SM9AAAAe1BMVEX///8AAAAQEBB9fX3r6+u6urqnp6eNjY2AgICRkZEpKSmzs7Pb29stLS3z8/Pw8PDh4eH5+fllZWWdnZ3Q0NBfX1/Jycne3t5qamozMzOHh4e2traqqqpBQUFSUlK/v786OjpycnIiIiKfn59MTEwaGhoVFRVNTU1FRUX9/bFcAAAJ60lEQVR4nO1d63qiMBBtKmqtrJdqqba2im67ff8nXAFDbpNAIDgker7+KUJMjmEymVseHu644yawjOJ1csY6jpbYfekxov1ksyUCtpvJPsLuV+8Q7TZEi83uTliJxeRZz1SB58kCu5e9wO5PFVMF/uywe4qNaFCPqQJPt/w6RgZBBWNzq3TNUluqMqQz7H5jYNWEqgwr7J5fHfF3U64I+Y6xe39dPDWnKsMTdv+viOjYjitCjjcj6IdtqcowxB7FdTB2wRUhY+xxXAOvbrgi5BV7JN3j0xVXhHxij6VrbKs5qI8t9mi6hVOuAmfr4JYrQg7YI+oOX665IuQLe0xdwcocUxcD7FF1g2kXXBEyxR5XF3jrhitC3rBH1gHkMQ6Ho4H9HjEdDff/pGvYI3MP2ShaGA6ik42pZlxMokS6vMEcVxeQB0jW5Sd1dXomnORPEpQhdQdl6Nxn6zr+HV6OK9vLa4+mWyhag6gflQvl9uX9NN0n63Wy/xhN0nLSiSaGkdxaUPrDQpkosoFlQ7bvQ8CROk9WX2QrfaC80yQkF+xfZXSKx9QmCiRSmvvrsLPIWCuDI/s27S3V9tbVT3kCYP/cbgFT2zs46WgPAEws52QFM7UgY0Mrf8MMaDAQ84Mqjs84tWkR3GaG4Rx7h4aWtmkR9KW9u+ovKqCRkZ82LcL+bFf9xcQeHFkrwwrcYittpCfQxGC1ETGwKT8E4wPMVauVHlBKw3gP1X1chkm7RiHNLQRLDbgWHtu2Cvo+/F8Pwajt9nMAavXZQXdRAYqXQ/t2wSBL3/NXQJHlYJEHfwTfhRY4A1w0/AK063toLqRltdrqUEBbHt81LUi+O4lwhCwPvkt46C10Yx+AHI5OGkbDHCLLTdOQ0Jq7aRoJcXcvCxTH63c2AaQ5OPLEnICm/dYdoDXLUZTxDmja7+B4aEQdkuV3/qbiaCfOXAtQ0yM3TSMBUuB/u2vabxUeksKOVkPI9tPKZ4QO6F1xpGelwb2GYNCtm6bVYBPfg3FBD5+b+CCoZb9Vh67MWUEatEBHu5NMQdBn4XeUN2RIcZP6BloVPS9jAA3Jia38F2rYQbuYAHPmPtq3C07ZQ/t2UZFCg3Kw4QEVOCf2akSAg3JgKwUTWfzWSXWO9tZx63BojvehkuCoWk8tuDqZkw5jAs7MaSm14Jfb/2z8CTy1Wu3iwCjV1qE5PQAstNptEDVpin67K3JoyGrhtoLsDRkcdhoL2jTypkJex1UIqWG697ChjWCuLdPpveKQQUtWk5ph+hT+R/c9R4CpuJ/lLjE2lBzx21lBwe15j5PdSJRhPxauvkQnrXJ4bp6hYDFahb4gvUqbfR2TzRqM5GXwfRNNwZJ+X4oLS1mt/xzvDXpXlKX+ViGYxF+WLf91mUTg4EFz8/CxkqcM4ZRp4/PJLw4YwCioKYZVr6RwMBNLHHAh0YEoN52SWoerUCRWBsEIXCiPShCMdrx1qiMFshQWEHStQm7J5Xf02+BqrsLQsUrwhoIX9ZJRAa+UWr5HKcsQvK3Fi7gUhLxB6lS+h377VgHwRkC67vExtAZrIBTFy8N/o58CfltH7Q2zVaGebqYmJV5jGKU4dN/3q4NfEXkT/KzSCqhJXKUIaiWk4A1bdjqkkasgzFgqOJ+MXelaE1e+O1a14OoxWCVwGbgK+MwBTmOy8RzqufI9ac4IvlpffbOflqtwbA0ghFyudLgoVIZoPTKtiTfKlSYGiZjXR80jIZkaNND48+3JuolDLODDUazJchA+6AMWkKXYQBaowQe3edYCSNk1DB4gK3jRzuOjHVl+5xVaYynXRzaQJUcmf/mdN94EyY/AgCG4SiIrhAps9tg1ISswc7sFuNxNg6VldqeqwJTWgq+x3XkM1hxTG3EeVmOsqpYbwjZ+58c5QzKtiJ19m96mVL/jjjvuuMM7xB+r96czxqtpEkZx9o4wP8k5y/9WAQXjucQCKilHyMEy82j0/VzgUXhwebn6fKxnxVoe7e6/LrRB16yz09ft31VVBDeLkBcqf3BxIbW6Y3v/NbHUn/Q1km6pCEuoJKtexont/VcEWDPgAvo2lXSa5X74ZIkmPBGXW5jdyixEgifLdDg7DWfgMgToY/PoAj64KnSyYB/gBdRSx3m+qDqh0vcQPlkKQY/bw5YW8qXynFsBIvk5fjyBkyVG/n/u6MRZvn2kbNJwSXP00i2SxUv3H1kxKJc+lrpT2oVvkCw+StRUUJNOQBbAdoNkcWGP38Ybk1zGc/HqN0gWt8xVbQPjvfCW3h5Z3CbMdst6e2RxdZnMu745RXmlfPBnmX+Q77E1ZM0tBy+QtZymeYrQ9wa5hikXw2e8j4XMFFIrHqkmnex6vZnF8qvL5ZYl6CXC/cdI+CLUYsKsJ+YIa5YsMD7/1HBueDa1GFmCl5Bt1XOyWMWQUk6yXy0LB9Sn+mAeoMxS4Mx+dYEs9fxtgKz0tFoVf6vTiVGRk8X2A9ZkYVbYYp0we9btydKgNVmIQbusD6W5fTIW8J4L/h6RhXbMLWf2o4YWJac+L9PUJ7Kw6kYBtm6FrDwPqU9kYZnlF2oPekfW7yiOojWvQCAFLjUj6yE+gz36uIjzC9l9DsjKNE9G1pbKUq5SAlJCdUOycojjv8A5WUz9Yy5gpGPfuemuFfC4ZL2UTQ/FNq4PbjWk090VWa950MQFA/HmRmRxfe2SEgNYB+g+WnEiNiRL2O5IG+lGZHF9RTq4lXWgTA+JkzPWrPMNyTJtpJuRxapKIKmlbP8vqXpMQvSGLFYuEImstOyAZFRmNpnekMVsHUhkcXUaxFisHpLFZhZSlhTn3BFj/ntIFpNZWCdzM7LELvSQLObhdEmADbioEMFj0UOyWE9dEmADPiyE33NZkPXDPdYhWewanrGUI4uvsmChOthH0TCySgNCNVns58MrBiHWaBjHl/ofrOJaNVmcd7YeWUxUl6sK+z4dWcxdgOjiIRXQkcWKI34zraMeWZygLHZZMWeuEskim8s+LJWfQUFV7UIdWXzA4J9N+rrN7Bb1yOICLMhhMBBDDyWyzvhKxVuuyY4MU5ikgSylRnyWfF+PLOPvo5IlAbd+jT6w20SWYlzOXsZ6ZJnCo6vJwj1BxRAGbyBLOXGvPlnGyVxFFpKdlMHUeS1Z8tSyIMtERhVZ+OUz9CHLRbwyRJb8kAVZ0PcdflWy3tUDL3pReXIEpQ58U5WGkcXvt8UjZjIBn5b/CeWeVP+kfCzucUjXSJ6svXKkWF+OfIon4lELvyvWsxm1qA9ES86O/fSvmTqbDOh9os2pNMaz+JMTJykH2XyJ03RwRv5g8XWDrMkPJiOe+1UVYpFMT6vJ5LRL6qYaLuP9dNcslXOWfdlqtK989m0/Op27hC+t7rhDh/9+G3dkj6wn6AAAAABJRU5ErkJggg==;" parent="1" vertex="1">
          <mxGeometry x="-629.9999999999999" y="-72" width="253.57" height="142" as="geometry" />
        </mxCell>
        <mxCell id="tq6VCXM_rrinsjRzfWgI-2" style="rounded=0;orthogonalLoop=1;jettySize=auto;html=1;strokeColor=default;endArrow=none;endFill=0;" parent="1" source="tq6VCXM_rrinsjRzfWgI-4" target="tq6VCXM_rrinsjRzfWgI-5" edge="1">
          <mxGeometry relative="1" as="geometry" />
        </mxCell>
        <mxCell id="tq6VCXM_rrinsjRzfWgI-3" style="rounded=0;orthogonalLoop=1;jettySize=auto;html=1;endArrow=none;endFill=0;fontColor=#61af4b;strokeColor=#61CC33;" parent="1" source="tq6VCXM_rrinsjRzfWgI-4" target="tq6VCXM_rrinsjRzfWgI-28" edge="1">
          <mxGeometry relative="1" as="geometry" />
        </mxCell>
        <mxCell id="tq6VCXM_rrinsjRzfWgI-4" value="orquestador/api-gateway" style="shape=module;align=left;spacingLeft=20;align=center;verticalAlign=top;whiteSpace=wrap;html=1;" parent="1" vertex="1">
          <mxGeometry x="200" y="625" width="140" height="50" as="geometry" />
        </mxCell>
        <mxCell id="tq6VCXM_rrinsjRzfWgI-5" value="app-sistema-cayetano" style="shape=module;align=left;spacingLeft=20;align=center;verticalAlign=top;whiteSpace=wrap;html=1;" parent="1" vertex="1">
          <mxGeometry x="440" y="625" width="140" height="50" as="geometry" />
        </mxCell>
        <mxCell id="tq6VCXM_rrinsjRzfWgI-7" value="ms-persona" style="shape=module;align=left;spacingLeft=20;align=center;verticalAlign=top;whiteSpace=wrap;html=1;" parent="1" vertex="1">
          <mxGeometry x="-80" y="260" width="140" height="50" as="geometry" />
        </mxCell>
        <mxCell id="tq6VCXM_rrinsjRzfWgI-9" value="ms-recursos-externos" style="shape=module;align=left;spacingLeft=20;align=center;verticalAlign=top;whiteSpace=wrap;html=1;" parent="1" vertex="1">
          <mxGeometry x="-95" y="780" width="170" height="50" as="geometry" />
        </mxCell>
        <mxCell id="tq6VCXM_rrinsjRzfWgI-11" value="ms-catalogo" style="shape=module;align=left;spacingLeft=20;align=center;verticalAlign=top;whiteSpace=wrap;html=1;" parent="1" vertex="1">
          <mxGeometry x="-80" y="340" width="140" height="50" as="geometry" />
        </mxCell>
        <mxCell id="tq6VCXM_rrinsjRzfWgI-13" value="ms-caja" style="shape=module;align=left;spacingLeft=20;align=center;verticalAlign=top;whiteSpace=wrap;html=1;" parent="1" vertex="1">
          <mxGeometry x="-80" y="410" width="140" height="50" as="geometry" />
        </mxCell>
        <mxCell id="tq6VCXM_rrinsjRzfWgI-17" value="" style="endArrow=none;dashed=1;html=1;rounded=0;" parent="1" edge="1">
          <mxGeometry width="50" height="50" relative="1" as="geometry">
            <mxPoint x="390" y="1050" as="sourcePoint" />
            <mxPoint x="390" y="120" as="targetPoint" />
          </mxGeometry>
        </mxCell>
        <mxCell id="tq6VCXM_rrinsjRzfWgI-18" value="FRONTEND" style="text;strokeColor=none;align=center;fillColor=none;html=1;verticalAlign=middle;whiteSpace=wrap;rounded=0;fontStyle=5;fontSize=20;" parent="1" vertex="1">
          <mxGeometry x="413" y="130" width="130" height="30" as="geometry" />
        </mxCell>
        <mxCell id="tq6VCXM_rrinsjRzfWgI-19" value="BACKEND" style="text;strokeColor=none;align=center;fillColor=none;html=1;verticalAlign=middle;whiteSpace=wrap;rounded=0;fontStyle=5;fontSize=20;" parent="1" vertex="1">
          <mxGeometry x="250" y="124" width="130" height="30" as="geometry" />
        </mxCell>
        <mxCell id="tq6VCXM_rrinsjRzfWgI-32" style="edgeStyle=orthogonalEdgeStyle;rounded=0;orthogonalLoop=1;jettySize=auto;html=1;entryX=1;entryY=0.5;entryDx=0;entryDy=0;strokeColor=default;endArrow=none;endFill=0;" parent="1" source="tq6VCXM_rrinsjRzfWgI-25" target="tq6VCXM_rrinsjRzfWgI-31" edge="1">
          <mxGeometry relative="1" as="geometry" />
        </mxCell>
        <mxCell id="tq6VCXM_rrinsjRzfWgI-38" style="edgeStyle=orthogonalEdgeStyle;rounded=0;orthogonalLoop=1;jettySize=auto;html=1;endArrow=none;endFill=0;entryX=0.1;entryY=0.5;entryDx=0;entryDy=0;entryPerimeter=0;" parent="1" source="tq6VCXM_rrinsjRzfWgI-25" target="tq6VCXM_rrinsjRzfWgI-37" edge="1">
          <mxGeometry relative="1" as="geometry">
            <Array as="points">
              <mxPoint x="-150" y="650" />
            </Array>
          </mxGeometry>
        </mxCell>
        <mxCell id="tq6VCXM_rrinsjRzfWgI-41" style="edgeStyle=orthogonalEdgeStyle;rounded=0;orthogonalLoop=1;jettySize=auto;html=1;endArrow=none;endFill=0;" parent="1" source="tq6VCXM_rrinsjRzfWgI-25" target="tq6VCXM_rrinsjRzfWgI-28" edge="1">
          <mxGeometry relative="1" as="geometry" />
        </mxCell>
        <mxCell id="tq6VCXM_rrinsjRzfWgI-25" value="ms-config-server" style="shape=module;align=left;spacingLeft=20;align=center;verticalAlign=top;whiteSpace=wrap;html=1;" parent="1" vertex="1">
          <mxGeometry x="-220" y="170" width="140" height="50" as="geometry" />
        </mxCell>
        <mxCell id="tq6VCXM_rrinsjRzfWgI-28" value="ms-seguridad" style="shape=module;align=left;spacingLeft=20;align=center;verticalAlign=top;whiteSpace=wrap;html=1;" parent="1" vertex="1">
          <mxGeometry x="200" y="260" width="140" height="50" as="geometry" />
        </mxCell>
        <mxCell id="tq6VCXM_rrinsjRzfWgI-29" style="rounded=0;orthogonalLoop=1;jettySize=auto;html=1;entryX=1;entryY=0.5;entryDx=0;entryDy=0;" parent="1" source="tq6VCXM_rrinsjRzfWgI-30" target="tq6VCXM_rrinsjRzfWgI-5" edge="1">
          <mxGeometry relative="1" as="geometry" />
        </mxCell>
        <mxCell id="tq6VCXM_rrinsjRzfWgI-30" value="" style="sketch=0;outlineConnect=0;fontColor=#232F3E;gradientColor=none;fillColor=#232F3D;strokeColor=none;dashed=0;verticalLabelPosition=bottom;verticalAlign=top;align=center;html=1;fontSize=12;fontStyle=0;aspect=fixed;pointerEvents=1;shape=mxgraph.aws4.users;" parent="1" vertex="1">
          <mxGeometry x="640" y="618" width="64" height="64" as="geometry" />
        </mxCell>
        <mxCell id="tq6VCXM_rrinsjRzfWgI-31" value="config-properties" style="shape=module;align=left;spacingLeft=20;align=center;verticalAlign=top;whiteSpace=wrap;html=1;" parent="1" vertex="1">
          <mxGeometry x="-413" y="170" width="140" height="50" as="geometry" />
        </mxCell>
        <mxCell id="tq6VCXM_rrinsjRzfWgI-26" value="" style="verticalLabelPosition=bottom;html=1;verticalAlign=top;align=center;strokeColor=none;fillColor=#00BEF2;shape=mxgraph.azure.git_repository;" parent="1" vertex="1">
          <mxGeometry x="-340" y="200" width="60" height="60" as="geometry" />
        </mxCell>
        <mxCell id="tq6VCXM_rrinsjRzfWgI-27" value="" style="image;html=1;image=img/lib/clip_art/general/Full_Folder_128x128.png" parent="1" vertex="1">
          <mxGeometry x="-300" y="200" width="50" height="40" as="geometry" />
        </mxCell>
        <mxCell id="tq6VCXM_rrinsjRzfWgI-33" value="ms-cama" style="shape=module;align=left;spacingLeft=20;align=center;verticalAlign=top;whiteSpace=wrap;html=1;" parent="1" vertex="1">
          <mxGeometry x="-80" y="490" width="140" height="50" as="geometry" />
        </mxCell>
        <mxCell id="tq6VCXM_rrinsjRzfWgI-34" value="ms-consulta" style="shape=module;align=left;spacingLeft=20;align=center;verticalAlign=top;whiteSpace=wrap;html=1;" parent="1" vertex="1">
          <mxGeometry x="-80" y="570" width="140" height="50" as="geometry" />
        </mxCell>
        <mxCell id="tq6VCXM_rrinsjRzfWgI-35" value="ms-formato" style="shape=module;align=left;spacingLeft=20;align=center;verticalAlign=top;whiteSpace=wrap;html=1;" parent="1" vertex="1">
          <mxGeometry x="-80" y="640" width="140" height="50" as="geometry" />
        </mxCell>
        <mxCell id="tq6VCXM_rrinsjRzfWgI-36" value="ms-resultado" style="shape=module;align=left;spacingLeft=20;align=center;verticalAlign=top;whiteSpace=wrap;html=1;" parent="1" vertex="1">
          <mxGeometry x="-80" y="710" width="140" height="50" as="geometry" />
        </mxCell>
        <mxCell id="tq6VCXM_rrinsjRzfWgI-37" value="" style="shape=curlyBracket;whiteSpace=wrap;html=1;rounded=1;labelPosition=left;verticalLabelPosition=middle;align=right;verticalAlign=middle;" parent="1" vertex="1">
          <mxGeometry x="-140" y="250" width="20" height="800" as="geometry" />
        </mxCell>
        <mxCell id="tq6VCXM_rrinsjRzfWgI-39" value="" style="shape=curlyBracket;whiteSpace=wrap;html=1;rounded=1;flipH=1;labelPosition=right;verticalLabelPosition=middle;align=left;verticalAlign=middle;" parent="1" vertex="1">
          <mxGeometry x="120" y="250" width="20" height="800" as="geometry" />
        </mxCell>
        <mxCell id="tq6VCXM_rrinsjRzfWgI-40" style="edgeStyle=orthogonalEdgeStyle;rounded=0;orthogonalLoop=1;jettySize=auto;html=1;entryX=0.1;entryY=0.5;entryDx=0;entryDy=0;entryPerimeter=0;endArrow=none;endFill=0;" parent="1" source="tq6VCXM_rrinsjRzfWgI-4" target="tq6VCXM_rrinsjRzfWgI-39" edge="1">
          <mxGeometry relative="1" as="geometry" />
        </mxCell>
        <mxCell id="tq6VCXM_rrinsjRzfWgI-42" value="DB-ASIS" style="image;html=1;image=img/lib/clip_art/computers/Database_128x128.png" parent="1" vertex="1">
          <mxGeometry x="-300" y="340" width="80" height="80" as="geometry" />
        </mxCell>
        <mxCell id="tq6VCXM_rrinsjRzfWgI-43" value="DB-GENE" style="image;html=1;image=img/lib/clip_art/computers/Database_128x128.png" parent="1" vertex="1">
          <mxGeometry x="-300" y="450" width="80" height="80" as="geometry" />
        </mxCell>
        <mxCell id="tq6VCXM_rrinsjRzfWgI-44" value="DB-HCE" style="image;html=1;image=img/lib/clip_art/computers/Database_128x128.png" parent="1" vertex="1">
          <mxGeometry x="-300" y="560" width="80" height="80" as="geometry" />
        </mxCell>
        <mxCell id="tq6VCXM_rrinsjRzfWgI-45" value="DB-PERS" style="image;html=1;image=img/lib/clip_art/computers/Database_128x128.png" parent="1" vertex="1">
          <mxGeometry x="-300" y="680" width="80" height="80" as="geometry" />
        </mxCell>
        <mxCell id="tq6VCXM_rrinsjRzfWgI-46" value="ms-laboratorio" style="shape=module;align=left;spacingLeft=20;align=center;verticalAlign=top;whiteSpace=wrap;html=1;" parent="1" vertex="1">
          <mxGeometry x="-80" y="920" width="140" height="50" as="geometry" />
        </mxCell>
        <mxCell id="tq6VCXM_rrinsjRzfWgI-47" value="ms-articulo" style="shape=module;align=left;spacingLeft=20;align=center;verticalAlign=top;whiteSpace=wrap;html=1;" parent="1" vertex="1">
          <mxGeometry x="-80" y="850" width="140" height="50" as="geometry" />
        </mxCell>
        <mxCell id="0jMi2Kqm5FrslkWrvohB-1" value="ms-rx" style="shape=module;align=left;spacingLeft=20;align=center;verticalAlign=top;whiteSpace=wrap;html=1;" parent="1" vertex="1">
          <mxGeometry x="-80" y="990" width="140" height="50" as="geometry" />
        </mxCell>
        <mxCell id="L7Ud86Rvqq-_p02ORbhh-1" value="" style="shape=image;verticalLabelPosition=bottom;labelBackgroundColor=default;verticalAlign=top;aspect=fixed;imageAspect=0;image=data:image/png,iVBORw0KGgoAAAANSUhEUgAAAYAAAACDCAMAAACz+jyXAAABC1BMVEX///+jJCLcOCxJTE2sJySgIyF0ERM4PD1GSUo+QULfOSza2trz8/OvsLA0ODrq6upVWFnBwsLUpKOfDgqdAADWNivbMiXaIxDFMChBREXXNivbLyG6LCbQNCrbLB3LMim8LSbaHACwKCTaIAv98/JvcXKiHx365uV8fn/vr6zi4+NQU1SkpaWhGhegExDeQjftpaHkbmf1z83Nzs5iZGWKjIyYmZriYFjxu7jrmpb43NvgUUjme3Woqqq5urriwsK6aGfzwr/oiYTsn5vjamPgV06IGRjohoCxT07Nlpbp0dHld3HfUkpoCxB5ExSUHhu0WFe/d3anNTTHhoXasrHCfXzRn57jxsWoMjDqOWVXAAATiklEQVR4nO1da2PaNhfmEmobjIGF4DikJCTcAjRJwyX3rKHpm3Ztt3bN1v7/X/LKBtuydI4kE9ouhfNpo5bAzyOdu5REYmFycXb+/vT05eT4ZHFzrkRRGmdXtf1atUKkWrPrdweNn/2LlkkaZy9tu5pNhVKp1V/e/uyftSxyclW1KylOKnZlcvGzf9uvL+3zo/3I2qckW92/XKmi7ymNs1O7hqDvqyL7/cokfyc5ua9BqoeVqn30uv2zf+uvJ43jI7sagFwTEpGt7Z+uLPJC5fZlnVY9lePTfUYVVWrVyP/atfPVNliQtM9TjOqp3pMPK+GHRPNfHpxHGCDboH569rN/+q8gZ6d13u7uu/7m7Z1nkQn6b47Jar/k1FLFrq4c08fJxX0FtLuVO++fXZ90//TA0zUn+5A1qO6/WTmm80rj4BJ1+eu+r3nia/r3VfhJYhzuV47pHHLyvibwdSqXzOMNaAP428BexWcxpf16y0ZWtAdprZ5ifJzzGv74Kj6LKbd3gN0NpWpXzjnbCpnqKAd29vVT3wa5wYD5oJRb+Je0J8J4lzj4V+Badp1VzGIE++buKcdng7SlaVY//ODG0YjkF/oloNNJwV8VJZ2RNGmEvsqTjc+uLT1NROv4H4wt9//T1nhhX3FxLwGwcidR5I2zO0m26MnGZ4Mp3ISBPPOBdbOQLxA5ndQK3q8dfbi7Oj84u71ocCq90WifTKT5uqdZOGjqM7z19PSDYfBBcQHTi53O6Bp2i5C1mr1v2+ez0e2Ts+PJyzdHhB+R8xROUbWfXHxmpH3Rut4HVvhB4ZFzRzOd6pK1p/r8om7X3PIwsH+yqZ3tLLSviDF/UvGZSRHgeT7mwgi4vWMzmx5y3jL3hECLMDDLSNwj7GWzz3fX1j4+az0HOajaR8dPZht8LwLa57zTma3WbPvo5eT18cHZ2dnB68n7y5oNu5j7rk+EBMHZ1Obe2tra3rNnzz7+bxfeBk+nlC8iwJqbAMjprNqp+zPORrZvJ0dANTKbIv92DATBZPFvr3niEkAowLZBxa4+CceUI+DxNuBiAjidNYFmvjhPcRTUiB0+4nnZ8hY/RYC3DbZTEAfEMX3z33dMeQKaj/KCGgdv6rxSqdgTsVI+rrKU1dsnNgNoyl/8UQLcbZDZQbbB0X9dE/EE5ILAIH4c0J5UIaezciR1zxsfGINbefk+MhO9+FkCBNugUp/EB+VHCk9A4oYNjZVlAlvUbEVFGbOFL9pFcp3ONUaiBLgCb4P6f9spBQhIDIaWphl94ThAGltI5rh2oDKc1Tj04t9l0QcJePbxz02egdpx3Bf5oQIRkEgUct34U91hMZet5o3UMQK2kwD+PAGeQwTQ/1v8V/mBAhMwl2D4pWwlJdBGS1/ZDYUdgIQE2Y31pSFgF8u4VU5VhmNhrwdjamdPRMDHP8HFTwZuZpaHAGIDEfxq9/LRx6gJQLYBRcBfmykY/udrmeTyEJDMbMM4EAZOJX5o470E/xS3Dfb8xb+3AX9r9vleJplcJgKSmSSyFElEdCWgoD2pqSVN6W2wJ1z8PvzLRYCIgqp9eX4ChcMXx29sYedDFNdgG+x9JIt/C0E/u7M2hf/7EWDmSjd5IqWcqT6okCvlr6/JmCDLAxNgdtE0ULeU7/fzJcBNnb5vJrmLoFKp2bUPk4OTi7bHQ6N9cXJwflqxxQUbN3vNoLux6THw1yaYfvDSpUkf/hgE5MbDXjNSCc/lR8Oenu6UuGcH46KhGVPRjOJ4wD0BSGmU9gdpRm80HQMR0G0ampbmvzVh5puOO4NDZnCaNwzz/htnMttwgnIKp01JrQYVW2YwVmrus0dXr7msKFng25tg5iHlhW2ZEH51AjqWo+u61vOXXndEYCIfpcmHw8irmn1dc/R0KLqj6deS6bsjLTKIjHH6JkhAyUtF6FxRPtexDHoGw+pEiA/fOZNZwzSRgmQ9lmqpU7JbvBDuDbBFMPRd1U/Dr0zAWJu9lj592aHlhO/q9OgnrRAzCg1NREGhQ08XTOtizBHQDYryEXgLTUtnJ9C1IvVM5LVxTSSFPnV5dXx7EZqL13IHyR+fIqo/Cr8qAabmv5SXgxkxL2sE6A7SAPzTZ4qoEe1rAPzemPQg/KIZAR3/WX1ITZGHpyC7M/hW5sVFmghEfr92dOcvekou0BQFO8nWbpJFX5mAUgCr3kt0e+zL6s3Zc2N+GVJgwL1UhSHGmbtzwv/mCjJGqPk6GjB4OoPVMUECVDWRC33qTXTR03Kk1lSR3djmFn8MAvIhEHrO4Pd6UYbDFEKolyrn4JxFR+M14SZOIdFkzgAmwNNE20iYFMj5Geid+iJuzvXRzwK6Z14CiBng3nGmDYQ4eJCNuJkHgj2jSsBI/L361FrA75/J7MHVKh+7D8Jk9QXenR5OEXE7WSk/xCUAEMdb2k1Ek9MgsgwMLOmYYCxGgHSOqeeAQkAMskATkfDgHo+S5QoI1T0+AUodKhICPCg67DO643DqhdFCXbHOig7FCOhJ95DmBg0tHASJQa7WPyDV84lEAYl0jyet8u8q+IsJ0C33/cYRLF0/vjkaj4ZGNCaIOo9mWlX/CAgoRUnUHTcUA7y0Vy8EQEgMMnL6FDwfRsEv1D2urH/7Qwl/lADyttrU2Y7oAeK89P1kQG6c1mg4NCpq6zBKi4QLZNeQCA/iBSOgST/saMNxPn89SkfcUo+ARkvEgKeJBAbZbfLnCjdbIgVEdI8E/hflL2rwYwQ4WnF8M/CQNun3dfRow0KpSA13muHnzNrVmvmuaZqF3PVQ4ynACKCZ1zo+74MORYGnghKNT2WBGkpODbJoG+wzLYX3uAICQl7u21qf1TuzIAIcYxSGViOKAKPD5d/6FKBaoISiCkhrUhm0HO/RIgTkwgd1g04QdTvBl/q77iEpocBNlwoi5EqtRqWtb9EQjOieNTH6hOzdqxgNojwBJMChMpK0MYW9/XTAUNBQ1Y9Myrb5lFgDjhBwE87iMLH2YLrzdCuMAB/+ljDgbgOhQd73DXIDvb1mAwx5o19C4o+KrX6zBEeA7kQyMdQGMOCTK+YweMTfAhEDYHGJigLj3SAEhD9N5zuFrh1Ls3r0vjiTrk25Qa5OXN3xEizSKOieMBGl3hnHEuBEE6AFahU2sTnCkxVNfk4LyFgzPpKcgCE/RyI3oJhtnFdtFYQkuTr3VpSTM/CEfFaBX5reSl2hHs0TwKJ8TeUs0fpLaKenyBUpeOE2w25UR8EElGjyxcWf81lPtNw/kUbIFahKhqTbmGkZBafWGRclgFvlweJOG4LDi4HT43mFXcp7cZA2w4ibJDfCbgIbp6BxFGKmYCVlBpmHX0X38Kkntc64CAF6j3nLQoiBIZrF58nTQde0a4rBRvv4mBsacZccq1NCJovqbBKjKmgi5ZS1NORNYgVptc64CAFcdTzUAo7w7GjwnJtIprDF+zzp5Y0RMIpGc45h9ZqjG774wIMm91ZcgywKDfyZVNxOUKWpdsbRBDhcSnMcQOCMSwK58Z9zsaQ0kIHrjSFbkOEJyHG5ON0N0NPsVgAaY8ESFb9wJcUzJdUPp72zm3Oko/mDKdRidgyRBIiX6MhBRx2niJePJuPYhIb/UzRnRO8DsDPOPVKkoIkEoYEs2ymgMEZnHF2Q4Q1mMUZKbYpNPzGg7IbAcFM8oQSYaDrU0YZhDIB1xslTZknPdwQpkMOPKrHsRozOOIoAg+8HiYu/q8W4pY2IwzwGFWQKeFFN14JStGcFYRSVDDJvQrMuhjL4kZJbMDQ2AcDROFkhjCegHwkdRIftQiMgKEkWdLwWpFvXPgGCzjgFPT4FMxidVTAgqO4JGhPnIMDh/tGMTYA2oBNBqBPqSlOFgITZFFR2Zh1EYkymnozUlq7tPp82/Wxsyhc/pnsiPlNcAqCzifJSJEuAmehT2aPHE0B+oYMvg2kyLrKQQQqIQVbYBhn3QExSzhUSQrB7bREEyGuCDP5kSVIEPF4Fef/Q18E6jsdANxHtjMPy/tkthQhZQfB9xmVBFkEA5awTH1wmjjVKRK2KqHVUxQj7FOSHcC1tmqZjEUIoUDHIMviRbCo49yII6FBvXZTJcOqcUzk0Q9C1qOKG0o9fNw2LrQinpyUxFiU0zaASIQvQx4IGJFxeBAGhOgEzwqDkFheIMdIt9TsO06no/moAKsS5V4uQEfiVdc8CCaCCKkv1NAAFpMgIKKQiQMmNoj3CxAqAeKG6WiVC5qdDdQ+eKV0EAaYwTEOEqrbgKTyVZBwmkZZfEm1jSxZLMyhFyCoziVN1iyCA8hXVb9Cgk5golCrpaFTMMZVAGQk647AKZByDLAh5xRalrNQaISGA1tSqV2gM6EIKYgVuFAoyIhnTxkmEXpKOcePAF0wgCHkX2xkHEkDHwprqLQK0mdTAioBSSZLQ1OwVR+C3UiQXE58knXFYaCCPkFHVLy0TrCdjd8bBOobSJ3pa8R6lMc0AdAelWlE+MdS84ALaedTOLCYah9LOONQgi5YxoU4p5OVlrs44mAC6L0jX4T1QGnVGtIkuRAopPIBmUaktxe/JBi5yLYQTuK5u421ZiIfIIKNgukPm0T1EWq/UO7NkBERMqg65Qt205uiONkTG8J3rA/YcAkxAWA8zikxETTcWTct4D4frYkwE6VLIJ8qg8KuUKDdSgr73uASYkWykxjUnXs/aBB2KASaLaqSpTVDocN2hMAFUTkmnyy/EB6JnMGZz/9aauxDP1d3ROqNSd4o7tFqX3ZGgTEAizzQn0NVAMx8e3aM7sPJMc65hjEq5glnI5ZvAqUmYgMg20g2r2S8NcrnBNTPDLEA8uKzInXuBQXZ9opkk4YSeSgRHWZtKXem2KAUC2PMxjuZ0xjeD3KDUb9LndyNBF3emxu12t6w47enXTBbaa5jX2Bmm2Y4D98Y4lQYSkUHe2Nnc3d3dfA7fhKiQw2B8prrSHlAggD9sMcWCSY1FCFjAAY0C1xMBidd5emrP3lst748W4rOugP+gontYnyluYxYe6nbRdHwExlL8MSICEiOFU06Ga4KvajRUaoX4OOfpVdojXPvCDIvbmCXINQyAUxWs6L3omJzCGDEBsrOxwW+OvrliIZ4HDEFfYTpIr2VTC8kFKTPgcFGaOgNoJJyXTKHr3oNcY5Zajy4SZjEwKridkGXP7iwmGRegKTl0bQz5bHU3LSwpUw2MJYSARK5oQEP9ccXpcxneZ1QpxEtOsXqzzNEU7Q3c2ovfmCUuuZhDgT7gLziZCu/yh0OMMByeufJgMq4PXfYx+1I/wEtmoOZEpdMCws64rTk74whv7kA1AsK8vLj9Fr01I3pvBiMlHV7ButY0ww712cmDgBH/T2p4YoL3rZAZekHc4VpVSKOrtQShCZ85O+OCbaN4XU3w2vxRIkbMsQG4No5WFJVqrnV+Fzja0AWvOAPWP3pWCu6OjmZQuyOH/V5H61HBtYcGuJTde8bm6YxTakyEvzEcqEhAbnalA3gCj6Xgukh7/7p7aLsjuzTrpjm9/ykYos9iabPo4qpbQUvqzO/k7442b9wLs5xZ74Wh6dCFTYhvqWSQ3YPE4VgF2hDdE1F7qjdmDQzDcQzVvx3VzXeKjuWGpJbRa44HKpXiQmk07BkWCYSdYrNPYdfvaVaRWspjEt1pcAXBzOVHzSGR5ijPblUxKqqdcV4ITGjY2JEyBnPNRuLKd8aZ+U6nH+fKZtPsEinEuLPPG1QwTW4I84lZusGOwQiEXphgvk2xVT0564ybT/dwSdX/+LWVCxRmKYNGVcGjVBKkOwVSdMtJQBJ17xfSGQcWFZCZl5YA3L1XMcgC9FHdAwfLS0wAfiZeKUKG4YfvQBPEGktNQBK9pEapVZ2fDPF7RNH2shOAN6vHbVXHDqJKEnVqjVm/goiww0KDR3fGSfMc5aXZAIm3ootqcIP8iM44eabvcF2tMe6XkLb4siahQZbBD6t+2cBWOUZn0C8g7W+SriDcIMfvjJPnWFvlt4p9ib+OvCsfSihALqkRdMZBKW6FKsOL8tuvPxuOnyCNL+vr890ah3TGgfDLo4jD8qelW/0zabyTX9wH98bxnXFgyV5B96yv/7M0vickD3+XxX3SmEHOZje218LOOGinyBOqrXLy3VKZXkj+eCUzBqhBTm3s7G5vw51xCk13L8p/K13W/ctL+0tZromQW+OQzjiFM2VE9S+j5UXk4ZtMEwn+6hUPv7Q631ovf1lq1c+Lq4nkBln2Fx5SSm4nUf3Lk3RQFyWfSHZrHP1n2RAhumeJcg7x5Pe3KgYZvzVOnqpYerdTJn/8cyiNztBTwFLL2yp/+3fp3U6ZNH5TCA0An0gO/4vy25XuUZKvCqFBNDrLSlPVxO/5vKwZhzmk8W5d/tcFtnemYUDW/ZOdYsenVX6x0j0xRSVJkVnb297eW5M1Zq10z3zyx+eyzCAnpffFrXTPY6TxrzxClsC/Src9Ur7KI2RciO5ZpdseLe0vLZlBhuWw/GqlexYjD29ja6JW+XCVblugKBlkGv5vK92zYGn8q6yJVm7nd5LfP0kj5ORK9X9Xaf8jiZBb64dfVm7n9xRhro54/auMw/eXr59gClaFrh8m7c+8MVjB/0Ol8e4wYgxWLSY/Xh4+lcuHL1qt1ov18vo/K8fnJ0jj67vPnz69+vKwQj+m/B/MOkzENd3NbAAAAABJRU5ErkJggg==;" parent="1" vertex="1">
          <mxGeometry x="-540" y="617" width="213.98" height="73" as="geometry" />
        </mxCell>
        <mxCell id="L7Ud86Rvqq-_p02ORbhh-2" value="" style="shape=image;verticalLabelPosition=bottom;labelBackgroundColor=default;verticalAlign=top;aspect=fixed;imageAspect=0;image=data:image/png,iVBORw0KGgoAAAANSUhEUgAAAVMAAACVCAMAAADSU+lbAAABd1BMVEX////nUiwAAADwWijnTyj5sxFTU1XnTiT3xbnpWTL++fbwjXf1jBtRUVPzdCH6vA/mSR70hB32lxj09PTV1dXybCT6xAzv7+8NDQ0qKirDw8PNzc5YWFr0fR/51czh4eF5eXn4pBT4rRI4ODj2kxnxYyZeXmCkpKRsbG1/f4Czs7OLi4pJSUmampvn5+f97um3t7jwVR32kwD3nhb61csgICBlZWb98e3xnInzp5T75N7mRRbwYjXrcFPzi3DqZkb1ii/tfWTxl4H2u6z0kWrxYgD3o3b1tKT+9Ob94pcZGRnsdlvrakzqYT7xaDrzd0zzglz4wqrzdS30jlnzgVH4s5D1n4D1lV/zfD782b/ybAT3q4D96tv6yKj2l1j0hD75vI7zagD1kUn3qGX0eAD0gCr83cj3pFP5wY/2mTf6wHv71a34s07827X3ojj71J/5uHn83ab5uEn6vkz97Mv6yHP6wC/824X81Gf7z0r+8tb80lH96rS7TNXZAAARlElEQVR4nO2cj2PS1hbHoY0J0EajiaaFCFEmJCQB2lFowbaWztHW1h9v0/fUvm1v69ymm9VNfZtvf/w79+bnTQKldSH4Xr7aluSewOWTc8499yaQSiVKlChRokSJEiVKlChRokSJEiVKlChRokSJEiX6P1Wn29oerK324d/adqvbyMXdoY9djczq1maW4Xo9DolJZ+/0B8W4e3UKdfqzmbj74FVje58BmFTaIwrtOeh3PxJv7WwsLc2uxd0LR93VTY5xeVKehwyT3WjF3b9x1Lm/NDs7u7Qadz9Mdec4wkGZ/U2KdNfNzPT76iOEFKBOQ/h31rKcN+LTvbnuOkPsSTPMRjfufp6gjIkU1Im7K6nMQY8i+a2niuQek+pa/H0doc4dm+nSIOau5NbSjJ9eJtXy70MZoLc1za7quunsvZZdA3YajcbEe9JY7/ldktnIpbpBpCAuOw2pKlSd1rrLdHb27tYAhtXu2v27d+9O2hFa61yAXG8bvNfJpwRxhos7rMLVXbs7SwqKqvt99HvidUArG0RK9VCVv9aziB74GqekUoEIK7YymSIqnRuDm0uzQS1ZZcC9iVYsmWxY2qRQsHSz2EGZwYbPhJuKmhqi+uZNROzmvdUHd8OIuro5yeDv+kcnXPRTWTS85+Y4nFobB/50Ow1QM0tLziC/NJroZJl2N8nAp9bXEFSTaSqDeFOtLuNnSqF8G7MGwzkumYqHac4/PFGbjQFieoDzT2OTQYVqkClAj32mOoQpsLxxbwN0f93jvxNkutoLJNJWbgtA3nHae4NULhD7EP0Hk6/5SIUxBYb3HrUanRyo02kUV+/NWlYbkxqkMgFUyP8yvTQ3Zxq0GIqBM7wVrAzSvf6EOjlMmSDTpf01/6pksW/WA0sTgtoIDvnUJiDMUvYYlNvn7kBmHYSUBmku5tq/GCA6Gzpx7vZxBpjQZDUQ+TDIb0G3thgnW/Z7fTi/xZDgTzMH8a5SdW76kN4dtnLeNdf/JrGwXsyGpEnkoIPeup0st3vo9ObmgvQh+mMuqLaI4F+6N5xZYwPNpe5PoE/9kPkThRw04+bKFoMjvBVYEEDGB/EupzxYIrx01IJZbg5Bjb7+K4Zw4tZRPBc555QXs+ZD/0zKtI53jtq9ecOj0bVdZ2PpxtL9yJNVPySeTUrFTceouGn6YlieSFPpqPs4WgOX6Mk++BlAjXpU7YaMO1QaE2y4Md29Y4XUakg5le7Fu0LVuOww/ZuvqfMsk3nwzHtdsnH3xo3PIu5QWH3EbPmjo2GXdd2wUYrbinfVP3M7NPI7Dz67berGF9vO1KR148blaOcpaLYUZBqIoI4ztt8JW75Kx3vh/8Hty6Y+8/rCsy/t3aDbXz602x7dvhzthLoRhigbROSkoEGoo8ZbTv3dJvfAs/Ohhyim+g+LZOPy7YeRdicMEbMetHOCuxs2SoUdMTnl/mFz86SgtScWSg9WC/mj259HOvKHFUfcqCl8Yz105I8zoT4+b+rJI3ffwyeXYcf5L//+9PMvvn5iG5j+efj1F1F2t7EfQmjkDL4TloCpXpxLfv+0mD1xQ7/7Pdr+6jFeUj98YFN98hi3fv51lINUaL3ZGzXimIv+gUPirKYe2n7o1H65z9GubxyL3FPL4vtDtPn4yWGE3WmF8KGyo+aa4Uy5fnwLKbmvzl9FOu963+ERbH/jNXp8hI2OvkP93PnXswj7MwgBNJpp2CoWMN2ILaE++/aqpa+cPjw9unr+K/IsPzjCNkeY5sMo/XQtzOmY0/spsx7Tcn/u4UUb6dXvHIqA+eixz/IbE+q3kXepH7omMiqfho5R5hp2DMq9Orp6Eaii/0ffOHtvXb36kz8Z5b7HdhejDHv8OnOhTEcNOKGVQmxMnx5ddPXU3rtzywPY0StsFNLw1yqcKbM14pCwUS22NdRfvEgvvrJdEzH9Z9DYtPphJ9o+hTMdOUiFLkzF5KeHt7xIPbTmL87/GLBu3JpHVj9NlinFmPeZj5i+58z7UyiKYeJn+mqekEvr2/n57wLFXecnbHUr4tGUZMrMre5nGY6jmOEX7Qc9CllkN+fWvNOFWJjuXCSZzjvDzzFsBNyx8wM2uhSxn5KRzMzBpC4zmFtP9wILqJZawHurv90CghniLv84mD6fn/9k3vvzym45hI3nfvOdl9gucqZkfWqu8eUa3e3+kPn76mqr28G8cxvE6YijPn0x/wmpS44nHAM9f0Y9XDaNomZKzqNGLkj51CI+nBLPSv/z5U8ueZkuHztNPy9fWv6RDLYXy9j40i8R94q8q4fixo/gDd/ZiGW+/+ISqZeOD+beLn+yvPzji8fHP1yzJqI/WEbLb6LtlG9dihuWRwPK+D7xE9O61OOXy59ecv8tOxk1lXvx6bIpq2x971i9jDb6/bMiZkw2HfI4qhfXTVO540+XP3W17A3sX56/evXqR9srnzt2y8Ha9S+Vb0WEYsZaXM757vCjsvHdMXn4/JoH68thK05vrnnQR+uo/utR3Po4g41/idC+TzUmvXn98zVH4bx2rnkVbUbt+qea3FbmRAXmp7Hf1//e5XX9z5D23M8E09eRdiYXuF7PnKzglD/2D/Yfe4gdBwba9796if56HPYMf6GCK/3UyfKfhpjvQ0lhR7yOnBT9v/7rLyTV4+vXzDb089tx1EV/yPX67MnyHRHz/VJYO79e9+jd8fsdk+vO4a6n5e1OZwKFtP8+XfC53AnyX3GhstPwef431wmde/f27evXb9/+RqB+P5m+FMmv6AjefxaUj2nsIxTWzm/nvLru+4sV8QzKFTnLPD3TuO+TtvTm3ImKeqbvqkVk1NMznYZsCno9mueFc+8mh9R3xf7UTJls7IM+1utzF0bq3cQCH6lxwHiZnnwAyXRKvhthdzTSCxNFSi7ZUwdzJ8p7a19vbhoG/dSJTK9MmCkR/ZQ1VwqV2eRBym1OR+SnUn9euGLrj3dX/LrwR+SVvk+5/dArzCeLmp5vRXnj8NvNpd7s/vv3P/7wsv33xDvU3fd/hcRGMUT+26soLv7P79vasQDuWnV9bge06zCddOingp8840KHqm3fyuD0fCMKaPf333d335DZPWdD/U8cPfJ9HwpFhawy++/pm44JlC00aw7qz9jcNIU+XUpADftWDvLzaVQvxht5x9fO7n+uXAlbU52EWpteqNRBYE2UvGJCUdMxfzpZO+/fxHbyu/vEhGrd3xHiOgs3LbX+lCu3Rnlcldsnrvc1vB/2pbip/r6+qdK293slmezA/SRH5o4n8DludVpK/Y9AndWsO02ietTGoFXstrb7m54RjKG2Yr/+9HGpOMe5vkpxXDqbTaPv6HZ8tLefSZz0tCr2Nxni+6Q9j7nsVutjqKCmT93tOwz4JnGBlGIYrre5VkyInlmN7f76ZtpdkUofrM8N4vgi+UKtCsqLk3/lKNTptjKDwRrSYDtTjOOWqLpWXphBWlhUS6c+mheRIujWRyze2JvxSDsdnrzKlsvlxcWIOvdxqi7NkCoL4x/Mt+0zEV0HPz4JZROkVm3WDN0ElB/3YN4+H3v1KPv4kYnHSMtN3twqsLCljw2oig5e1PVy4qYeyThweXdHfmFm/GEKnRA5GZ5I5YO5UGiOfXQJBrdygtQn7GhnPlpYSAangJqoJh2WPcVarQa+2IQ/VbMUKGhKW9HAj/lmrSqaTCXUXrNKBWygoiEO9vGmHQ97ZVUlvZ+vyUpbNuClBefg/xGpwLQ6rBERa0puJZC3qoKZlRpuMi08pVRh0dpazIvwuwAnZGVmpmaVW3s155lFwz5OEZWZGTX6N2qK5/mTjT5QIhBbGeolJUBkQdNhs+oAhHSxiDG7TA0w0FyDBXnPZFp2nsIywk+su8+kSxNMH4aqFqJ+DeRGrH3qeFJAbNF55+CTmkXL2WcxXVgBLRimzxMGFlPso+ZeMyRKiz7Lk5jWDVPVD0wSvKyzY5feZ5UA3qRYj/N0pd2uOD9K3WYqF/J53iwQZipNIW+7o8VUEUrwT8SpGYxrQl4OMDUEAUf7Ck7dppcaBaGmj8dUkFhWB7G0ccbYbRoGKk9klo6e6YybzGozhPYEk+miWayK6O0vmn7CK16m9vE4kC2DNsF0EVdb9bJFr+rBmF8ci2lFqqiaplVo/Wypl1d0Hb2PiTBdcCspH1NgiZlafUBuumfnIp72MJU9h9sVhMh6mVojPnLkstVmB0dYfRzSzQqt1CEd5QHq2cJfZfHcUGajj32U2SrWY0FqK5aQm5XN2Netir5NvHUxyLQ9460gCnsu07JFmod9K+YxZbd8U8diyiq4H1VWr6UETWuKhobKMEPTDAy5pEGtVlNVqN9KhqqZJ5/Pw8NaHS2dtSVaVUXkpwK0m8ekxCocnkcVn6GpAvqjasibSzWIieZZK4S6Trw/5z3A+2TNMUqxnhq5rMdFWD9T9EyLnjmt7jK1TwsPz7FoeqbsGubHZIp7WdP1akpgWU3TpXqqVoEsy0roTAqsrmqwoWuFNtqHoIoazsJyPWWUaUnSyyVgWjHaOstW0FspgdfCYxhdRUgNBedPAT8te8olT1fyTNgilGK+Ty9TNMDwgeNcpggeLZJPEcIU/NQgHBq/yNh+qtF6E2VXia7IUC7TFU1r0+C6EGQS3TZU+E0rhiLRaA1C1eGxTLNqKq+Bn2owwZBZ8FdoZ2U+VW+ztGwo6HBepmnEFP8ptWkJbGhWO6On1ry5zZa4YALxMt0jmaphTNmxmFZJpqWxmEI+FUWxKtFsHTFljVIJgYBMXWBpVKJItCJgNuCWpQoNjijgBuAkQQPkU2uMquKnq5RSVR25YgnA8gTTPCupyEaXzli5oRwXcFQETOeDse8LbYKpSMY+Pzz2m2eJfUmqgFjaQoLcAAos3DnwxDxiCukS8i1bxbukPDCjjXqpZKChnpdZz7gPCGGog+OapRJ4ZaVEMC1I6Fyk4NCzBj+KxBVybQ/XOmge6WWqEG+9HhyjFHKMWhjqp6gm9uRweUymLCQ/qZ3HWzR6zbzE4uM0GjhaTGvYD02mBgvnAZIBC+lCBKbI6yymKjAVFcixEnpemmQKJ0Nvax+yBuGtO03hoqiN34qHaYEwaw+ppewzS9RSPqb40oBTZo5bS7WbIIG3tpCf2kyriGM4U0XFKgxjKuNmuU4yhfQLWZbVzn7lAo3xMwuGTaOEJ0EreNPLFJMoWzUKUfNbTFHGtWv+OlHz+5iaEy5rQtRcGI8pq/CeLcy0ILH4zICf1sKY4jxgzbJDmAJHtoDbRbQDwTTR8iKfEktVSVfOvjBs1vplNV8qCTUFz2sWTXZepthRZ/bkfKmgWXN4H1PscXtqXiho1nw+PJ+mUnjGoMN8taaY09yxaykvUxiJ2rCTh/guhDGFssC5AiGS+RQxNXMG6hb812grzwLTqiIL+PGHTA/yK+QMyrluSjA106xXPqZBgyF+auYbr07NFL8mlJ9qoQC/oegJYSpWaEkThIKhIYrgtALJtKDTUlUQ8nIT5w+5IBiQfWHc11mlINTg6A9ZwiqRF6Od7pNMh631OUxThsdAXRnOlIBKj7HW52fK4vJPVFgajUFSCRUB2CmrHqaQcGlagroLtdd02BAcpjgTQEUA7bSuoloVHkoVBce+pqPDaNYY1p3xlFfsuyb2VNfj0Qjd9hSlgmIZsc36nsl0hihvhYplIBXsNelFz9wUIbcsq1b+WFB5+eQ1aZJpgTaZpupGm4aJEQpqgWZlt5ZSzKUSQa1Au9rE0Q2QgKluM0U+2JRhp4InqgUIdaVQ01mUVqvoZMnjX5UbIr6e12RZNgTvYCeiG6gIq1JVkSpagUdN6LqHaJAWvGBYBjwYiKh/1WrNPi2wy6m2xIJakZQq8Mgb1ZOCjC8JnnKPFwS7AKkLVodhH7IQzW0wEK3jhLr16iXUUjIb4DDebhedlxDRs+D98DSl6C8IJEqUKFGiRIkSJUqUKFGiRIkSJUqUKFGiRIkSJUqUKFGiRIkSJUqUKCL9F5KZoPrhYxW5AAAAAElFTkSuQmCC;" parent="1" vertex="1">
          <mxGeometry x="150" y="-30" width="273.02" height="120" as="geometry" />
        </mxCell>
        <mxCell id="L7Ud86Rvqq-_p02ORbhh-9" value="" style="shape=image;imageAspect=0;aspect=fixed;verticalLabelPosition=bottom;verticalAlign=top;image=data:image/png,iVBORw0KGgoAAAANSUhEUgAAAY0AAAB/CAMAAAAkVG5FAAAA0lBMVEX///8AAAD8/Pz4+PgAZ6ICBAQAaKL19/b09PTt8/cAAAN0dHRVkrzY1tf5+/3p8faow9pUV1fp6elZXl1lZWWNkJHFxcWtra1HR0cAWJjP0dAsLi3Y2dhARUQnLC0fICOXnp4OFxUuNDUdea2kqahomMBdmL/k5OSYmJi5ubkugbQAYp8vg7PIyMhPUFBRWFg7Ozt8fHyGh4cVFRXc5/IlJSUAS5Joa2obHx2kvtfD1ueBqs0XdKzF2OY1iba0zuGStNAADxAwLC4aIyMSGxlGTUz4HSZPAAAOd0lEQVR4nO2cC3uayB7GuUhCQ2wWVCCCRi2nwLZY0Lq420s2m/r9v9KZCyCXGWASPd0e57fP7iZxxHFeZuZ/GwSBw+FwOBwOh8PhcDgcDofD4XA4HA6Hw+FwOBwOh8PhcDgcDofD4XA4HA6H87P5jcaff73J28iPf9IaPd5RryxFAWAqMXVHMqwgmHiM7/q/4XcaX798ztu8ef+V0ujd+29vaVeWA1EUlWTI1B1pOALvihfyK77SL8wVmcHVh/ef84G++3hPafbh+yNdjQkYV/EhMVi6Iw118Kb54vpVX+qXZTAYwMEfXMEf4D+5HPfvP+fLBVBjMBiU2gzwr91qKIq4DVjkuHg1rvJxvhoU/wUANfI2aG4M8levrrB+8F333WqIK4+hO0CNG/CWS1WDsgRdwZUqb3P38cMLVyoFIDph/10Aq3Gxc+OWxve/C3PpzZePtEZfWnbxXA1xHfXuzoWrcUfhzd0bqbMRaEYVA6pxo2A5Zm7f7ly4Gucj3zdE8K/m93wTV+NMoLkhximSI+0pB1fjTKC5IWpuDP+nTPrZuReuxts+SPSX6FfGcyORIxsuWPuN2qc7F65GHnF6fCx+ooau8paPx8bf6HEqrIYmy9YerlUrq4+dKw0/XbIa78p8hbxj4Ov7b9T4XqaGKkiBA+WIrR6hwAtX46oIjBReeB4ryX/HTUovH7n/3kMNwd8oUA69R2SWq3F1RRjpUgCxEOYYEynUuG1VQ8RqCH66hXKMut2OC1djQFNjUJ4wV8Ufqy2BGm2+eDY3BCEaIcNK6zSsLl2ND4iGEg1diICVqpcawnSN3I6ky+24cJuKGqfqx5fP/dQQQuR2bIMOw+rC1XjzKsrBrDpVNaRwB5NPy6Dd7bhwNc5HVQ1BXcx72LlcjTNRU0OQA2RYxa3Zjk41/KEZAsxh3zjkOTBc2Akz8n+d9H1dDUFNkBx6W7ajNfcn+9NwM17P4jhep5twalSnmTw1AVGX3WagZkM4kBL6maqrOgSvuvW5rLrhJF2DPtijjTf1ewV8+kLfE47bs9Syc/TdNyB+ggyrceMLHmlRQ1LD8e4JhugRN087zVTLV/K1pagoDx07kzHZwzg/MrZlLwYdCmhNzbWiKOOqupIfxNu8D4qyX1u+erpyo//QuP0zD0G9/fbl9j2Z27/72lSIqQ6dcqXFzm1Rw9TiQgrMcpWU55kMvRpR3LWW/6gTBzYaRbCR7D2Dnye0ttAOFPWKGlKo76qdcNZB71xaJ/c0/rjNa0bePn79g9bo418sagimjrxAejyXqoaxgENzk92SxVgcvPJgTcdofFpmhxrsYZMxHsBrb9WmhmlD3cofoHox/ty94zj7rA/b8cmK8fIg1LGQqlGl8PbxHbVKoT0y0lBDwm7HzqONF00Nf7JDq9zSsXUtSbTRbLVEf3DKiRMp0tHssGiXVz08M7KSO5lRDdVCb9/b6WThBRvNhp0A3ejyonpDKxkZlNT4q6zGoPgv8NBZ1RBk+H0UcU+zcylq+Am+EVeJ6RsqwDCmmxmKRT5V5bDR7KBE77PRXOdLC6saIXr7zPNVVZZl0Isogavn0jvV3MgiIyUG+N/78ty4b7TC3H9nW6mg25HZueQvQFbDADMDvGmflG1KP9qgvz5PSkMvoRGkXF6yZvBFPcpfZFRjmMJ1KY2OX0nyp8FBVE6mxkca74o63Lffbt9RGv3+pX1uiA01wDaK5JiZxDeR1fDQsMf1qkUDTzQnLLcO0YjPCJNPRruyaB93fjY1pAAaU+NaYbFsJnqfzE0v6Dm+b3mNunT3iBN+TX77dse2UgEMbOfqU9KbSGpIOOQ485rLj+c0LiXhMY/NemspXCOdwlIXmdRQNXTdxhdWzZPt4i3Z8OP36NOoAWVuQL8AGVZjkmFIUsOAC4Q4J+38RqCAD1GC8mhIeHVf14ZNig4NlZjUkNxP4NeEsCNJv8D5BtrcwIaoIm5JbgdBDdmM6Vaxi7aJdVQeD7xXK9U/ChGyfuPK/s6mhjmD5hOt8b8cuhroawI5Js3XsjhVUFLDT+ByTV7YBAmvVZXJAQYZ7TPjsmuIat/Ff6xaQwY10LajsJR4/5toUUOGWy1wOxaNFwlqTOE+sKVtlMYIFc9V93d5AeVQRsf1fKohA7lm/DCqcf65YVA5hl/klkZ0v6dFDeyFKYR4LkGNEHpYMS36cL2BF7Jrm4SK48Vabv/4KXTfH+pbD9tKFUErIGU6HMSKTSPe5Mu6bI7iGZk4jZhtKoQRoCKruG7nNtUwNtDT2NAGQQrhgO7qwRAjWMK1MMUi4nCl0zjXw2ZTIWtiT7DsTodIZZ2HWlVrS23UcjajVQ00yITwelONKQwFzsi7BuodvO2VxscYm22RiDc0BW1TDUUZ/Q1UBGOfzLkgoKAzFk1gvU32sXI4pzQCTsBL1QB27hOSo+pMNbNN6N6PrcikgcpR9MZIYzmg4eajxeyBML0YfXG0VImrwD3b9KCroRdzIwR7onJT+if/QXyFGoI/IhwmaKrhwUFVds6cgrOFMV27OdQ+mhFK4E7g1H4i2dOMakioL+JWD42T5piOKJQlqKYGjVeoIbhIjm2lyKqpRlCJoJOA905M2FeGSI6HeIc+hZRTYY0a+jiqI84PgXsWl8+h8aAdd/H1bkXE2XXs4kRfvCBzO8o7cFMNtFh3siPZXEM8+5AJTNx4WNXAgX3IXJ+EZ7CuLBpeEaqUjNAKj1jgF/S7BX5syUJ3zo28yKpsEDXUkMCiL25n43Z08qn0KEULsbhPyQYysxqCbBW5v5XmTU+9YMlUjje91NKoPS/ePjeAtbarlZGQ1YhDtQtiP5D5C9cxcsD4BWoIsrtx8hVy+8n7ZapGSlXRVNQAFVkdI3yNOBVSw6aMZhcqPpYr7heULrKrAStJvENu8u/txQlrFM5Jj7lRlJHo+UrSVAM+H8Om5KY6kMBg4z3HIV+AOS+OUc1gnE+Q5+SFd8r/mD5zo3A70sztaMZwA7GrIo4GXAcBP5YiLRn4QjUARpissyoFOzzd7uHSGPrF6qG6UxotxV391BCmuIwkwe2aaiwUmNt4iRpZ2in5hExxUkboRSsV7qesDpMY22svXUcJ7PYPJPb7bXr0xeMl/uMzYF9utNSbqbCcnmoIQ2Tnijh/0VTDmgPXrd8RzgooHQHWKFPFuVnSAx1ergbE8IO4s1yPDboJX4pT/aA2Wr3C+8sB9zBoOEc5iqa/gQZ1zK4GTmnBWaV6S0quUbagGvRaw3Y14Ho1Rv7+yaoUaJER5RinUs8SpyoROujRSTDeLbl1NXwNBmCY7z7o6N9klULZMdCm04HVeOncQL1L4D05pgc12fiJkZECCWcjYP1AUw0VbRzNvFQ7Po4ZbnDvkKUr/mi4iCiBJG5oSvdQAz9P67Bg6x2VHlFDGUYNb0i0Wjv91RAMHI6bRVJTDcGEtovNVutqJDhiWOTtsDiTWrAKV19RE0hm3KkGsPmA77FKmXpHZ03DPmabpunhExH9sKEXrzCokcVb4VrSVAPu8uLWYjlfIwUPtfDwMMs3Ve8doD1cBIaU74BqdrvUgBUqzzpD59qgma7DaeH0QwuXYgZ3WLi91SgOExjuqF4zoi4eUNK2/3dSG2KA2TKGa3K9ABiVSO3JZbSSCcMqnWqYB6DGoX/nWpHoMDaqw6RGVsGmBNBKqdVTuXbXU3xko3ywRg4dwsMC0MNE61498vRF8sFpP0Uxrk41ZidU43wwqQGPrqDw+rh50iyrFaXLoYZaOSqPq9vqnhDSG2x0lRQAroQjbn4GfOJADzWsB9DfUXubfwGMalwjO1rcw+qFWuVnnpai7OTGJF6V1Mjypc1yFAtVwlULs1xYeaDoTaHxQY+yGhLxm0iwiGK26fx6PxtGNQQBxvgUNAL1U5g4LSWOSBEh30oV8fkYOsFikI7eyijFXsvEW7iYoS40OqKwfFYq9VRB2FBNgqGCah3da6DGqdzjBt0Sp3JfHac6ogb4sZRNNSQLn6VZecPaLmzAYwPlpc1FBZ7kw39qgNawyu7ujrN5V36DOgQWsTjXD2U11M023kTVU36qiUoYCUWTL+PH05LEdqsUC68MjAvwhwbgb+KaHuu+ZlUDewVQjcZpGhWfDRCVOHDhSRZgPsDTLH6g40zDKjeA3TEsk36gHDZSAxTjqTgYUxxrmi0MFV4WXtcP4CRaLlBRe1kNUfxhTyJDRWk2+fraD3Zim4nMDNXLPgah5XDf0qjN+2NUQ3ATnB1qnhdXvRXOcTtrbWKFUWSGi814PcehhH8WWcAZuuCgHbUWDnuFy/Lr2Wkr0dETLzQj0wqSNZpCiRFVfHEVBUHE+WycBLAHobfRHXwrnCzhRI9T2ce54bwwTsWqBvIKiGoASwlOA1w9slvZdrwqbpFdmnfCQGIsWx7djuNK27IckhVnhRDPsT2brfBsewJmb70O184/cenEoAfP2Q1JPWXIDj1ONTuqMac3alejM/dXB1UWkp+lMNUcQmeVrR3kzoaBF47Wx736I+QFlotApfCwrF92CyMRKHxcOk1j6bunRgfWp6w9POvcUFjnRnaMkvwsBTVKdvBDb7AoqAP7sVVYG3BzAZ/Y8bBXsG3Dp4mXD5XL/sTBsTnIzY2orNH9Xo8ayoapoR4UJ6UVJzlpnQI5AAU4bPK9SRpq+oiM3hKnkkwtTce9ni1ZQg6TNN00jonhK/phoB2yvUJcrnRtEZZsIWOhpZq26bA2pWiTpqlWDZH4ZpDGWRbnOdYWuDTHDcAFK2lHyTUDzZ4/ZR0YT+iPxXgR1PLWcFq4PQa9CLb+rI8yBrCAI591HkNz2qVeVZ2G3iJAeJZZrWdSu3LDGNknmeZGZHn5dXMzGln29S+gDkNrkTXsfKYJh8PhcDgcDofD4XA4HA6Hw+FwOBwOh8PhcDgcDofD4XA4HA6Hw3kd/wWaR/ryX3okbgAAAABJRU5ErkJggg==;" parent="1" vertex="1">
          <mxGeometry x="-130" y="1100" width="253.21" height="81" as="geometry" />
        </mxCell>
        <mxCell id="L7Ud86Rvqq-_p02ORbhh-13" value="" style="shape=image;imageAspect=0;aspect=fixed;verticalLabelPosition=bottom;verticalAlign=top;image=data:image/jpeg,/9j/4AAQSkZJRgABAQAAAQABAAD/2wCEAAoGCBUTExcVExUYFxcYGhoaGRgaGhwgGh0fGhgZGhkgGhwcICsjGiMoIBwZJDclKCwuMjIyGSE3PDcwOysxMjEBCwsLDw4PHRERHTEoIyk2MTExMTMxMTE5MTExMTExMTExMTE5MTExMzExMTExMTEzMTMzMTExMTEyMTExMTEzMf/AABEIAJQBLAMBIgACEQEDEQH/xAAcAAABBQEBAQAAAAAAAAAAAAAAAQQFBgcDAgj/xABEEAACAQIDBQUFBgQEAwkAAAABAgMAEQQFIQYSMUFRBxMiYXEyQoGRoSNSYrHB0RRygpIzsuHwU6LSFSQ1Q0STs8Li/8QAGgEAAgMBAQAAAAAAAAAAAAAAAAMCBAUBBv/EAC8RAAICAQQBAgQGAQUAAAAAAAABAgMRBBIhMUEiURMyYbEFQnGBofHwFBUjM5H/2gAMAwEAAhEDEQA/ANmooooAKKKKAEoqH2j2ggwab0r6n2UGrt6Dp5nSsz2g7QMTNdYfsU/Dq59W5fCm10zn10TjByNVzHNoIBeWVE9SL/LjVaxvaNg0uE35CPurYfAmsgmkZzvMSx6k3PzNeatR0sV2xirXk02btSX3MM39TgfleuS9qTc8MLeUn/5rNiacZhhWhYLJa7Krix0s4utM/wBPX7HfhxNMw3afETaSCRfMFSP3qeyzbXBTaCUKTycFfzrDqSoy0sH1wDqifSUcqsLqQR1BuPpXSvnrKc6xGHN4JGT8N7qfVTpWh7M9oyORHi1EbcO8X2P6hxX14VWs00o8rkXKtro0OiuUMquoZSGUi4INwR5GutVxYUUUUAFFFFABRRRQAlFFQm0u0mHwS3lfxEeFF1c/DkPM11Jt4RxtJZZN1H5lm8EAvNKieRIv8uNZPtBt/ipyViPcp0X2z6t+1VKWRmO8xLE8ybn5mrdejb+Z4ES1C/KbDju0fBpcJvyH8K2HzNRcvaknuYZv6mA/K9Z9kmXmeaOMkoJG3Q5Gl7Hh11sPjXvD5LO8ZkWPQb2hZQzbnt7ik3fd52FOWnqjw/uL+LY+i7L2pvfXCrbykN/8tPsL2oQn/EgkXzBU/res8fJZRF3llIspKq6mRQ5shZAbgE6CvGYZRPDu97GV3iVFireIcV8BNm/Cdal8Cl/2HxLEbJlm2uCmsBKFY8nBU/WrBFIrC6kEHmDcfMV83SoVJVlKkcQwII9QauPZPmbR4xYyx3JFZQt/CCPELDlwt8aTbpFGLlFk4XtvDNkoqq4rbGODFthsQO7AsUk90hhpvfd9eFWaGQMAykEEXBBuCD0POqUotYyiwpJ9HWiiiuHQooooAKKKKAEqJx+bp3WJMbAtAjFra2YIWAqt9pG1n8OP4eA/asPEw9wH9TUJsXdcqx7k3L7+p53j3f1p0avTuYxR4yyh4rEvI7PI5d2NyzG5P++lc6SlrTQ8Q1bky6CNomaH7Fe6eSYyEhw3tLunQ2bkOQNVKukSu9kUO/RFufkoqMlnyDRb1xkUZUySRJiCsyLLEq7iBgvdM24LAjxgG1wDrTqHPYRIzd4rSFIR3pJUNuAiRd7cJ1Otra1XcJsljZACuGkAP3rL9GIP0pxJsRjwL9wT6On70rFfmRDEfcg8wkDyyOqhVZ2IUcACSQBoNK4U/wAwyXEw/wCLBIg6lSV+LC4HzqPBpyaxwTQtFFazNluAghhdsIjl0Vr+e6CeNRnPa0sZyLssjXHdLoouyO1UuBawO/ET4oydPMp90/Q/WtmyTNYsVEJIW3lPEcweYYcjVOGY4NfZwUf0/anOD2nji0jwyoCRfdIH5Cq1tUp8qOH+xSlraH5LxRTfA4pZkDobhh/u9OKpNY4Y1NNZQtFFFB0SiiorNc4jiO4wLEjUDlfrUJzjBZk8I43gq+3e3IgvDhiGl4M/FU9PvN9BWU4md5GLyMXZjcsxuT6k1rLQ5aeOEX5f616w2X5ZI6oMIoLG3D/WrFP4hpoLEXyVpwlN8tGQVN7LojLiFMaPL3TNEX1AK+0At7E2uQTwtTvtJwEcGMKQoEQIp3RwuRrVaViOBt6Vqp/EhleRDW2WC84vP4u5QxSLYCFhGxcurxMptHHYLEDY3bW96bT7Vx2ZEEihXmMRRYvEsrl7MXUsliT7PKqjBEzndRWduigk/Ia1MYbZLGyC64aSx+9ZfoxB+lLddcfmZPdN9Eg+1MRgMfdSAMsSlFdQg7t1YlLAEFrcetO8HtFhu+RjvF7SfayLu2Z1sneCI+NgLjvNDrUVJsTjx/6dj6Mn/VUVj8rngv30MkYHNkIX+61vrQoVS4T/AJDM12PdrMes0iBd0iNAm8Hd97Um++43ja9tb0wyjFGGeOQcUdW+RpvFGWIVQWY6BVBJPoBqau+z3Z9I695jGEKAXK3G/b8R4J/vhU5ShCOGyKUpPKO/bJhgZIJ19l0tfrbxD6GoHY/aybAtu3MkJPijJ4dSn3T5cD9am+0TPsLLAmFgJfuytn90BRawJ1blr5VQqXTDdVtkiU5YlmLPonJ8zixMSyxMGU/MHmCORp8KwPZHaJ8DMHW5jOkiciOo8xW45XjUnjSWJt5HFwf38wdKo30ut/Qs12Ka+o8ooopA0SoXa/O1wWHaQ2LHwxr1Y8PgOJ9KmqxftRznv8UY1Pgi8I6FveP6fCm017548E4R3Mq2JnaR2eRizuSzMeJJ41o+w2GWbKpIe8VGkZhdiNPEOV/Ks0oBrQshuWFwPlHKL03ZtL7mIhb4t+gNcZOzfFjg0TejH9RVTwryMypGzlmIChWa5J4Wsa2fYjZ5sJFeWRnlYeK7EgeS3P1pFs51rmX8EJNx8lb2a7N/fxjX10jQ6H+Zv0Hzq/ZblsMC7sMSRj8KgX9TxPxp5RVSdkp9sU5N9hS0UVAieSKrmfbHYXEgkxiNz78YCm/4gNG+NWSiuxk4vKZ1NrownavZSfBHeYb8fKRRp6MPdNXjPjfB4NvwL/kFXnEwLIpVwGVhYg8CKq22mDEeHiWNbJGbDyFtKtV3Oc4p9idZLdS0U+ilVSSABcnQCpuDJQLJIW7x1JG77KAc3P08qvymo9mDCuU+jls1nBw72Osbe0On4hWhwyhlDKbgi4IrK58M6KrMtla+6etuJA4286m9k887oiOQ+AnQ/dP7VV1FO9b49l3S6hweyfX2L7RSA0yzbHrCm8dSfZHU1mTkoJuXRrZOGf5mIVsurngOnmapjuWJJNydSTXrFTtIxdjcmnWXYdSGd1Zt0A7g0JB5+grDutlfP6eBEnuYxp5kv+PH/MKMxwXd2Yao2q34jnZhyNLkYvOn8wpcIuNqT90cS5Kv2nQPLmRSNSzlUCqouT4RU3sx2bqAHxjXPHukOg/mYan0Hzq9xZXEszzhR3jhQWPEBRYAdKfV6t6iWxRjwSVS3OTGuX5fFAu7FGka9FUD52407paSq7eexwUjKDoRevVFADDC5TBG7PFDGjtxZUUE+pArKe0qPHrJ/wB5fehJ8Hd3EXkCv3v5r+VbJXDG4VJUZJFDKwsQeFNqt2Sy+Rc4blhHzfRVp2+2WbBSb6XMLnwn7p+6f0qrqLkcvOteE1NZRSlFxeGJV27K9ou4l/h5D9nKfDfgr8vQNwPnbzrjjMhwyI3eFokTd3Z2cN32l27qMcR0PLnVSkIDEoTYHwk8bX0vbnS3tti4klmDyfSlFQGwuc/xeFRyfGvgf1Xn8RrU/WQ4uLwy8nlZI3aPHjD4aWX7iEj1tYfWvn13LEs2pJJJ8zqa1vtjxW5hEQH/ABHA+Cgt+lZHV7SxxHPuWK1xkKKK6YaEyOqL7Tsqj1YgD6mrQw0bshyAWOLcdViB8tGb9B8a0umuU4NYIo4l9lFVR8BanVZNk98mytJ5eRaKKKgRCiiigAooooASuWJhV1KsLqwsRXWigOzNdoMpbDSaXKtqrfofMV5yjHsrBGJZGPssx3ASeLD3h5VoWZYJJkKOLg/Q8iPOs3zbL3gkKP8A0nkR1rRpsVkdsuzH1FLplvh1/nBL53l5Zd67PITZerL4r+D3QthYg2N6rlS2XZjYbsjlVAuSvtva26m97oqPxkveyM4UDeN7DgKbHME1LpeRFjjLEo9+xYtl9odxTHLchRdTxOnun9KaZjjGlcu3wHIDoKYwR7o86f4DDb7AsCE5tY29CeVeT1+pV9u2v5fuaVSnsSkzvhcD7G8tidQGNg4Fjugjga74/FlSfETe5TXdkjPNdOXK3CveJcRoL2dCbKhv4SADdGOpHKoeaQsSzG5NVpSUFtj2OfB1xGJeSynryvck8yTqTVq2eyoRLvMPG3/KOgprs1lO7aSQa+6Onn61YqvaTTtf8k+/AyEfLFooorRJhRRRQAUUUUAFJS0UAMM5y9MTC8Uguri3mDyI8wdawHN8C+HleGT2kYg+fQjyIsfjX0ZWV9tOWhZIcQB7YMb+q+JPpvf2ireksxLb7iL4ZWSL2Lxz7jIokaS4XfCF3EduEbG4TdbWx0IvURtbg2jxDOUVFkLOiqVIA3iCDu6Ai2oHC9csjzWSFggf7NjZ0YkIQw3SWtqNDx8qnc+w0IijZ+8ESBu6EMTiPeexYtLL7VyBqBy0q38tmfcR80f0HvY1mW5O8BPhdd4D8S/6VrVq+fdkcV3WMge/CRQf6vD+tfQINU9XHbPPuPolmJmPbbKd/Dpys7fIqB+Zqg4PAyS37qN3tx3QTa/W1XrttH22H/kk/wAyVV9kBMJhJERuxkF1aURgggjmRfnVil4qTL8OIEbi8DJFbvY3S+g3lIv86l+zyDfzCAHgGLf2qbfW1dtrXtDHGHDjvC2s6zODu2t4fZW31r12XNbMI/MOP+W/6VOUm62/1Ot+k26loorKKwUUUUAZXh8Xjs4xmKTD4tsJhsMwRe7W7O12Fybgm+6TxsAV051I5Ri8yhhx8OLLv3MMjwYrd3d6yMRqOJGh61C7FZxFlOMx+Gxz90GkEsTFWIZSX1BAPEFfkRyqbw+1rZhBmHdRWw0cMojmNxvnu2voaAJHsgzGXEZbFJO7SOWkBdjcmzsB9KuNUTsK/wDCIf55f/kar3QAUUUUAJUdneWLiEKtoRqrdD+1SNIa6pOLyiMoqSwzKMbhnico4swNv2Ipxhod0XPGp3arFRySAKASlwW6+XoKjIIi7BV4nhrVD8Q/EpWr4UOvP1ZQhplCbffse8CiM9pGKrY6jkbaVL74jj3X3lAuAy6q6k30I0BPC9cZ8LGUNrjcB1tbxADRyeJJ0sOtRJckAEmw4C+grNy6ljC58lro9Tyljck+QJJsOQF6m9msp3yJHHhHsjqevpVcmm3fM9KvWz+ZpPGCtgwADL09PKrmk0cpL401x4I1zg5bc8kpS0lLWoWQooooAg9t86/gcHNid3eKL4V5FmIVb+Vzc+QqiYLK84lwi45MxcyvGJUw4jBQhhvKtuFyLe78atnatlj4nLZ44lLOArqo4ndYEgdTa+lVzJ+0rBw5bH474iKFI+5KtvF0UJa4FrEi/GgBrt3nuOMOWgM+DmnkMcoAsQSUW9jxGpNq7Y/Mcfk08H8Tiv4zCzPuMWQK6MeBBFzw14kaHhUb2l5o8keUYnEx9ye+7x11O6oaI68+AvXXbrOY85mwmDwF5d2USyShSFQAEa3A6k/AUAa8DS14RbADoLV7oASqj2tYffy9zzRkYf3AH6E1bqrHae4GXTX57o+bgUyr/sX6kJ/KzFMJhmldY0F2Y2AuBrbzq45oztBNI8csRkTdYTSgRDdKm0KW3mN1sOQvVJBqSTO59wxmQuhBG64DWB6FtRWtOLbWClFpDDDvuurfdZT8iDX0hAbqD5CvmtxofSvpLB/4afyj8hVPXflHafyZ921weCCTozJ8xf8A+tZzl+J7tuCEErcugfdAYG4B4+Y5jSti7UMCZcC5A1Qhx6A6/SsWVSSANSdB8eFT0zzXg0YPMS27QL3mFZ7y2jZCC8MUMbbx3fAEXeJF+BPCoXZLF9xjIJDwEig+jeA/IG/wqz4zDqsaLijGoMV3MsjNP3pU8EBO6A1reRqh1OGHFokuVg+lqWq/sNm4xWEjcm7qNx/5lFifiLH41P1mSTTwyu1gWiiiuHBnjsthmt30UcluG+itb0uK6JhkVNwIoS1twAbtjxFuFqcUUAcMLh0jXcjRUUe6oAGvHQV3oooAKKKKAEqubTZvu3jQ6+8enkPOnO0Wad0u6h8bfQdaqSKXaw1Yn5k1m6zU49EO/IucvCEjTeIA5kD51LRwRorqSW3D4/DuupvbeQ31F+RowmDMfTeI8aMRust+KN5U1zPGFmZFbeS+hsLm3C551RilCOZLkh0c8zxXeNccAALn2mtzbzpjK9vMngK67jEMQpO6Lmw4DrTLDMWlS/3l/wAwq5oNE9TNzl8q7+v0K19u3hds7HLZ2N+6k1/CaeZTg8VBIHSJ/MW0I5g1LbVZ1LDKEjYAboPC+pvURNnuKABLFQ3smwF7dK9LDfKCSSx7FZxrhN8vKNAgcsoJBUkag8RXWs8yvaOZJAZGLJwYHp1HnV+glDqGU3BFwap21SrfJpUXxtXHg7UUUUoeFR5yfD953ncRd5x39xd7+616kKKAG2LwccthJGj24byg29L8KXC4WOMWjRUH4VA/KnFFABRRRQAlUXtlxW7hEj5ySD5IC35gfOr1VG7QI48fhZjCd6TCOb26hQXA6ixPxXyptPzpsXZ8rRkNFFFbJQHOWQ95NEg13pEHzYA19FItgB0FYh2a4LvsfH0jvIfgNPqfpW5Gs3Wy9SRb064bOWKhDoyNqGBB9CLV8+53gGw88kTcUYgenI/Kvois27YMjuFxaD2bLJbp7rH8vlUNNZtltfkuVyw8GZk340UUVoFgsvZ9tF/Bz2c/ZSWDjofdb4fkTW2ROGAZSCCLgjgQa+bquuwW2pw1opyWh91uJT91qrqKd3qj2KshnlGw0U3weKSVA8bB1bUMpuKcVQEBRRRQAUUUUAJUdnWZCFerHgP1PlRm2aJCNTduSj9elUzF4hpHLObk/wC7CqOq1Sgtse/sQnPHR5lcuxZjcsdTUzDh+6ZRdd61ka3gYa3VtLg+dcMtwjJvMwAYgBCbFVJ++PdvyJrljcWRdFG4TcOuhW/Vel6zorYt8+xa45Zzx0/GNCdy991rHdOtwp6U2w0LSMFUXJ4V5RSSABcnQCrjkGViFd5vbbj5eQrtNUr5/QIrczvlGXLCm7xJ9o9f9KrmZZD3eIjdB9mXFx903/KrnSEVv0v4SxHolZTGaSfgoO1koGMJZQ4UL4SbA+HnbzrtEwmXu5HLtJZjuW3IVA0tfQeYrjtthHWcuR4HtY8rgWsfOo7KsVuMFY/ZlgXHW3C/UeVaUY7q017GVOTjbJS8sZypYkcdTY9fOp/ZLO+5bu5D4GOh+6f2r3iITNGVaRGIbe3xokaWItew4kjTyqBxOHaNirCxtfqLHUEEcRU/TbHbIgt1UlOP+fQ1ZWBFxrevVUTZraIxWSW5Tk3Nf3FXaCVXUFSCDwI4Vm2VSg8M1qb42xyu/Y7UUlLSx4UUUUAJRRVc2v2rhwSkEhpSPDGOPkW+6K7GLk8I45JLLOPaDtIMHCVQ/bSAhB93qx9OXnWf9mGb91izHIbpiBuNf72u6T8SR/VVczfMZMRK0szbzN8gOQHQU2jcqQymxBBB8xwrUr06jW4vtlOVjcs+xYs32UnGMkggjZwGupA8IVtRdjoLcPhU9gthYMOve5jiFQfcRrD0LHU+igetNcz7R8Q6KsKKh3QGc6sTbUjkKrODimx2IRCzSSSNbeYk2HM+QA1riVrj6nhfyGYJ8LJs+xrYZoS2Ei3I94qG3bF7cTr4j6mp6mmV4JYYkiQWVFCj4c/jTus2TzJlyKwha4YqBZEZHAZWBVlPAgixFd6KidME2y2ffAzFDcxtcxv1XofxDgfnzqEr6B2jyaPGQmKQcdVPNTyIrEto8klwchSUae449lh1H7Vo0Xblh9liE8kXRRRVgYaL2MZlZpcMT7Q7xPUWVvpu/wBpq4ptCFYpKhBBIJXUfLiPrWObK5icPiopeSsA38raN9DWobV4cLKHHsuAb+dYn4o51YnD9yrfmLyiwxZzA3/mAeun517/AO1oP+Kn9wqh0Vk/7jP2Qjey54jaCFeBLHoB+p0qHx20Uj6RgIOvFvnwFQlFJs1ts+M4/Qi5tisxJuTcnmad4PDqY3kbeO6QAFtfXmbg6UzrpBOyG6MVPlVeLSeWRQ/x2JClxuESSKA/iumtmuBa9/yqNpXckkk3J4k1Ytm8n4SSjzVT+ZpsISvnhf0SScmd9m8o3AJJB4zwH3R+9T9FFbtVUa47UOSwhaKKKYdGmYYNZkKOLg/PyI6Gs4znLnw8hRtRxVuo/etRphnOWrOhVuPI8wafRd8N4fRV1OnVkcrszvCYoCyS7zRgltwEC7W0uen+tTllkYlmt4R3kinwILWWNBwPnUFmeBeFykgt0PIjqK95bjdwqraxhw5FuY0q/OO5bomXCTg9szjjYNxiAGC3O6TzHI8BeuuW5lLCbxuQOanVT6ipYBJUYPKZFDd472NkWxAVb82PLyqJjwRll3ILuDwJFrevS1CkpLEjkoSjJOD/APCz5ftehsJUKnquo+XH86nsVmUUUYkldY1NrFzu8eHGqVmGMw2WLd7TYm2ijgvr0/Os6z3OZsXJvzOT91fdUdFFV/8ATxseY8L7/oaVdk4R9byzbX2pwQ44qH+9ai8x7QcFHfddpT0jU/5jYfWsWrvgsJJMd2JGc9FBPz6fGmLR1rltnXfJ9Fwz/tGxEwKwKIVPvXvJ8+C/DXzqmMzSNclnZjqTcsSfqamMn2ZknLBj3RVxGQyMTvEX1A9kW946VMQxRYZsOy2RXEkUs29vFZVazgEaKNBuka2cmmJ118QRF7pcyGOX5DGow8s0gMcj7siEEbjWO6JCOAJt0NiaXbjL0iKssccRB3CE8KykAkyJHc7qDRbk+IngLV22gz9Ve8JSR3QLON28TMvsMu9qWA586qZN67BSb3NnJOKWEJWwdmGzP8NGZ5R9rINAeKJxt6nQn0AqJ7OdjDdcTiVtaxjjP0Zh+QrTaq6q/Poj+46mrHqYtFFFUiyFFFFABUfnOVxYmMxzKGU/MHqp5Gn9FCbXKAxbavYefCkvEDLFyYDxr/Mo/MaelNMn2Mxk9isXdqfek8I+XE/AVulNsdhu8XdDsvmpp71dijwssZ8R4M+wWwGFhAbF4gufuJ4V9ObH4WqXznMIpEWOJWslgrHoBa2up5ca9Y3Z+VSSpD/HxfWoybCyJ7SMPgaw9Xq9RYnGUcIrznOXZxoovRWZgUFFKovw19Kd4bLJX9mNvU6D612MJS+VZDAzr3BCzndRSxPIVYcDszzlb+lf3qewmESIWRQPzPqau1aGcuZ8L+Sarb7IjJshCWaWzNyHIevU1PiiitWuqNccRQ1JLoWiiimnQooooAKKKKAGWZYBJ03JBccjzB6g8qo2dbPyQXYeNPvAaj+YcvWtFpDTq7pV9dFe7TQt779zJA5AIBNjxHI24XqU2ZzTuJdfYfRvLofhVtzTZyGW5A3G6rw+I4VWsfstOl9yzjy0PyNXFdXatr4M6WntqkpR5x7FO7QshbDTmRSXilJZWJvqdSpPl+VVmtdwUH8RA2CxSst/8NmGqkcLE8x+VxWWZtgJMPM8Uos6Gx6EciOoI1ptM/yvtfyiw/Uty/pjvZSSNcQDIVXwSBGf2VkKnu2a+lgetWjDYlZSuHkkUzS4eVJpI91rMrl4rlSAzBQRoedUK9eoSd4bl97lu3v8La1KcNzydjLHBZcdtMAzJGoljaONH71WBdoxYPZWBHS1+AqBx2OklLFzozb+4uiA2too0GgA9BUhluzGMn/w4HsfeYbo/wCbWrjkXZlwbFSf0R/qx/SoOyqvySUZzM+y7AyTuI4UZ3PID8+g8zWp7F7ApBaXE2kl0Kr7if8AU3nwHLrVtyrKocMm7DGqDyGp9TxNPqp3aqU+I8IfClR5YUtFFVR4UUUUAFFFFABRRRQAUUUUAFeSKKKAOMmGRuKKfgK5/wADF/w0/tFFFJlFexw7pEo4KB8K6UUUyKOi0UUVIAooooAKKKKACiiigAooooAKKKKACkpaKAPO6KYY/KoJj9rCjm1rsoJt6mloqSZEbps5gxww0P8A7a/tT3D4ONB4I0X0UCiihyYRQ6paKKiSCiiigAooooAKKKKAP//Z;" parent="1" vertex="1">
          <mxGeometry x="-319.99999999999994" y="-58" width="283.79" height="140" as="geometry" />
        </mxCell>
        <mxCell id="L7Ud86Rvqq-_p02ORbhh-11" value="" style="shape=image;imageAspect=0;aspect=fixed;verticalLabelPosition=bottom;verticalAlign=top;image=https://encrypted-tbn0.gstatic.com/images?q=tbn:ANd9GcT2_RvtHTMpRvimcR6184few4QxLfPEPKLjWQ&amp;usqp=CAU;" parent="1" vertex="1">
          <mxGeometry x="-81.57" y="2" width="178.57" height="100" as="geometry" />
        </mxCell>
        <mxCell id="nzGm68jh4QHG974lU8Ck-1" value="" style="shape=image;verticalLabelPosition=bottom;labelBackgroundColor=default;verticalAlign=top;aspect=fixed;imageAspect=0;image=data:image/png,iVBORw0KGgoAAAANSUhEUgAAAS0AAACnCAMAAABzYfrWAAABRFBMVEX///8AAAAku7H+0QoHeaEXqODvUZiUyD+0tLRNTU3Z2tr+zgA8Pj309PT39vehoaGoqKji4uIAt6wAb5sAo9/p6ekAdZ/Pzs6tra3O1NbU1NSampqCgIB2foEsKysgKSvvQZJjY2NXV1e8vLyQxjT75IaSkpL8++v733D14+r95ZHZ4OH90yL+/vk6OjofICD99tltu99uobrs9vjGxcV3d3cWFRZtbW2LxCak3N1Iwr/87bL81jX96Jz999393GT67b71vNLwoMDdeKLhbJ7szdnpWZnmqcH86qXoj7T43nvvpMLxhLLyeq312OP82Uyl1urL5/JGtN+NzOpdnLjU6vC10t6ZusqY0eo2hadpx8fT6fW95eRUYGKE0Mw9l7MDFBez3NiGssbM4rCnz2jg68DB2o641HXR5Lbf7NDD35+W19JQb7i5AAALbElEQVR4nO2c60PayBbAsb4ADQ81EoEiAYp9+SogqH1Yt+3d7t5u1Wq79fb2aXe39v//fjOTSTIzmZlMClesnJ8fCiFMJj/PnJyZxCYSAAAAAAAAAAAAAAAAAAAAAAAAAAAAAAAAAAAAAAAAAABcJlZXVlaH3Yefgoe7N++Pu9x8sDHs3lxqVm7cn5kZ93Fe33g47D5dVlZu0qo8Y4/Al4gHYVXEF+Qwno1xiSzE3rB7d8nYVbhywuvmsPt3qbihlAW6GKJkoeQ17D4Ojcf7v0xNPdl/6r2PljW60fX7VLU65VCtPnuMN+xpyHJ0/Trkfg+DW1NYlUv1ibNlVccV0jV6hddTypXDC2fThlZoOdwdducvmlusrKl9Z9uvurZGbiyyrqaqKHHd1JTlMFpF/b+40Krecjbej7Y0msE1xcdWxplL64fWaGWuP7jQmkKXRO0kj4JrlBa89nlbzxNRM0TO1u1hn8IF8lyU5H+LMRJHaig+4W3FS/IouEboqviLIMnrVvLEVv+JK5/N5XL1AZzN/xt+JKIk/zBG2hpIDZEcc5jt/2QiyCMy/bTwO5fl/52Il+QdWw/6Pg1sK9V3M1FU0GGK/bRwq1qlfcVP8oO4KF6QrVl0mHRfTWTyj188841V/3A2vYxla/xG36cxaFsGIrx5ALYw5uPnz3CQxU/ylzC2Mqi5sbCuQdnCx3i6/6L6LBE3yV/CvCWztdanrdbBYYs5DhqI8ZL8+Mzejx+fcEG2OrZt1/I/2mprc2FhYfLoFWsscTuWrEGsn16Qrb44mHThjT2KJ2sAt61/AlubC5MBKMg2D1r4xOOsQIzP9H9F/BlsHdGy/CDbRB/FqCBmdgfRl8tua1UgCws7SOjeHsPsocZa9076681lt/VKLGty8gh9qr0GgSfUJ4uL88ct9fHUXHJbJzJZkwuHCe0a4u4Kauv1/MTExOLia43DGuZSoXDHDG1nbBmFJfxD/kmbsnlwxiwuFYqmaYa8YFuaKhxMM13Ih1vxOZLJIsF1V8PVzEt8TcCyHObfRPQpX8K1tMN6zWK7xthKj3Fs1ZKC1pqpYI/1ymyqdh1XUs3r5etlvBG9ID/kO030mvtdmVZt2Wtltpu1BJPuQ2lo6QcXeQjiDZHl6PqscmV0WQUlqa07vC10Im3OVU2wEz7RiuCDLfKtcC2ft/l9BetGm3JZk/iyGD1VJJXDZ1+Wo0sxGNuhU1ijwivS1thYjm4tJ9yl6BvhXZOvheaJgnZq4b4rQssJLnSB27urji6yBHhMyXKSlzTVJ0XnYLAfS0eiC3WWYllyW15s8bZKgn07ob6rBqJj60+8067S1x7apfV2cYKxdSyRRcKlkr2DllLabl6hgp6xlSkuBT/pdr1Dvuzv7em0c/V2od5OWrnrnW4ttY49pJYry+5oRC/cnzWxLf/XYmeThaViIWmVujUmQ2AOVLaILIeNR1JfbuUwwcpyxqKk7lrHnbL894abdvzRpa4gTPfqUPDe2/jtdfk1THPFhlwmcqH9WKTF1iQpTz02xFNGt3JY4l05wXVPeLxcMFA8aky4RNRbBv5+03uL35UV56dni4RW5JqEIsm7slqnXpA8vB16rnnmPlM5sLqEx9tCvcoym0zcU+9KF1WdlumBW8RfVZ2fni03H0TfaVLY+g/6/OTa3NzOO7LzKucrVDkwQ/FQcDh8euvcxi6dUqNstWlBeOf/qs5Pz9ZaxEE95CMRh9S7uWsOc9e2vf137we+SOVwTyhrYlFUczWZcUQL8IZilC130JCaPhc1EPVsucM7G9opxJ8yW7gCcGVhX9+9kmDvJfFFFuGPxbLEiUt4Y8qkzyjKFrOzFRkTWrbaellLVkEsHOFf3rYnC/mae+8lMHKB3EOv+cqBsvUhfDRDnGdoh3q2WvRphiebAVq2cpHpz2tNZGsBTxAT7ylZ2Jef8Dd+k1YOAQJbaTpFB6SoHBsrtvL4zaxCl5atDp0KlAgm1Qt4HZCXhYX5CX8FVw4nclfC2MKxYIc222gzKcGUtgxjKcecvlu9jXXasopLy1ZX3C0B4aG48Ap/cBqWhRPYp+C7wspBlbcs+uoXgHtLKkOBrYxZSObKdm2NuAlGIjXxSTWTeYEyLVu1yIuFDx9cpIDfEcpiEv5nlSzhNRHPxlJWjsVKqWwla1tjIfxZaIrZnCrXOTFatnAj/JVaDBdcpCaVynITPu6tNMFjRMsQormrh3gkSmbNwel3+I9qTJE5aFvcDR9cU7bkqogvlL+UA3FiXnAolS1hlmdXwj5WUnaHP/18h4+99ULw6cBtMWMRX/VOFIFF2EH7qYJLuAihstUW2CIrFFt206oXTAOVNS28hV0PKpZsduUvWGAdvK1WcNOHrUlV0YWC61ARXMI1CDdv5bICSmbYFpnsWnQTpsAW3l60yrO+Lr+m0M/yurYCXbgTnzRkkeD6IA0uUf2QSGRRt8LXRBralhta7LMdpuT0MUbbdm35FzgtW3Z0txjQdJHUpN+1ZEUFl3h5C1cQXWVPaFsVwe9cacsh/RGnLu+tfr0V567cyaa8JpWA9j6WBJfkrk8huluULUMQWtKRyDbgTbv1bOG5vlYt7+MGg7gmFQYXKlNP5oW65iXrzO5MRdkNylaRTUEukbYyrOMtQRsJzlYyultCVGWWMLhe33u7GDImk0XWOlWzYNpWm4kSQtRIJOPXLyJw/R9eXmBsFURBHImyJg0HF1n0ar3+/HZiftFXtqi4m0hX7WJCtjgxmrb8VaF15p0PY8sNR431LYYYqvzgcmkdfv7gGlucf6t4bgSXEGvyzxlb7u0hLi4iR2KCDRS8LBpeQ2bXTvEvcVnVrTAaRSnDKfv11smb44n5D8qHINwKSnB33ieU5bmdI2OrwCYhXEuF73WxttyqOd5fgOhUpRR4JH75ssK0EfV8jVtAKh7rD1UQ3CXUDTh5cZTBXwrW0JqCNhK8LfdXEC9zbce0hSqus15v+uzLN+0nKOtuv5rS4AhXp1RgGHV7jNAtoSYKrQx7FaivcznIPSD37ETofiKZjzaVFyCWuLZQHPWmHRq9xtn5Vz1j3jMedjbZbrfr9XrSapa7tWVPH20rT3ZtG4Zxp5Ass8szaZKel2t2uWkl63Wr6bsMjucO57FOslhsJ61S2RDaanlfTJUtp6FS2bZTFfVcKKYtlORXsC1srNE7++trtC1jTIw3OEWzajFp6iQljSG4B3ryQltezDOoJx0xbaEk/09jmqLRO4/WlRcs7jksiWyJHvzwp86m9KmSAn08U/hZ6BkbwcMsgmdsKOJl+bnvzlf+YmxNN/6OtiWJGOZedZCkucioNPOJJbKYanjXPw5+AOXX6U/JgkaFt5XId/mG1H/3F6+CcJP8NEtDx1bCzFGrx5W1WjmbTHvJOt0slUrUGk2xS3bdWitbXhI2EQn0DE492+zOrn30G+vUww9bZiw/HtdqZJDmnKPwOd20Ot4y2fqsXbLUl8hWPFsoyU//kC2Egf6c0jlnjb+oNPGe6tZM3Jy0MSPvXFLkj62yDWl1Km4tj9ru/bCtn5/TOLLQcuDXBmfrbNincIHEuSjiJH/O2dLL8leEOInLTfKcrd63YZ/CRRJjKPaZ5K8CcWoIx9Yql+R7X4Z9AhfLjrYsQZJvjFKOR+gH1/sEP++ZbqxEtn/F0L3lgxe3mCTfmB45WfoVKkry36Z9XY3e2Qj9jz8+emNxjjz19mW613DoNf4eqdohQOspiOCRt2//nJ+f66+dXjmib+3jOh5wiZoAgSyGd1o5CyAoblrP7fT1R+ZXk0/XJI80Q2AJ2Q77ov7eB+B5d3ptbo4oQy9OIa7UnGx/P91xOP3+DtIVAAAAAAAAAAAAAAAAAAAAAAAAAAAAAAAAAAAAAAAAAADAUPgfZeBFSv8WWR8AAAAASUVORK5CYII=;" vertex="1" parent="1">
          <mxGeometry x="-350" y="1281" width="301" height="167" as="geometry" />
        </mxCell>
        <mxCell id="nzGm68jh4QHG974lU8Ck-2" value="" style="shape=image;imageAspect=0;aspect=fixed;verticalLabelPosition=bottom;verticalAlign=top;image=https://encrypted-tbn0.gstatic.com/images?q=tbn:ANd9GcTF9x9h1tj0on_58-MTdy78pynjecUNFdhizg&amp;usqp=CAU;" vertex="1" parent="1">
          <mxGeometry x="3.552713678800501e-15" y="1264" width="473.98" height="200" as="geometry" />
        </mxCell>
        <mxCell id="nzGm68jh4QHG974lU8Ck-3" value="" style="shape=image;verticalLabelPosition=bottom;labelBackgroundColor=default;verticalAlign=top;aspect=fixed;imageAspect=0;image=data:image/png,iVBORw0KGgoAAAANSUhEUgAAAVQAAACUCAMAAAD70yGHAAABj1BMVEX////pUiTuAAAodeIAAAC7u7vxWin09PS4uLiioqLb29u1tbXMzMyRkZFHR0fq6urt7e3nPgC62v6vr6+nz/75tBH6uBDW1tahzP73yL/wmIb87er6vA+u0/6ayP3O5P4uLi5mZmYfHx9XV1fn8v/U5/7nNQD2jRv2lBn3mxfoShMAauDg7//1iRz4oxX5rRNvb2/zbCQTb+HzsaR+fn71gh49PT30+f+Nwf2bm5uGhoY/Pz/T4fj5qwBRUVHwSwD0dyHyZSYqKir83d35wcHug2vvjnmAqOz7xwzxUVH0hYXxWlr1k5P3qqrybm7vLS3qYj7scVOWtu/sbU5PiubxWgBunOk5f+TypJT0dAD96NzrZED0fgDvIyPwPDz71NTzeHj2np7wQ0P5wbXyYTPzcDj0gVT71Mj1lnX4u6f4rIv1kmWKru31fzD3oHP5upz3oWn7y6j3lzz5tXv97N74q2D2mzP6w4z827n6wXb+6tL5uVL5sjj81Z37w0383Zb81Xf+7sf7yQD80kv92mh+MdSKAAAPV0lEQVR4nO2di3/Txh3AfyZSZMmSJVtZRWJCLMs8qlCmBtXBNthdAklpoUDIC5KWtqFN29FubRkUuq2j2x++01t2JN8pjsmD+374gB6+s/jmd0+dFADKG2bx9q1TiFsfPz7sKzkx3Lh7KuTujcO+mhMB99WpHm5VDvuKjj+Lp/ZA64AhSXB66tTiYV/VMSdWm34cbn5Ga4Bh+DQenp+E258e9nUdZ2KF/3PUC6DV6kEQC1SnK/UZDdUDINY4Afcp3I52aa26X2Ll/TYyGpdMxwD75U48Mu8ikVFT9fFhX9ux5VasDr3htFWLfVJ58ZCv8BgSSb0Bi585vaqwqfoEneYYhk0hrx32tR9ZQql3nb1PTn0RVQhe8y+lRmr+DV3i8SMcQ30Jt285VWzUVN3GJGXfyAUeR8K4BNRMobbq8Z2wV/UlJimVmkYl3kx53aigqcLNqVCpqXweGPSGVncA/F7VXVxKKjUVr/zfCkP2VjAguINLSaWm43ahvrjzRVC5fvXY3fwMm5BKTefxqUTwg1QqdQAfJznF9aeASh1MgtVPCJJRqQP5st8ptpFyoFIHU/k8rvQrsrt+VCqOx2Hr/ynpjVQqlYDFG4gMt6ap1DicEmzJ7p8Ape9zCjcwGyo1TjOczWsq0HH+LTQaKuTV6COchf5iB89PU6lxDLA7BWhZFqicordA5hvAVcESJJ1vGRzYusAzoqSzmmwYHGvYydlQqTEUW1A5BhiOb1qKKhY5CelptUBXalATmwWblauywTEKz1ZllmeEvJyYD5UaQxUFw2ZQvMqWpeigqlWQUekXVdlGB1m1bVmWbKB6gWcZ9HGxY1CpWAxoqQqDIlFSLc0CjmmhAJVlSxEsKALL26xiKW2uiKRWBRTNIPGJ+VCpMVRQLEllO3YL8qKG9mWQpBZfAIVF5wTRqVNBElXQBMVqAWu0kvOhUvfAGcPmQKXuJbmizACVOgKo1BFApY4AKnUEUKkjgEodAVTqCKBSRwCVOgKo1BFApY4AKnUEUKkjgEodAVTqCDgSUifvH/YVHCxHQepS1xwfvDrhmJFNamVyaqmEyE1NHdwLGna644iTZDWL1Cv3SiXTzDmYZql0c/JArqDiOjVvHkhmRwNyqZslz2fuyRPvX7O0dRBal0xH6nj3BD3vTSp1J1CaM+FBLqB0b2gVu0/GfZ5s7qLS8GD8wbBZHjqEUm+WQo+TsJWLKA0XrJvj3fEQs/tkHIVt99i/T4dIaiVnRhadAhu3upT5O7mdzXtbWzevVHZMc3wv5k7mHMlR+ldFjgISqZXQoGMT7aOwvXd/31Yr3a7pBWZMqRn5NbP/mAiRLaZWq0nZE5ZX169l+DiB1Mhp7qbpttL3UamPwjWr1Uq3LzS73a2tqStTW1u+7FFFKsvwims242qJ6Y3ZsbnZVXKtBFLvh/pMKLlSd0o52IzVCNnq1V6p6Mc0GbR2le8euOdG0xEQApkqkyXZBFLqgLSWCZPgpW6WIntwpTSFDnHnp2A3OpwrZbLQI7V7szft5BaK1tGMWhvhuw30JnGilbG5sZDZjWmiRFiplfNRjToFi+fdqHywCRBrrcxsFp7EnO4N8qnuuDmVKT8ylCg+tRpZkvmVOV9p8O/sxgRBOqzUB73F/LwbWE54xcp/rpSpGlwK26Tuo4TTu93k40MiNqJtsvI/PTsXFPyZ6bFZX+sYvm7FSV2Ml3K078XQFacrGetX5Z4QXaXPbjc9Tt3v7I5vEWY1H4D/qBaZ5MikhnWpq7Ec1K2r2IQ4qVNRPJqbzvW4R93A3ImHaqZa9eu/uKyllfKdNXyoeirn677UOl4rE87ZqEQrUK/Neg7DyCxveMGK/Sqc1PMxcVFceWOeWBBn61vurnlWY0e+/3pt7Zvvd/3db9e+HZzDfH0P2P+qFKpkiN5xdNot/LNuvtdWl1HTX3Y1z2LLP0bqZFxcfzTejIcqyWWGvO+w9l2w++jrtfe9Q3/xK+e1rwemr19KAHBaG94TOkqVrPu/7krdcLdXYB41/HX3yNxpXEqM1HhrlOs/ObXf8r/rOlyr9Oz6Wr9xj363Nmh+df5cktT5+rnB4aoxTIvndaZKdpVuYZ9bRmFah6cz5XV0yKtU13EpMVJv9lWpPVyJS80yAPje9fdXf891uvbNX9/33K651enaoP7EpXOp1FMTKUVDlHnLLijqAkmo1r0qdbq+sbwC5fVV5+flBe8YLilG6r3cAKnxMDavEFxnwDcfIh76pZ9zdv7mbD36/qGz/aGz/eN3qakBzs2kk2ZVjFekzQX8jYayV6Vemy7D8srT5dVpVJVOeOX/kvcJIS0pRmppkNR48Xf668R3RFx1D/1WyTEZVASPfnBO/Ii2dl3NyTnW6wOkziSn02o9x0R893/Zkwrl5fLq+gqAM0i95Eevm0XbVuRk1LQTsuxMksWk7q1T4+fMTVmXOCxuuh/dgHzom/zhw4dR/6ninHL30UfZhpCURb08Ux5AHQSrCdG3uXBMn+d8Byd11atAyzBdvjaBxlHOPJUn2qln0dUt2EIKlpRGS41JNUvmnmoTjQtMM7ghYG5KTIvN91LoxykXj354+IHDw0DjB3+PZbqLTm7/6G7KDWZvDgWVG6i0XD4HFtPqSwhWWCKl2oJDg1moLni0Eyet5oOBqVPWV9anV54ivf6oyusRDFv8zcnJza2c2XvunvlkarPiTwGi4s8RTXjvekpDqc8ebu/Gz/8cnQIx8b9bnk4gdDp9Dv04+q9EqQZbGiMrvXDNxKHAzGwwjeK0UNMry9f80YATqpjOG0bEg3jffrH3PseiW36zNlTvffCex7a3/2x7u2f09NM2OvXroBxmkqSGTFxKSNIMH9hXdWjX4jAFYSHpW1aC2alwWDofzVZhuv+EXapS2n2joAdA2qX6+/Z7gVQvQCt9UnexUs+dnhhAYs+8E4Y8klplelCFalKSMCxRFXrNZTWcBBwyUoOuaNrk3mLQAUi13suz7QshP3mHft7+Kf6JX7ejU8nMnz3tMX26F7R/9mxilyqaoCKWCqcjq7MOG3OkgYqTGk5SlfZ0qFzCicHzmO/x+SVyeuFn79CrCxfin/j1Ak4qzFw96zJzyd/wmT97tZwYQ9x+pAY9fcTq0/WV9XB3FjulimtcolvTS1N7CZ2STqhULkZceOYd+8fF57FPvHBO/TI4l/JV1+bVejlm9ep0PVkpOG/sCMgg1e9UOeV/ZWV95WkwX72M/V+ST/2VEohOEt+rf37xXZ+L//APofD95dWzF97uc/fUi8GZ1CeuutSnr0akV3SxSC1kkBq2TBvrq0/HNvrarQHgpFbCnurO5F6iW6r4bwp48W5oNWiPXr18fuG55/GZ5/ziM0wu85e8IelMoHRiQOPBMWHv28ggNdaHGosgmA/H9i2De6mJ01Bh25/pdsoLFI2XHd59tefcc//MS+LczpUnJqZTh/we4aiEtXVYIJYKE7NjfeAnUyHDjb+BUknvfoS8vOzRbzU4fvly1hwJQcXf0uMYYnI/1WN9rs8p0e1U4lvUpcXKXvwal7xGDQnc9fZII6cDe6pDIDCi5uKM0b0t2xrw+dUeq7P4RsqBYGjpN/FOw3Q+RtRQlbJM+/m8uvxnl8u/RcH67LfrzqHr/3w5KqUItt1AtN2K1d1sWAPnwzfmYmCnp/3vwH+kEq1QmboSES6m2t963X9d96xev/7Pf7lef3153XP6236yy4qMnKa8/6yPLLfBfIgWqIXDpvjUR9Dy73cN9PU/BVz38ff2l10WWlEzNZJFgGRLKYNF6bHBatDXKu3T6es/pYDrTB0ArG752CN51IBs0W/lfqlv4BQsBUwZvuJ5/U4i/34DTkcO6fJ0f8W/ed9r6Hf9Jiq371XPv59J4p2T4JT8QQoUrI5Is5SbWloqlbzNIVaSvk6Uemb/GR4hMjzys7h53n3ix0R/OY/83B9qce7rMx999NGZM7+jrf8gnD3Ef4fJ8siQ7eG03c2lLXcmZWlpd9gqHmn83+/Rrif19ZCZHg2OwmOUHv/96I8/TkagHiGp8Pp/J8TpUZJ6cqBSRwCVOgKwUrm0Z+SGHuCpUvTl4on6xa5YqYzeqSb4k8AYci6iI2lG+OhN/Hmx4//kP14qQIstSDJrscCrkmgJwNqizBQs3tsEHgRRsVsZXQjOCjFR6RSFYodnGbHZacu83kY/LAO7duyog5eqSgzHqKKhdISaaOuiIRhKUejIVlM0NF1pCw1geZ1lM/5aW7YFkmHJVdA0jYEqqIqtSgWoQV6pDv1S6EMGL1UTFWhAkwVVbQDPgqG29Y6ogy6D0SyiTecN+ELVSF0Dl4zmxGNV1oE31CosQFGyC5IGDaXBd06+VOevKuRt0LUFJJUzRBuaiuFI7eRRuKFgs/kWiFlf5N6QRGNBRvmoPIMCtKYVpZYGVdEQmePeamGlunfFJFSxNprQAlaDJkgNCTXdvIIOO0fVdksUG8WMkQqQb8oCJwDHo7IggsYrrMCBCIWCfOKlvnVwdhFPyq+i8KFS+2mQdBW14qCzVGovit1ppq7Y9+FR79Ee1JhSqT1oHS3t6YgIsSGDNOhJTCo1DldkRQwaClPZhhaVSgjqMvNYOqz7i6uoVDLQSISEDkelkhP/pZMD4AUqlRwqdQRQqSOASh0BVOoIoFJHQBapEmunT6pknK8/0WSSajE2m0LKL1N+O8lU/AWyJ/Hfeg6sTqVEUKkjgEodAeRSO4PnUykR5FJrRo1KJSNL8dfexFvYTwKEUtUiP/Qvq397SJPKibyt67plNVmnW89rIv9Gr+tYky8kHNTshs6LMucsKtUKaEdsZl428jYjVgt9Sxc1uyr1KeTUBpWaiYLRbuU1xQlLQWzq7X6jlP0hsJL76gpbPe4ruigUCiGSBBDc9+eit6qI1XZjz3IAOglNiM0IUERtO2qaRM0AOe91BFjn9dWCAqIi5xV0WgNBEGuC8ziNItBaF4NdaEORq+aLmt2yDbmTb7hWWUPlRa2t2vlagYFGoSPaxUJNk6SWxDJJ/VpKDEuWeAPFpSjVgNN5vVl1p0xYnS1oIDFQUKEl2SBYthPRTFNq5+m4CoclQLUh2uA8gSAbvMTx7p0m1n3Uq1MVCk2wVB1VB7YMbWAUmSecKnibQQEoMmDoDVDbhg5F3Zs0YWvFoi415UZ+AR3R9QaHPqjzbLHIslQqIc6MnluZcqC1Wq3o1VWq23Id/6cRjxQanZWmHDr/B90+URS0d18jAAAAAElFTkSuQmCC;" vertex="1" parent="1">
          <mxGeometry x="-820" y="1280" width="385.95" height="168" as="geometry" />
        </mxCell>
      </root>
    </mxGraphModel>
  </diagram>
  <diagram id="rJByhrCCnvJ9uRydj4F7" name="tecnologÃ­as">
    <mxGraphModel dx="1434" dy="738" grid="1" gridSize="10" guides="1" tooltips="1" connect="1" arrows="1" fold="1" page="1" pageScale="1" pageWidth="827" pageHeight="1169" math="0" shadow="0">
      <root>
        <mxCell id="0" />
        <mxCell id="1" parent="0" />
        <mxCell id="UabcRzs92zdOVVImEEpj-1" value="" style="endArrow=none;dashed=1;html=1;rounded=0;" parent="1" edge="1">
          <mxGeometry width="50" height="50" relative="1" as="geometry">
            <mxPoint x="520" y="360" as="sourcePoint" />
            <mxPoint x="520" y="115" as="targetPoint" />
          </mxGeometry>
        </mxCell>
        <mxCell id="UabcRzs92zdOVVImEEpj-2" value="FRONTEND" style="text;strokeColor=none;align=center;fillColor=none;html=1;verticalAlign=middle;whiteSpace=wrap;rounded=0;fontStyle=5" parent="1" vertex="1">
          <mxGeometry x="560" y="115" width="130" height="30" as="geometry" />
        </mxCell>
        <mxCell id="UabcRzs92zdOVVImEEpj-3" value="BACKEND" style="text;strokeColor=none;align=center;fillColor=none;html=1;verticalAlign=middle;whiteSpace=wrap;rounded=0;fontStyle=5" parent="1" vertex="1">
          <mxGeometry x="330" y="115" width="130" height="30" as="geometry" />
        </mxCell>
        <mxCell id="UabcRzs92zdOVVImEEpj-4" value="-Angular 15 (LTS):&lt;br&gt;&amp;nbsp; .Interceptors&lt;br&gt;&amp;nbsp; .Lazy loading&lt;br&gt;&amp;nbsp; .Environments&lt;br&gt;&amp;nbsp; .TypeScript&lt;br&gt;&amp;nbsp; .Debug, netword (tracing)&lt;br&gt;-PrimeNG&lt;br&gt;-Token JWT" style="text;strokeColor=none;align=left;fillColor=none;html=1;verticalAlign=middle;whiteSpace=wrap;rounded=0;" parent="1" vertex="1">
          <mxGeometry x="540" y="152.5" width="210" height="200" as="geometry" />
        </mxCell>
        <mxCell id="UabcRzs92zdOVVImEEpj-6" value="-Java 17 (LTS):&lt;br&gt;&amp;nbsp; .Interceptors&lt;br&gt;&amp;nbsp; .Lombok&lt;br&gt;&amp;nbsp; .Handler para excepciones&lt;br&gt;&amp;nbsp; .Procesos asÃ­ncronos&lt;br&gt;&amp;nbsp; .Libs para consumir API&#39;s externas&lt;br&gt;&amp;nbsp; .Environments&lt;br&gt;&amp;nbsp; .Lambdas&lt;br&gt;-Spring boot&lt;br&gt;-Spring framerwork:&lt;br&gt;&amp;nbsp; .Spring MVC&lt;br&gt;&amp;nbsp; .Spring AOP&lt;br&gt;&amp;nbsp; .Spring data&lt;br&gt;&amp;nbsp; .Spring security&lt;br&gt;&amp;nbsp; .Spring cloud (Sleuth)" style="text;strokeColor=none;align=left;fillColor=none;html=1;verticalAlign=middle;whiteSpace=wrap;rounded=0;" parent="1" vertex="1">
          <mxGeometry x="260" y="152.5" width="250" height="215" as="geometry" />
        </mxCell>
        <mxCell id="F7b1Qgkeon-JUC24usua-1" value="Herramientas" style="text;strokeColor=none;align=center;fillColor=none;html=1;verticalAlign=middle;whiteSpace=wrap;rounded=0;fontStyle=5" parent="1" vertex="1">
          <mxGeometry x="310" y="400" width="130" height="30" as="geometry" />
        </mxCell>
        <mxCell id="F7b1Qgkeon-JUC24usua-2" value="-GIT con GitHub/Bitbucket/GitLab&lt;br&gt;-Postman&lt;br&gt;-Soap UI&lt;br&gt;-IDE IntelliJ IDEA (opcional)&lt;br&gt;-CURL&lt;br&gt;-JMeter&lt;br&gt;-JUnit con Mockito&lt;br&gt;-GWT (Given-When-Then)&lt;br&gt;-SQL&lt;br&gt;-Herramientas de monitoreo de querys&lt;br&gt;-MemorÃ­a cachÃ© (Redis, propia de spring)" style="text;strokeColor=none;align=left;fillColor=none;html=1;verticalAlign=middle;whiteSpace=wrap;rounded=0;" parent="1" vertex="1">
          <mxGeometry x="245" y="440" width="280" height="185" as="geometry" />
        </mxCell>
        <mxCell id="F7b1Qgkeon-JUC24usua-3" value="Conocimientos complementarios" style="text;strokeColor=none;align=center;fillColor=none;html=1;verticalAlign=middle;whiteSpace=wrap;rounded=0;fontStyle=5" parent="1" vertex="1">
          <mxGeometry x="570" y="400" width="130" height="30" as="geometry" />
        </mxCell>
        <mxCell id="F7b1Qgkeon-JUC24usua-4" value="" style="endArrow=none;dashed=1;html=1;rounded=0;" parent="1" edge="1">
          <mxGeometry width="50" height="50" relative="1" as="geometry">
            <mxPoint x="519" y="800" as="sourcePoint" />
            <mxPoint x="519" y="390" as="targetPoint" />
          </mxGeometry>
        </mxCell>
        <mxCell id="F7b1Qgkeon-JUC24usua-5" value="-GitFlow&lt;br&gt;-Versioning&lt;br&gt;-API first&lt;br&gt;-Manejo de PR&#39;s y merge&lt;br&gt;-Resolver conflictos&lt;br&gt;-Restringir ramas&lt;br&gt;.Realizar debug&lt;br&gt;-Logs&lt;br&gt;-REST y SOAP&lt;br&gt;-Patrones:&lt;br&gt;&amp;nbsp; .Singleton&lt;br&gt;&amp;nbsp; .Builder&lt;br&gt;&amp;nbsp; .Retry&lt;br&gt;&amp;nbsp; .Circuit breaker&lt;br&gt;&amp;nbsp; .Event dourcing&lt;br&gt;&amp;nbsp; .External configuration&lt;br&gt;-Principios/estÃ¡ndares de desarrollo:&lt;br&gt;&amp;nbsp; .SOLID&lt;br&gt;&amp;nbsp; .DRY (Donât Repeat Yourself)&lt;br&gt;&amp;nbsp; .KISS (Keep It Simple, Stupid)&lt;br&gt;&amp;nbsp; .YAGNI (You Arenât Gonna Need It)&lt;br&gt;&amp;nbsp; .Nomenclaturas&lt;br&gt;&amp;nbsp; .Idioma&lt;br&gt;&amp;nbsp; .Paradigmas (imperativa/funcional)&lt;br&gt;&amp;nbsp;&amp;nbsp;" style="text;strokeColor=none;align=left;fillColor=none;html=1;verticalAlign=middle;whiteSpace=wrap;rounded=0;" parent="1" vertex="1">
          <mxGeometry x="540" y="430" width="280" height="400" as="geometry" />
        </mxCell>
        <mxCell id="dfZ4m58-Ecyc0qlMsbq1-1" value="" style="endArrow=none;dashed=1;html=1;rounded=0;" parent="1" edge="1">
          <mxGeometry width="50" height="50" relative="1" as="geometry">
            <mxPoint x="200" y="380" as="sourcePoint" />
            <mxPoint x="790" y="380" as="targetPoint" />
          </mxGeometry>
        </mxCell>
      </root>
    </mxGraphModel>
  </diagram>
</mxfile>
